<svg xmlns="http://www.w3.org/2000/svg" height="1817.147" width="1764.269"><defs><clipPath id="a" clipPathUnits="userSpaceOnUse"><path d="M0 1920h1920V0H0z"/></clipPath><clipPath id="b" clipPathUnits="userSpaceOnUse"><path d="M589.114 883.861c-.707-45.901 35.931-83.683 81.831-84.389 45.9-.707 83.683 35.93 84.39 81.831.706 45.9-35.931 83.683-81.832 84.39-.437.007-.869.01-1.305.01-45.308-.002-82.384-36.378-83.084-81.842"/></clipPath><clipPath id="c" clipPathUnits="userSpaceOnUse"><path d="M734.339 1428.96h44.331v-44.64h-44.331z"/></clipPath><clipPath id="d" clipPathUnits="userSpaceOnUse"><path d="M810.301 1416.62h44.331v-44.64h-44.331z"/></clipPath><clipPath id="e" clipPathUnits="userSpaceOnUse"><path d="M790.791 1590.9h44.331v-44.64h-44.331z"/></clipPath><clipPath id="f" clipPathUnits="userSpaceOnUse"><path d="M874.141 1576.71h44.331v-44.64h-44.331z"/></clipPath><clipPath id="g" clipPathUnits="userSpaceOnUse"><path d="M817.689 1544.09h44.331v-44.64h-44.331z"/></clipPath><clipPath id="h" clipPathUnits="userSpaceOnUse"><path d="M848.167 1623.52h44.331v-44.64h-44.331z"/></clipPath><clipPath id="i" clipPathUnits="userSpaceOnUse"><path d="M444.741 1478.74h44.331v-44.64h-44.331z"/></clipPath></defs><g clip-path="url(#a)" transform="matrix(1.33333 0 0 -1.33333 -417.74 2508.066)"><path d="M979.83 540.69c-81.971 0-161.501 15.619-236.592 46.447-39.898-13.498-78.318-21.412-114.298-23.538a335.945 335.945 0 00-19.711-.592c-57.263-.001-106.657 15.397-146.811 45.766-44.771 33.858-74.65 83.63-88.806 147.932-12.99 58.995-12.163 127.974 2.453 205.024a794.527 794.527 0 005.4 26.01c-16.861 57.176-25.405 116.595-25.405 176.722 0 18.584.828 37.317 2.465 55.8l-19.282 30.743a22.503 22.503 0 00-2.023 19.81l185.947 499.117c3.32 8.915 11.81 14.648 21.07 14.648 1.218 0 2.447-.1 3.679-.303l213.738-35.281c69.717 26.039 143.082 39.235 218.176 39.235 2.519 0 5.083-.018 7.746-.053a789.854 789.854 0 0022.305 11.599c70.16 35.043 136.31 54.618 196.612 58.183 6.635.392 13.267.59 19.71.59 57.266 0 106.66-15.397 146.813-45.764 44.77-33.86 74.649-83.63 88.805-147.932 7.67-34.837 10.537-73.5 8.539-115.047a628.397 628.397 0 0036.654-51.804l15.01-3.262c.48-.105.957-.225 1.427-.36.483-.072.964-.161 1.443-.264l19.193-4.172a22.47 22.47 0 005.31-1.875 22.508 22.508 0 005.63-.503l19.194-4.17c.48-.104.957-.225 1.427-.36.483-.072.964-.16 1.444-.265l19.193-4.172c12.143-2.638 19.847-14.622 17.208-26.764l-23.508-108.161a23.277 23.277 0 00-.307-1.244 23.465 23.465 0 00-.24-1.266l-.934-4.305a22.43 22.43 0 00-.69-2.482 22.57 22.57 0 00-.401-2.54l-2.807-12.916a20.623 20.623 0 00-.141-.608c12.699-50.061 19.136-101.793 19.136-153.852 0-89.43-18.491-175.647-54.972-256.398 7.007-25.677 10.347-52.22 9.934-79.027-1.151-74.878-31.18-145.035-84.554-197.548-53.311-52.451-123.837-81.341-198.564-81.341h-.015c-1.472 0-2.961.012-4.438.034-34.855.535-68.701 7.299-100.744 20.122-61.363-19.654-125.38-29.613-190.418-29.613" fill="#e8e9e4"/><path d="M1226.205 1881.05c-6.884 0-13.963-.212-21.04-.631-63.356-3.744-132.44-24.105-205.338-60.515-5.865-2.93-11.823-6-17.807-9.178-.735.003-1.464.004-2.19.004-75.758 0-149.83-12.97-220.374-38.568l-207.876 34.314a45.127 45.127 0 01-7.355.604c-18.52 0-35.5-11.463-42.143-29.293L316.136 1278.67a44.998 44.998 0 014.046-39.62l15.303-24.4a657.439 657.439 0 01-1.925-50.19c0-60.315 8.305-119.96 24.695-177.47a803.513 803.513 0 01-4.296-21.067c-15.186-80.055-15.967-152.073-2.32-214.056 7.495-34.046 19.345-64.807 35.222-91.43 16.386-27.476 37.24-50.896 61.984-69.61 44.148-33.39 98.105-50.32 160.374-50.32 6.898 0 13.977.213 21.051.63 35.563 2.103 73.248 9.514 112.208 22.056a643.604 643.604 0 01104.504-31.321c43.424-9.08 88.12-13.682 132.848-13.682 64.685 0 128.406 9.514 189.663 28.297 32.333-11.95 66.278-18.267 101.153-18.804 1.583-.024 3.194-.036 4.785-.036 40.755 0 80.367 7.919 117.735 23.538 36.111 15.094 68.62 36.716 96.622 64.266 28.024 27.57 50.181 59.747 65.855 95.634 16.237 37.176 24.79 76.744 25.418 117.605.403 26.194-2.516 52.16-8.688 77.414a643.288 643.288 0 0137.997 116.05c10.438 46.43 15.73 94.309 15.73 142.306 0 52.125-6.23 103.94-18.53 154.185l1.83 8.413c.181.839.34 1.68.472 2.525.23.824.436 1.656.618 2.497l.936 4.304c.091.42.176.842.256 1.263.102.414.2.83.29 1.248l23.507 108.16a45 45 0 01-34.417 53.532l-19.192 4.17c-.479.105-.959.2-1.44.29-.475.119-.95.23-1.43.335l-19.193 4.17a45.365 45.365 0 01-5.543.852 45.308 45.308 0 01-5.398 1.527l-19.193 4.17c-.479.106-.96.202-1.442.29-.473.119-.95.23-1.429.335l-5.918 1.286a651.54 651.54 0 01-27.71 39.094c1.34 40.376-1.804 78.178-9.379 112.585-7.495 34.046-19.346 64.807-35.223 91.43-16.386 27.476-37.24 50.896-61.984 69.61-44.148 33.389-98.109 50.319-160.383 50.319m19.38-177.098c-.206.102-.414.202-.62.305.206-.103.414-.203.62-.305m-6.492 3.156l-.342.163.342-.163m-12.888 128.942c52.28 0 97.033-13.828 133.238-41.21 40.38-30.54 67.432-75.901 80.405-134.825 7.786-35.366 10.302-74.698 7.567-117.527a602.612 602.612 0 0049.464-70.965l1.175 5.4 19.192-4.17-5.87-27.008c.715-1.347 1.42-2.7 2.125-4.054l6.615 30.438 19.193-4.171-11.907-54.783a598.088 598.088 0 007.644-17.552l15.204 69.956 19.193-4.171-21.586-99.32c.62-1.783 1.237-3.567 1.841-5.356l22.614 104.052 19.194-4.171-23.508-108.161-16.763 3.644c.31-.943.62-1.886.924-2.831l15.294-3.324-.936-4.305-12.818 2.787c.587-1.875 1.16-3.754 1.73-5.637l9.996-2.172-2.806-12.915-3.023.658a579.886 579.886 0 001.665-6.185l.15-.033-.064-.291c12.882-48.97 19.753-100.375 19.753-153.388 0-91.006-20.222-177.29-56.413-254.605 7.79-25.417 11.81-52.46 11.38-80.472-2.195-142.628-118.494-256.736-260.636-256.736-1.357 0-2.73.01-4.093.03-35.604.549-69.425 8.218-100.143 21.614-60.113-20.167-124.46-31.101-191.365-31.101-84.76 0-165.422 17.548-238.559 49.194-.02.01-.043.019-.065.028.022-.01.043-.02.065-.028.067-.03.134-.06.201-.088.894-.387.85-1.673-.07-1.995-39.97-13.998-78.044-22.13-113.79-24.241a311.593 311.593 0 00-18.383-.552h-.01c-52.277 0-97.026 13.83-133.229 41.21-40.38 30.539-67.432 75.9-80.405 134.824-12.33 56.008-11.46 121.95 2.586 195.994a776.701 776.701 0 006.552 30.98c-17.004 55.652-26.163 114.728-26.163 175.944 0 20.689 1.046 41.133 3.085 61.283l-23.34 37.217 185.946 499.117 219.715-36.27c67.001 25.783 139.78 39.923 215.864 39.923 4.442 0 8.871-.058 13.29-.154a773.486 773.486 0 0026.814 14.07c67.423 33.676 130.637 52.468 187.886 55.852 6.228.368 12.356.552 18.385.552" fill="#e8e9e4"/><path d="M1581.1 1164.46c0-332.072-269.198-601.27-601.27-601.27s-601.27 269.198-601.27 601.27 269.198 601.27 601.27 601.27 601.27-269.198 601.27-601.27" fill="#0e2d6d"/><path d="M741.472 612.296a593.716 593.716 0 00-21.797 9.937 1.06 1.06 0 01-.775.055c-32.34-10.107-63.22-16.066-92.378-17.79-55.715-3.296-102.615 9.139-139.39 36.952-36.775 27.813-61.507 69.554-73.508 124.063-11.79 53.556-10.884 117.004 2.694 188.58.01.048.02.096.028.143 7.224 38.04 18.556 79.498 32.438 119.715 1.557 4.512-2.77 10.159-10.16 10.159-5.54 0-7.09-3.61-8.285-7.081-10.338-30.036-18.894-59.584-25.616-88.512a776.701 776.701 0 01-6.552-30.981c-14.047-74.044-14.916-139.987-2.585-195.994 12.972-58.924 40.024-104.285 80.404-134.824 36.207-27.384 80.955-41.212 133.24-41.21 6.024 0 12.16.184 18.382.552 35.746 2.112 73.82 10.243 113.79 24.242.92.322.964 1.607.07 1.994M1439.847 1660.015c-12.972 58.924-40.024 104.286-80.404 134.824-40.38 30.54-91.393 44.22-151.623 40.658-57.249-3.383-120.463-22.175-187.886-55.85a776.175 776.175 0 01-26.815-14.07 607.748 607.748 0 0036.251-1.87c64.73 32.181 125.13 50.136 179.54 53.352 5.843.345 11.587.518 17.234.518 48.206 0 89.238-12.573 122.157-37.47 36.775-27.813 61.506-69.553 73.507-124.063 6.225-28.274 8.908-59.307 8.058-92.837-.759-29.98-4.342-61.954-10.75-95.743a747.268 747.268 0 00-4.345-21.186l17.491-6.424a771.043 771.043 0 015.001 24.167c5.176 27.288 8.556 53.472 10.152 78.467 2.735 42.828.22 82.161-7.568 117.527" fill="#00ffce"/><path d="M1066.863 1675.807l119.047-189.81-44.183-118.596-119.047 189.811zM964.521 1288.778l119.047-189.811-39.422 6.508-119.048 189.81z" fill="#968f9e"/><path d="M1062.102 1550.705l119.047-189.811-97.58-261.926-119.047 189.81z" fill="#6e6975"/><path d="M880.916 1176.69l119.047-189.81-522.611 86.268-119.048 189.812z" fill="#968f9e"/><path d="M925.099 1295.286l119.047-189.811-44.183-118.595-119.047 189.81z" fill="#6e6975"/><path d="M1022.68 1557.212l39.422-6.508-97.58-261.927-39.424 6.508-44.182-118.595-522.612 86.27 185.947 499.116 522.612-86.269z" fill="#c6bece"/><path d="M945.808 1494.255c14.43 8.473 20.598 25.028 13.778 36.983l-35.855 63.06c-3.393 5.989-9.387 9.692-16.339 10.84-6.95 1.147-14.857-.262-22.07-4.498l-75.967-44.602c-14.396-8.453-20.564-25.01-13.778-36.984l35.855-63.061c3.41-5.977 9.414-9.676 16.364-10.823 6.952-1.147 14.85.256 22.047 4.483l75.965 44.602M848.047 1329.688c15.98-2.638 33.598 7.687 39.33 23.074 5.733 15.387-2.586 30.018-18.568 32.656l-81.526 13.458c-16.007 2.643-33.606-7.71-39.34-23.098-5.731-15.387 2.57-29.99 18.578-32.632l81.526-13.458M718.873 1493.002l51.085 137.123c4.78 12.83-2.135 25.034-15.462 27.233l-142.417 23.51c-13.327 2.199-28.006-6.438-32.786-19.27l-38.55-103.475c-5.47-14.682-15.516-28.246-28.771-38.824-14.284-11.392-25.101-26.018-30.996-41.843l-20.22-54.27c-5.468-14.682 2.462-28.628 17.735-31.15 15.248-2.516 32.049 7.348 37.519 22.029l24.354 65.373c3.565 9.568 14.49 15.983 24.429 14.342l121.302-20.024c13.327-2.2 27.998 6.415 32.778 19.246" fill="#5f6273"/><path d="M616.832 1653.005l120.189-20.997c7.334-1.19 11.761-8.774 9.19-15.745l-43.706-117.064a11.81 11.81 0 00-13.038-7.56l-121.106 20.355c-7.342 1.234-11.725 8.87-9.086 15.833l44.623 117.706a11.81 11.81 0 0012.934 7.472" fill="#dbdcdd"/><path d="M843.155 1554.732c12.77-2.108 19.394-13.797 14.813-26.093-4.58-12.295-18.643-20.57-31.412-18.462-12.796 2.113-19.419 13.802-14.838 26.097 4.58 12.295 18.642 20.57 31.437 18.458M883.187 1543.447c-12.77 2.108-19.428 13.777-14.848 26.072 4.58 12.296 18.668 20.567 31.438 18.459 12.77-2.11 19.394-13.798 14.813-26.094-4.581-12.295-18.632-20.545-31.403-18.437M869.88 1507.73c12.77-2.109 19.394-13.799 14.813-26.094-4.581-12.296-18.642-20.57-31.412-18.463-12.77 2.108-19.42 13.802-14.838 26.098 4.58 12.294 18.667 20.566 31.437 18.458M926.501 1540.974c12.771-2.108 19.418-13.801 14.838-26.097-4.58-12.295-18.667-20.566-31.437-18.458-12.77 2.108-19.419 13.802-14.838 26.097 4.581 12.295 18.667 20.566 31.437 18.458M786.932 1391.984c12.77-2.108 19.394-13.798 14.813-26.093-4.58-12.296-18.643-20.57-31.412-18.463-12.795 2.112-19.42 13.802-14.838 26.098 4.58 12.294 18.642 20.57 31.437 18.458M861.731 1381.168c12.771-2.107 19.419-13.802 14.838-26.097-4.58-12.295-18.667-20.566-31.437-18.458-12.771 2.107-19.419 13.801-14.838 26.097 4.58 12.294 18.667 20.566 31.437 18.458" fill="#adaeb1"/><path d="M615.202 1368.124c13.225-2.183 27.758 6.35 32.493 19.06 4.735 12.71-2.116 24.798-15.34 26.981-13.2 2.18-27.743-6.379-32.478-19.088-4.735-12.71 2.125-24.774 15.325-26.953" fill="#606060"/><path d="M617.272 1373.675c10.036-1.657 21.065 4.819 24.659 14.464 3.593 9.645-1.606 18.819-11.642 20.476-10.017 1.653-21.054-4.841-24.647-14.486s1.612-18.8 11.63-20.454" fill="#656769"/><path d="M888.453 1557.609c-4.647.767-7.07 5.014-5.403 9.488 1.667 4.475 6.793 7.485 11.441 6.718 4.647-.768 7.057-5.021 5.39-9.496-1.667-4.475-6.78-7.477-11.428-6.71" fill="#949698"/><path d="M883.452 1560.842l-23.3 39.185 15.994 9.566 23.346-39.032z" fill="#949698"/><path d="M881.495 1581.927c-10.757-6.434-24.694-2.93-31.128 7.828-6.435 10.757-2.93 24.694 7.827 31.128 10.758 6.434 24.694 2.93 31.13-7.828 6.433-10.757 2.928-24.693-7.829-31.128" fill="#dbdadb"/><path d="M830.768 1525.137c-4.647.767-7.07 5.014-5.403 9.488 1.667 4.475 6.793 7.485 11.441 6.718 4.647-.768 7.057-5.022 5.39-9.497-1.667-4.474-6.78-7.476-11.428-6.709" fill="#949698"/><path d="M825.767 1528.37l-23.3 39.186 15.994 9.566 23.346-39.032z" fill="#949698"/><path d="M823.81 1549.456c-10.758-6.434-24.694-2.93-31.128 7.828-6.435 10.757-2.93 24.693 7.827 31.128 10.758 6.434 24.694 2.93 31.13-7.828 6.433-10.757 2.928-24.693-7.829-31.128" fill="#dbdadb"/><path d="M914.49 1511.044c-4.648.768-7.07 5.014-5.404 9.488 1.667 4.475 6.793 7.485 11.441 6.718 4.647-.768 7.057-5.021 5.39-9.496-1.667-4.475-6.78-7.477-11.428-6.71" fill="#949698"/><path d="M909.488 1514.278l-23.3 39.185 15.994 9.565 23.346-39.031z" fill="#949698"/><path d="M907.531 1535.363c-10.758-6.435-24.694-2.93-31.128 7.828-6.435 10.757-2.93 24.693 7.827 31.128 10.758 6.434 24.694 2.93 31.13-7.828 6.433-10.757 2.928-24.694-7.829-31.128" fill="#dbdadb"/><path d="M858.12 1477.81c-4.646.767-7.07 5.014-5.402 9.488 1.667 4.475 6.794 7.485 11.44 6.718 4.648-.768 7.058-5.02 5.39-9.496-1.666-4.475-6.78-7.477-11.427-6.71" fill="#949698"/><path d="M853.12 1481.043l-23.3 39.186 15.993 9.565 23.346-39.03z" fill="#949698"/><path d="M851.163 1502.128c-10.757-6.434-24.694-2.93-31.128 7.828-6.435 10.757-2.93 24.694 7.827 31.128 10.758 6.435 24.694 2.93 31.129-7.828 6.434-10.757 2.929-24.693-7.828-31.128" fill="#dbdadb"/><path d="M849.92 1350.864c-4.648.767-7.07 5.014-5.404 9.488 1.667 4.475 6.793 7.485 11.44 6.718 4.648-.768 7.058-5.021 5.391-9.496-1.667-4.475-6.78-7.477-11.428-6.71" fill="#949698"/><path d="M844.918 1354.098l-23.3 39.185 15.994 9.565 23.346-39.031z" fill="#949698"/><path d="M842.96 1375.183c-10.756-6.435-24.693-2.93-31.127 7.828-6.435 10.757-2.93 24.693 7.827 31.128 10.758 6.434 24.695 2.93 31.129-7.828 6.434-10.757 2.929-24.694-7.828-31.128" fill="#dbdadb"/><path d="M774.582 1362.804c-4.647.767-7.07 5.014-5.403 9.488 1.667 4.475 6.794 7.485 11.44 6.718 4.647-.768 7.057-5.022 5.39-9.497-1.667-4.474-6.78-7.476-11.428-6.709" fill="#949698"/><path d="M769.58 1366.038l-23.3 39.185 15.994 9.566 23.347-39.032z" fill="#949698"/><path d="M767.624 1387.123c-10.757-6.434-24.694-2.93-31.128 7.828-6.435 10.757-2.93 24.693 7.827 31.128 10.758 6.434 24.695 2.93 31.129-7.828 6.434-10.757 2.929-24.693-7.828-31.128" fill="#dbdadb"/><path d="M497.024 1442.272c12.77-2.108 19.394-13.798 14.813-26.093-4.58-12.297-18.643-20.572-31.412-18.464-12.795 2.113-19.42 13.803-14.838 26.099 4.58 12.293 18.642 20.57 31.437 18.457" fill="#adaeb1"/><path d="M484.674 1413.091c-4.647.767-7.07 5.014-5.403 9.488 1.667 4.475 6.794 7.485 11.44 6.718 4.648-.768 7.058-5.022 5.39-9.497-1.666-4.474-6.78-7.476-11.427-6.709" fill="#831623"/><path d="M479.672 1416.325l-23.299 39.185 15.993 9.566 23.346-39.032z" fill="#831623"/><path d="M477.716 1437.41c-10.757-6.434-24.694-2.93-31.128 7.828-6.435 10.757-2.93 24.693 7.827 31.128 10.758 6.434 24.694 2.93 31.129-7.828 6.434-10.757 2.929-24.693-7.828-31.128" fill="#d32027"/><path d="M438.162 1197.835l77.813-12.231-35.987-102.067-75.615 12z" fill="#c6bece"/><path d="M515.976 1185.604l13.334-26.8-34.766-92.524-14.555 17.257z" fill="#6e6975"/><path d="M549.528 1181.892l72.398-11.605a5.782 5.782 0 004.089-2.812l10.02-17.3c1.24-2.14-.542-4.763-2.987-4.401l-70.12 10.415a6.308 6.308 0 00-4.485 3l-11.393 19.045c-1.063 1.776.434 3.986 2.478 3.658" fill="#5f6273"/><path d="M479.988 1083.538l-75.615 12 10.993-17.964 13.962-1.968 6.465 3.695c3.694 1.847 6.641.672 9.236-1.847 1.683-1.635 3.5-4.23 3.411-4.598l46.103-6.575z" fill="#968f9e"/><path d="M438.625 1084.11c-5.542 0-7.091-3.61-8.285-7.08-10.34-30.038-18.894-59.585-25.616-88.513a775.336 775.336 0 01-6.553-30.98c-14.046-74.046-14.915-139.988-2.585-195.995 12.973-58.924 40.025-104.286 80.404-134.825 36.203-27.38 80.952-41.21 133.229-41.21h.01c6.026 0 12.16.184 18.384.552 35.746 2.113 73.82 10.243 113.789 24.242.919.322.965 1.608.07 1.995a594.656 594.656 0 00-21.797 9.936 1.057 1.057 0 01-.774.056c-32.341-10.108-63.221-16.067-92.378-17.79a291.771 291.771 0 00-17.242-.518c-48.205 0-89.23 12.573-122.148 37.47-36.776 27.812-61.507 69.553-73.508 124.063-11.791 53.555-10.884 117.003 2.694 188.58l.027.143c7.224 38.041 18.557 79.498 32.438 119.715 1.558 4.512-2.77 10.16-10.16 10.16m0-7c2.02 0 3.088-.813 3.406-1.27-14.156-41.075-25.414-82.663-32.561-120.299l-.01-.048v-.003l-.018-.093c-13.755-72.51-14.648-136.904-2.652-191.39 12.369-56.183 37.98-99.295 76.12-128.142 34.119-25.803 76.636-38.886 126.372-38.886 5.763 0 11.703.178 17.655.53 28.912 1.71 59.793 7.564 91.817 17.404 1.977-.94 3.97-1.875 5.979-2.803-34.128-10.847-66.874-17.252-97.533-19.064-6.054-.358-12.1-.54-17.98-.54-50.69 0-94.094 13.39-129.006 39.793-39.014 29.506-65.186 73.496-77.791 130.747-12.126 55.08-11.242 120.075 2.627 193.184a772.435 772.435 0 006.493 30.701c6.632 28.542 15.184 58.088 25.417 87.82.417 1.213.746 1.986.979 2.301.11.024.327.057.687.057M1226.204 1836.05c-6.028 0-12.156-.184-18.384-.552-57.249-3.384-120.463-22.176-187.886-55.851a773.486 773.486 0 01-26.814-14.071 607.836 607.836 0 0036.251-1.87c64.728 32.182 125.13 50.137 179.54 53.353 5.842.345 11.586.518 17.233.518 48.206 0 89.238-12.573 122.157-37.47 36.775-27.812 61.507-69.553 73.507-124.063 6.225-28.274 8.908-59.307 8.058-92.836-.759-29.98-4.342-61.955-10.75-95.744a747.205 747.205 0 00-4.345-21.185l17.491-6.425a767.624 767.624 0 015 24.168c5.177 27.287 8.557 53.47 10.153 78.466 2.735 42.829.22 82.16-7.568 117.527-12.972 58.924-40.024 104.286-80.404 134.825-36.205 27.38-80.959 41.21-133.239 41.21m0-7c50.696 0 94.104-13.39 129.017-39.793 39.013-29.506 65.186-73.496 77.79-130.747 7.612-34.573 10.108-73.46 7.42-115.576-1.576-24.662-4.956-50.774-10.046-77.608a735.122 735.122 0 00-3.25-16.131l-4.238 1.556a742.656 742.656 0 013.095 15.408c6.447 33.984 10.105 66.577 10.872 96.87.862 34.03-1.903 65.832-8.22 94.52-12.368 56.182-37.979 99.295-76.12 128.142-34.118 25.803-76.638 38.886-126.38 38.886-5.76 0-11.698-.178-17.647-.53-54.85-3.243-115.568-21.142-180.499-53.208-2.91.228-5.83.435-8.757.623 1.278.648 2.552 1.289 3.821 1.922 66.572 33.25 128.873 51.798 185.171 55.126 6.06.358 12.105.54 17.971.54" fill="#00c6a0"/><path d="M1252.205 1417.461l19.193-4.17 23.507 108.16-19.193 4.171zM1274.267 1412.667l19.193-4.171 23.507 108.16-19.193 4.172zM1304.401 1406.117l19.193-4.17 23.507 108.16-19.193 4.171zM1326.464 1401.322l19.192-4.17 23.508 108.16-19.193 4.171zM1474.546 1368.763l19.192-4.17 23.508 108.16-19.193 4.17zM1496.609 1363.968l19.192-4.17 23.508 108.16-19.193 4.17zM1526.743 1357.419l19.192-4.171 23.508 108.16-19.193 4.17zM1548.806 1352.624l19.193-4.171 23.507 108.16-19.193 4.171zM1559.929 1311.323l-19.193 4.17-23.507-108.16 19.193-4.17zM1537.866 1316.118l-19.193 4.17-23.507-108.16 19.193-4.17zM1507.732 1322.667l-19.193 4.171-23.507-108.16 19.193-4.171zM1485.67 1327.462l-19.194 4.17-23.507-108.16 19.193-4.17zM1337.587 1360.022l-19.192 4.17-23.508-108.16 19.193-4.171zM1315.524 1364.816l-19.192 4.171-23.508-108.16 19.193-4.172zM1285.39 1371.366l-19.192 4.17-23.508-108.16 19.193-4.171zM1263.328 1376.16l-19.192 4.172-23.508-108.16 19.193-4.172z" fill="#ffcd34"/><path d="M1393.01 1349.854l19.192-4.17 13.84 63.675-19.193 4.172z" fill="#949698"/><path d="M1354.26 1385.89l-4.17-19.194 108.16-23.507 4.17 19.193z" fill="#949698"/><path d="M1373.688 1245.83l12.915-2.806 45.104 207.532-12.915 2.807z" fill="#949698"/><path d="M1394.66 1451.495l-2.806-12.915 47.354-10.292 2.807 12.915zM1380.926 1294.69l19.372-4.21 10.82 49.778-19.373 4.21zM1375.567 1270.03l19.372-4.21 4.17 19.192-19.371 4.21zM1338.15 1272.456l-2.373-10.919 91.837-19.96 2.374 10.92zM1249.554 1405.264l-2.807-12.915 315.872-68.65 2.807 12.915zM1251.659 1414.95l-.936-4.305 41.256-8.966.935 4.305zM1303.856 1403.606l-.936-4.305 41.255-8.966.936 4.305zM1474 1366.252l-.935-4.305 41.256-8.966.935 4.305zM1526.197 1354.908l-.936-4.305 41.256-8.966.935 4.305zM1560.475 1313.834l.936 4.305-41.256 8.966-.935-4.305zM1508.278 1325.178l.936 4.305-41.256 8.966-.935-4.305zM1338.133 1362.533l.936 4.305-41.255 8.966-.936-4.305zM1285.936 1373.877l.936 4.305-41.256 8.966-.935-4.305z" fill="#949698"/><path d="M1387.569 1354.043l-19.193 4.17-12.636-58.14 19.193-4.172zM1437.434 1343.205l-19.193 4.171-12.636-58.14 19.193-4.172z" fill="#ffcd34"/><path d="M755.485 889.293c3.852-45.742-30.106-85.945-75.847-89.798-45.742-3.852-85.945 30.106-89.798 75.847-3.853 45.742 30.105 85.946 75.847 89.798 45.742 3.852 85.945-30.105 89.798-75.847" fill="#d32027"/><path d="M886.01 858.155a8.783 8.783 0 00-11.388-4.961 8.783 8.783 0 00-4.96 11.387 8.782 8.782 0 0011.386 4.96 8.782 8.782 0 004.961-11.386M924.815 720.144a4.83 4.83 0 10-8.992 3.534 4.83 4.83 0 008.992-3.534M749.962 728.7a3.043 3.043 0 10-5.664 2.229 3.043 3.043 0 005.664-2.229M1263.326 1597.107a8.783 8.783 0 10-16.35 6.428 8.783 8.783 0 0016.35-6.428M1227.087 1161.689a4.83 4.83 0 10-8.992 3.534 4.83 4.83 0 008.992-3.534M1169.758 1674.584a3.042 3.042 0 10-5.663 2.228 3.042 3.042 0 005.663-2.227M1487.28 1091.165a4.83 4.83 0 10-8.993 3.534 4.83 4.83 0 008.992-3.534M1365.552 1174.939a3.042 3.042 0 10-5.662 2.227 3.042 3.042 0 005.662-2.227M525.328 954.731a4.83 4.83 0 10-8.992 3.534 4.83 4.83 0 008.992-3.534" fill="#ffcd34"/><path d="M746.283 888.519c3.424-40.66-26.761-76.396-67.42-79.82-40.66-3.425-76.395 26.76-79.82 67.42-3.424 40.658 26.76 76.395 67.42 79.819 40.659 3.425 76.396-26.76 79.82-67.42" fill="#ed8a22"/><path d="M737.08 887.743c2.997-35.577-23.416-66.846-58.992-69.842-35.577-2.997-66.846 23.415-69.843 58.992-2.996 35.577 23.416 66.846 58.992 69.842 35.577 2.997 66.847-23.415 69.843-58.992" fill="#f3cb17"/><path d="M755.335 881.303c-.706-45.9-38.49-82.538-84.39-81.83-45.9.705-82.538 38.487-81.83 84.388.706 45.9 38.488 82.538 84.389 81.831 45.9-.706 82.538-38.489 81.83-84.389" fill="#1fc3f3"/></g><g clip-path="url(#b)" transform="matrix(1.33333 0 0 -1.33333 -417.74 2508.066)"><path d="M597.291 830.877c3.846 1.583 4.013 2.071 5.487 4.283 1.474 2.212 4.642 3.283 6.294 5.018 1.651 1.735 2.148 2.847 2.502 5.082.355 2.235.205 2.884 2.174 6.051 1.968 3.166 1.651 3.353 4.082 5.304 2.43 1.952-.43 3.281 3.562 2.737 3.992-.543 7.329-2.035 12.465-.994 5.137 1.041 5.484 2.796 9.81 3.21 4.327.413 5.77.551 9.289.496 3.52-.054 6.428 1.822 8.811.665 2.382-1.157 3.763-2.984 3.426-6.122-.337-3.137-3.493-4.544-1.328-6.285 2.164-1.739 1.473-1.889 3.8-3.045s6.236-2.656 8.74-3.335c2.504-.678 1.969-.35 5.564-2.646 3.594-2.295 4.155-3.5 6.149-2.654 1.995.846 3.127-.505 5.028 1.374 1.903 1.88.135 2.041 1.692 4.11 1.557 2.07 3.034 4.446 5.254 3.132 2.22-1.314.265-.964 3.46-2.613s-2.292-1.71 4.367-1.98 5.253-.468 9.558-.264c4.305.203 4.145.205 5.752.661 1.607.455.657 3.065 3.451 1.644 2.793-1.42 5.191-1.566 7.142.46 1.951 2.023 1.98 3.902 3.925 5.493 1.944 1.59 2.612 3.5 3.21 5.891.598 2.391.791 4.628.101 6.56-.69 1.93.696 5.092-2.756 2.82-3.453-2.274-4.866-3.233-7.419-3.249-2.552-.016-4.813 3.35-7.46.685-2.647-2.664-3.431-.329-6.581 1.385-3.15 1.714-.137 5.933-3.486 8.705-3.348 2.772-4.793 4.394-6.235 4.256-1.442-.138-2.912-.275-3.825-.688-.913-.412-3.15-.228-3.394-2.219-.244-1.99-.222-2.312.347-3.44.57-1.13 3.277-1.97 3.581-3.016.304-1.045.002-1.618-.269-1.885-.271-.267-.71-1.06-2.207-1.33-1.498-.27-1.375-1.018-1.945-1.597-.571-.58-1.642-.989-1.912.562-.269 1.551-1.368 1.195-1.237 2.766.131 1.572-1.593 3.038-2.621 5.134-1.028 2.096-1.777 1.948-1.743 4.214.036 2.267-.577 4.036-2.157 5.393-1.579 1.358-3.229 1.597-4.437 2.79-1.208 1.191-2.852 1.856-3.379 2.238-.528.382-2.327 3.243-3.657 3.838-1.33.595-2.015 1.956-2.64 2.926-.625.97-.502-.078-1.716.01-1.216.09-2.304-.537-2.501-.917-.198-.38-.228-1.613-.035-2.295.192-.682 1.705-2.946 3.06-4.994 1.355-2.047 3.376-5.866 5.287-6.48 1.911-.617 4.093-.865 5.413-1.79 1.319-.929 2.91-1.487 3.268-2.505.358-1.019.241-1.71-.345-1.649-.586.063-1.739 2.18-2.467 2.247-.728.068-1.185-.403-1.567-.93-.381-.529-.794-1.322-.373-1.755.42-.434 1.164-.552 1.202-1.592.037-1.04-.572-2.525-.846-2.948-.273-.422-1.275-1.275-1.542-1.469-.268-.195-1.611-1.33-1.587-.183.024 1.146.475 2.248.932 2.646.456.4.215 1.891-.25 2.831-.466.94-.905 1.907-1.325 2.314-.421.406-5.067 3.495-5.54 3.9-.474.406-5.158 2.798-6.878 5.385-1.72 2.587-4.423 6.27-6.025 5.794-1.601-.476-3.498-2.447-5.963-3.263-2.467-.815-6.69.976-8.092.508-1.402-.468-2.648-1.729-2.834-3.38-.185-1.65-1.437-3.284-2.462-4.015-1.024-.73-3.157-.699-5.171-3.334-2.014-2.636-1.429-2.752-2.37-4.924-.94-2.172-1.447-3.978-3.331-5.069-1.884-1.092-4.936-1.845-7.389-1.86-2.454-.016-3.111-1.126-5.015-.083-1.904 1.043-2.822 1.438-4.979 2.8-2.158 1.363-2.699 2.702-2.943 4.947-.245 2.246 2.052 4.454 1.453 8.62-.599 4.166-.722 5.08.308 6.183 1.031 1.104 6.424 1.501 10.949.898 4.524-.603 8.115-2.952 9.454.868 1.339 3.82 2.179 6.474.922 7.933-1.258 1.46-2.973 4.366-5.208 4.72-2.235.355-4.518.977-3.327 2.185 1.192 1.208 4.39 1 6.205 1.131 1.815.133 1.385-.128 3.058 1.127 1.672 1.254 3.383 1.494 4.57 2.383 1.187.888 2.375 1.83 3.723 2.77 1.348.94 6.774 3.47 8.688 6.533 1.914 3.064 6.396 3.946 8.055 3.556 1.659-.389 2.67.178 2.913 2.12.243 1.94-1.604 3.247-1.371 4.524.233 1.276-.22 2.99.75 3.67.97.677 3.725 2.928 4.251 2.44.526-.488 1.256-1.566.385-2.726s-2.344-1.989-1.849-3.358c.496-1.368-.373-3.467.627-3.813 1-.346 1.448-.524 2.48-1.222 1.031-.698 2.187.465 4.058.34 1.872-.125 2.323-1.612 9.382-.387 7.059 1.225 7.528.476 9.79 1.905 2.262 1.43 1.092 5.128 2.233 6.497 1.142 1.37 2.488 2.255 3.542 1.385 1.053-.869 2.841-1.935 3.877-.738 1.037 1.196-.996 4.268 1.157 5.515 2.153 1.247 2.132-.086 5.93.602 3.797.688 7.546 1.697 4.682 2.702-2.865 1.003-4.774 1.727-7.389 1.607-2.616-.12-9.045-1.995-11.172 1.932-2.126 3.926-2.538 4.892-1.125 6.577 1.412 1.685 3.699 3.97 6.354 5.277 2.654 1.305 35.768.742 52.63-5.758 16.86-6.499 22.298-27.474 25.601-31.24 3.302-3.767 5.372-20.04 1.498-22.22-3.874-2.18-5.436-2.764-7.48-4.109-2.045-1.345-6.832.244-4.839-3.185 1.993-3.428 3.326-5.209 4.986-6.515 1.66-1.305 5.832-2.215 4.651-5.532-1.182-3.317-3.214-4.654.48-6.549 3.694-1.895 4.468-3.588 4.468-3.588s-1.657-14.133-4.869-15.316c-3.212-1.184-3.183-1.57-4.995-2.556-1.811-.986-1.812-2.043-.937-3.003.873-.96 2.518-2.679 2.508-3.319-.009-.64-18.431-33.159-23.517-36.12-5.086-2.963-6.616-3.598-6.429-1.83.188 1.765.477 4.961-.361 7.695-.838 2.733-1.391 8.421-2.922 12.925-1.53 4.504-7.853-.839-6.571-5.899 1.282-5.06-.949-2.559.365-9.093 1.315-6.534.934-6.84 1.128-8.29.193-1.453 1.051-9.298 1.051-9.298s-108.752-38.33-117.829-25.069c-9.076 13.261-13.052 41.391-15.897 47.24-2.844 5.848-5.026 16.405-5.026 16.405" fill="#00934a"/><path d="M662.64 877.818c.426-.037.88-.02 1.153-1.252.275-1.23.138-3.176-.116-4.079-.254-.903.214-1.657-.294-1.755-.508-.1-1.33.123-1.575-.125-.244-.247-1.75-.687-1.425.971.326 1.658.102 1.465.2 2.53.095 1.065-.673 1.451-.584 1.982.088.533 1.694 1.811 2.64 1.728M671.866 865.668s.841-.813 1.131-1.031c.29-.218 1.06-.47 1.88-.935.82-.466 1.694-.8 2.196-1.074.502-.274.635-.303 1.222-.313.587-.008.992.385 1.001.918.008.534-.149 2.456.177 2.852.326.395.548.924.414.873-.135-.051-2.279-.765-2.706-.758-.426.006-1.492.05-1.944.19-.45.14-1.217.614-1.592.535-.374-.078-.156-.101-.682-.283-.525-.182-1.619-.272-1.097-.974M631.455 936.161c-.094-.878-.041-2.018.664-3.339.704-1.322.715-.602 1.088-2.368.373-1.766 1.152-3.158 1.704-3.676.552-.519.949-.703 2.2-2.513 1.254-1.81 1.15-2.212 2.42-4.034 1.269-1.822 3.166-2.164 3.144-3.604-.022-1.44.97-4.495-1.923-5.41-2.895-.916-3.482-1.014-4.955-1.418-1.474-.404-6.083-.902-6.91-1.405-.828-.503-3.834-.619-3.834-.619s-.223.257.837 1.773c1.059 1.516.405 2.094 2.154 1.966 1.749-.129 2.778.957 2.793.963.016.006-.39.136-1.692.458-1.303.323-2.52.674-1.35 1.863 1.17 1.188.338 2.407 1.377 2.997 1.039.59 2.785.122 2.879 1.592.093 1.47 1.762-.323.467 1.8-1.294 2.121-1.363 1.807-2.37 2.833-1.007 1.027-1.71 1.334-1.987 2.405-.28 1.07.373 1.861.148 2.904-.223 1.043.11 1.357-.63 2.97-.74 1.612-.4 2.886-.076 3.121.324.236 3.852.741 3.852.741" fill="#00934a"/><path d="M613.793 912.37c1.258-.752 2.493-.137 3.382.49.89.626 1.069 1.85 2.99 1.887 1.92.037 1.729-1.819 2.88.132 1.151 1.952.817 5.387.817 5.387s.136 1.697 1.453 1.73c1.318.031 1.1 1.878.208 2.114-.89.235-2.212.56-2.935.34-.72-.222-1.172-.227-2.857-1.413-1.685-1.187-1.439-2.266-2.198-2.468-.759-.2-1.564-1.245-2.192-2.084-.629-.839-1.425-2.465-1.692-3.345-.266-.88-1.537-1.765.143-2.77M658.557 950.465c-.152-1.448-.672-2.32-.964-2.99-.292-.67-1.673.094-1.931-2.154-.26-2.248-1.43-2.309-.267-3.968 1.163-1.659-.486-2.588.309-3.763.797-1.174 1.824-3.354 2.21-2.965.389.387 1.698 1.183 3.377 1.157 1.68-.026 2.45 1.994 4.282 2.198 1.832.204 1.796 1.578 2.726.894.93-.683 1.456-4.182 2.242-5.075.787-.892 1.362-2.426 2.03-3.23.67-.806-.393-3.666 1.79-3.309 2.183.357 2.01.921 3.495 1.102 1.485.182 2.479-.554 3.252 1.754.773 2.31 1.06 5.038 1.245 5.607.184.57 1.189 2.182 2.42 2.658 1.23.475 1.532.923.92 2.626-.611 1.702-2.757.472-2.676 2.841.08 2.37.257 4.847.257 4.847s.69 1.14 2.077 2.078c1.387.94 4.029 1.058 5.164 2.001 1.134.942 1.047 5.664 1.135 6.143.087.478-15.775-.878-15.775-.878z" fill="#00934a"/></g><path d="M589.262 1322.538c-4.264-50.622-41.922-90.417-89.475-99.546 30.777 14.498 53.21 44.538 56.27 80.878 4.566 54.212-35.68 101.86-89.893 106.427-40.06 3.373-76.514-17.737-94.67-50.857 13.17 51.476 61.93 87.436 116.637 82.829 60.99-5.136 106.267-58.741 101.13-119.73" fill="#c9bc9b"/><path d="M556.058 1303.87c-3.06-36.34-25.493-66.379-56.272-80.878a111.585 111.585 0 00-30.255-1.584c-60.988 5.138-106.265 58.742-101.13 119.731.074.872.16 1.74.254 2.607a111.028 111.028 0 002.839 15.694c18.156 33.119 54.61 54.231 94.67 50.856 54.213-4.565 94.46-52.214 89.894-106.426" fill="#e2d3aa"/><g opacity=".3" clip-path="url(#c)" transform="matrix(1.33333 0 0 -1.33333 -417.74 2508.066)"><path d="M778.59 1408.731c-.867 10.287-8.519 18.373-18.182 20.228 6.254-2.946 10.812-9.05 11.434-16.435.928-11.015-7.25-20.697-18.266-21.625-8.14-.686-15.548 3.604-19.237 10.334 2.676-10.46 12.584-17.767 23.701-16.83 12.393 1.043 21.593 11.935 20.55 24.328" fill="#adaeb1"/></g><g opacity=".3" clip-path="url(#d)" transform="matrix(1.33333 0 0 -1.33333 -417.74 2508.066)"><path d="M854.55 1396.394c-.865 10.287-8.517 18.373-18.18 20.228 6.254-2.946 10.812-9.05 11.434-16.435.928-11.015-7.25-20.697-18.266-21.626-8.14-.685-15.548 3.605-19.237 10.334 2.676-10.459 12.584-17.766 23.7-16.83 12.394 1.044 21.594 11.936 20.55 24.329" fill="#adaeb1"/></g><g opacity=".3" clip-path="url(#e)" transform="matrix(1.33333 0 0 -1.33333 -417.74 2508.066)"><path d="M835.042 1570.668c-.867 10.288-8.52 18.374-18.182 20.229 6.255-2.946 10.813-9.05 11.435-16.435.928-11.016-7.251-20.698-18.266-21.626-8.14-.685-15.548 3.605-19.237 10.334 2.676-10.46 12.584-17.767 23.7-16.83 12.393 1.043 21.593 11.936 20.55 24.329" fill="#adaeb1"/></g><g opacity=".3" clip-path="url(#f)" transform="matrix(1.33333 0 0 -1.33333 -417.74 2508.066)"><path d="M918.391 1556.484c-.866 10.287-8.518 18.373-18.18 20.228 6.253-2.946 10.811-9.05 11.433-16.435.928-11.016-7.25-20.698-18.266-21.626-8.14-.685-15.548 3.605-19.237 10.334 2.676-10.46 12.584-17.767 23.701-16.83 12.393 1.043 21.593 11.936 20.55 24.329" fill="#adaeb1"/></g><g opacity=".3" clip-path="url(#g)" transform="matrix(1.33333 0 0 -1.33333 -417.74 2508.066)"><path d="M861.94 1523.863c-.867 10.287-8.52 18.373-18.182 20.228 6.254-2.946 10.812-9.05 11.434-16.434.928-11.016-7.25-20.698-18.266-21.626-8.14-.686-15.548 3.604-19.237 10.334 2.676-10.46 12.584-17.767 23.701-16.831 12.392 1.044 21.592 11.936 20.55 24.329" fill="#adaeb1"/></g><g opacity=".3" clip-path="url(#h)" transform="matrix(1.33333 0 0 -1.33333 -417.74 2508.066)"><path d="M892.417 1603.29c-.867 10.286-8.519 18.372-18.182 20.227 6.255-2.946 10.813-9.05 11.435-16.435.928-11.015-7.251-20.697-18.266-21.626-8.14-.685-15.548 3.605-19.237 10.334 2.676-10.459 12.584-17.766 23.7-16.83 12.393 1.044 21.593 11.936 20.55 24.33" fill="#adaeb1"/></g><g opacity=".3" clip-path="url(#i)" transform="matrix(1.33333 0 0 -1.33333 -417.74 2508.066)"><path d="M488.99 1458.511c-.865 10.287-8.517 18.373-18.18 20.228 6.254-2.947 10.812-9.05 11.434-16.435.928-11.016-7.25-20.698-18.266-21.626-8.14-.685-15.548 3.605-19.237 10.334 2.676-10.459 12.584-17.767 23.7-16.83 12.394 1.043 21.594 11.936 20.55 24.33" fill="#831623"/></g><path d="M1701.393 579.145l-2.899 13.337.114.003z" fill="#8ee1ef"/><path d="M1532.155 691.557l-59.317-12.892 10.812-49.745-4.187-.91 6.03-27.742 15.712 3.415 3.741-17.22-15.71-3.415 1.969-9.055-17.22-3.742-1.968 9.056-30.208-6.567-3.743 17.22 30.208 6.565-6.03 27.743-4.185-.91-10.812 49.746-59.306-12.89-.935 4.305-138.673-30.138-3.743 17.219 138.673 30.139-.884 4.066 59.307 12.89-2.079 9.565 4.186.91-1.567 7.207-4.305-.936-14.426 66.372 4.306.936-1.584 7.29-4.306-.935-5.56 25.59 4.304.935-1.58 7.264-52.614-11.434-3.166 14.56 52.616 11.434-2.065 9.506 17.22 3.742 2.065-9.505 52.615 11.435 3.165-14.56-52.616-11.435 1.58-7.264 4.304.936 5.562-25.59-4.306-.937 1.586-7.29 4.304.936 14.425-66.371-4.304-.936 1.567-7.207 4.185.908 2.077-9.566 59.32 12.893.883-4.067 138.275 30.054 3.741-17.22-138.275-30.052z" fill="#949698"/><path d="M1306.146 633.421l-55.006-11.955-1.247 5.74 55.007 11.955zM1375.742 648.547l-55.007-11.955-1.246 5.739 55.005 11.956zM1602.602 698.352l-55.007-11.954-1.248 5.738 55.007 11.956zM1617.19 701.523l-1.247 5.74 55.008 11.954 1.246-5.74zM1607.886 744.333l55.007 11.954 1.248-5.74-55.007-11.954zM1538.29 729.207l55.008 11.955 1.246-5.74-55.005-11.955zM1367.685 685.616l-55.006-11.954-1.248 5.738 55.006 11.956zM1241.835 664.275l55.007 11.955 1.248-5.739-55.007-11.956z" fill="#949698"/><path d="M1251.777 618.399l25.595 5.537 31.21-144.241-25.594-5.539zM1281.2 624.765l25.596 5.539 31.209-144.243-25.595-5.539zM1321.386 633.46l25.596 5.538 31.21-144.241-25.595-5.539zM1350.81 639.827l25.594 5.538 31.211-144.242-25.595-5.539zM1548.292 683.058l25.595 5.539 31.21-144.243-25.594-5.539zM1577.715 689.424l25.594 5.54 31.211-144.244-25.595-5.538zM1617.902 698.12l25.596 5.538 31.209-144.242-25.595-5.539zM1647.324 704.486l25.596 5.539 31.21-144.243-25.595-5.538zM1662.206 759.541l-25.595-5.539-31.21 144.243 25.594 5.539zM1632.783 753.174l-25.596-5.538-31.21 144.242 25.595 5.54zM1592.596 744.48L1567 738.94l-31.21 144.243 25.594 5.539zM1563.173 738.113l-25.595-5.54-31.21 144.244 25.594 5.538zM1365.69 694.881l-25.594-5.538-31.21 144.242 25.594 5.54zM1336.268 688.515l-25.595-5.539-31.21 144.243 25.594 5.539zM1296.081 679.82l-25.596-5.54-31.21 144.244 25.595 5.538zM1266.659 673.453l-25.596-5.539-31.21 144.243 25.595 5.539zM1432.34 702.792l-25.596-5.538-16.776 77.536 25.595 5.538zM1498.84 717.18l-25.596-5.538-16.776 77.538 25.595 5.537z" fill="#eda70c"/><path d="M1254.666 605.165l25.595 5.538 25.959-120.181-25.596-5.539zM1284.089 611.531l25.596 5.539 25.957-120.182-25.596-5.538zM1324.276 620.226l25.596 5.54 25.957-120.182-25.596-5.539zM1353.699 626.593l25.595 5.539 25.957-120.182-25.595-5.538zM1551.181 669.824l25.595 5.539 25.959-120.181-25.596-5.54zM1580.604 676.19l25.595 5.54 25.958-120.182-25.596-5.539zM1620.79 684.886l25.597 5.539 25.957-120.182-25.596-5.538zM1650.213 691.252l25.596 5.54 25.958-120.182-25.596-5.539zM1659.842 770.368l-25.596-5.538-25.958 120.181 25.596 5.539zM1630.42 764.002l-25.597-5.539-25.957 120.182 25.596 5.538zM1590.232 755.307l-25.595-5.54-25.957 120.182 25.594 5.539zM1560.809 748.94l-25.595-5.539-25.957 120.182 25.595 5.538zM1363.327 705.709l-25.595-5.539-25.959 120.182 25.596 5.538zM1333.904 699.342l-25.596-5.537-25.957 120.18 25.596 5.539zM1293.717 690.647l-25.596-5.539-25.957 120.182 25.596 5.538zM1264.294 684.28l-25.595-5.537-25.957 120.18 25.595 5.539zM1429.976 713.62l-25.596-5.539-11.522 53.475 25.594 5.538zM1496.476 728.008l-25.596-5.537-11.522 53.475 25.594 5.537z" fill="#f7b719"/><path d="M1257.293 593.134l25.595 5.539 20.704-96.12-25.595-5.539zM1286.716 599.5l25.595 5.54 20.704-96.12-25.595-5.54zM1326.903 608.196l25.594 5.539 20.706-96.12-25.596-5.54zM1356.325 614.562l25.596 5.54 20.704-96.12-25.596-5.54zM1553.808 657.794l25.596 5.538 20.704-96.12-25.596-5.538zM1583.23 664.16l25.596 5.539 20.704-96.12-25.595-5.539zM1623.418 672.855l25.594 5.54 20.704-96.12-25.594-5.54zM1652.84 679.222l25.595 5.537 20.705-96.118-25.596-5.54zM1657.215 782.399l-25.595-5.539-20.704 96.12 25.595 5.539zM1627.792 776.032l-25.595-5.537-20.705 96.12 25.596 5.537zM1587.605 767.337l-25.596-5.539-20.704 96.12 25.596 5.54zM1558.183 760.97l-25.596-5.537-20.704 96.12 25.596 5.538zM1360.7 717.74l-25.595-5.54-20.704 96.12 25.595 5.54zM1331.277 711.373l-25.595-5.537-20.704 96.12 25.595 5.537zM1291.09 702.678l-25.594-5.539-20.706 96.12 25.596 5.539zM1261.668 696.311l-25.595-5.537-20.705 96.12 25.596 5.537zM1427.35 725.65l-25.595-5.538-6.27 29.413 25.594 5.539zM1493.85 740.039l-25.595-5.537-6.27 29.412 25.594 5.538z" fill="#fcc324"/><path d="M1259.92 581.103l25.596 5.54 15.45-72.06-25.596-5.538zM1289.342 587.47l25.596 5.537 15.45-72.057-25.595-5.539zM1329.53 596.165l25.594 5.539 15.451-72.059-25.595-5.538zM1358.952 602.532l25.595 5.537 15.45-72.057-25.594-5.539zM1556.435 645.763l25.594 5.539 15.451-72.059-25.595-5.539zM1585.857 652.13l25.595 5.537 15.452-72.057-25.596-5.54zM1626.044 660.825l25.596 5.538 15.45-72.058-25.595-5.539zM1655.467 667.191l25.596 5.538 15.45-72.058-25.596-5.538zM1654.588 794.43l-25.596-5.539-15.45 72.059 25.596 5.538zM1625.165 788.063l-25.595-5.537-15.45 72.057 25.594 5.539zM1584.978 779.368l-25.594-5.538-15.451 72.058 25.595 5.538zM1555.556 773.001l-25.595-5.537-15.45 72.057 25.594 5.539zM1358.073 729.77l-25.596-5.537-15.45 72.057 25.596 5.539zM1328.65 723.404l-25.595-5.538-15.45 72.058 25.595 5.538zM1288.463 714.708l-25.594-5.537-15.45 72.057 25.594 5.539zM1259.04 708.342l-25.594-5.538-15.45 72.058 25.594 5.538zM1424.723 737.68l-25.596-5.538-3.643 17.383 25.595 5.539zM1491.222 752.07l-25.594-5.538-3.644 17.382 25.596 5.539z" fill="#ffcd34"/><path d="M401.854 334.594a8.768 8.768 0 01-3.07-.575c-4.522-1.719-6.791-6.77-5.07-11.284l.416-1.09c1.72-4.513 6.781-6.78 11.303-5.06 4.521 1.718 6.79 6.77 5.069 11.285l-.415 1.089c-1.337 3.503-4.686 5.653-8.233 5.635m-7.899 20.702a8.768 8.768 0 01-3.07-.574c-4.522-1.719-6.791-6.77-5.07-11.284l.416-1.091c1.72-4.512 6.782-6.779 11.303-5.059 4.521 1.719 6.792 6.77 5.07 11.283l-.415 1.09c-1.336 3.505-4.687 5.654-8.234 5.635M386.057 376a8.755 8.755 0 01-3.07-.575c-4.522-1.718-6.792-6.77-5.07-11.284l.416-1.089c1.72-4.513 6.781-6.779 11.302-5.061 4.523 1.718 6.792 6.77 5.071 11.284l-.416 1.09c-1.336 3.504-4.687 5.654-8.233 5.635m-7.898 20.703a8.763 8.763 0 01-3.076-.576c-4.52-1.722-6.786-6.775-5.062-11.287l.416-1.09c1.722-4.511 6.784-6.777 11.306-5.054 4.52 1.721 6.787 6.775 5.063 11.288l-.416 1.088c-1.337 3.501-4.685 5.65-8.23 5.63m-7.9 20.705a8.783 8.783 0 01-3.073-.575c-4.52-1.72-6.789-6.772-5.066-11.285l.416-1.091c1.722-4.515 6.782-6.777 11.305-5.059 4.52 1.72 6.79 6.774 5.067 11.286l-.416 1.089c-1.336 3.504-4.687 5.653-8.232 5.635m-7.899 20.702a8.755 8.755 0 01-3.07-.574c-4.522-1.719-6.791-6.771-5.07-11.284l.416-1.091c1.72-4.512 6.781-6.777 11.303-5.06 4.522 1.719 6.792 6.77 5.07 11.284l-.416 1.09c-1.336 3.505-4.685 5.654-8.233 5.635m-7.897 20.703a8.757 8.757 0 01-3.071-.575c-4.521-1.718-6.792-6.77-5.07-11.284l.415-1.089c1.722-4.513 6.782-6.777 11.304-5.061 4.522 1.718 6.791 6.77 5.07 11.284l-.416 1.09c-1.336 3.503-4.686 5.654-8.232 5.635m-7.899 20.703a8.749 8.749 0 01-3.073-.576c-4.522-1.72-6.79-6.772-5.067-11.286l.416-1.088c1.723-4.512 6.784-6.778 11.305-5.057 4.522 1.72 6.79 6.772 5.067 11.285l-.416 1.088c-1.337 3.503-4.687 5.652-8.232 5.634" fill="#c60294"/><path d="M402.323 316.829c-3.2 0-6.224 1.946-7.429 5.106l-.416 1.091a7.86 7.86 0 00.173 6.059 7.874 7.874 0 004.423 4.17 7.899 7.899 0 002.784.522h.039a7.983 7.983 0 007.426-5.11l.415-1.088a7.866 7.866 0 00-.173-6.06 7.876 7.876 0 00-4.423-4.169 7.898 7.898 0 00-2.819-.521m-.426 18.582h-.047a9.493 9.493 0 01-3.357-.629 9.507 9.507 0 01-5.335-5.028 9.487 9.487 0 01-.208-7.31l.416-1.09c1.877-4.928 7.417-7.41 12.357-5.535a9.516 9.516 0 015.334 5.03 9.494 9.494 0 01.21 7.312l-.416 1.088c-1.409 3.69-5.002 6.162-8.954 6.162m-7.936 19.068h.037c3.279 0 6.26-2.048 7.427-5.108l.416-1.09a7.869 7.869 0 00-.174-6.06 7.887 7.887 0 00-4.424-4.168c-4.089-1.556-8.689.5-10.249 4.586l-.415 1.088a7.858 7.858 0 00.175 6.066 7.89 7.89 0 004.421 4.165c.898.34 1.835.515 2.786.521m.037 1.636h-.047a9.605 9.605 0 01-3.356-.628 9.508 9.508 0 01-5.332-5.024 9.48 9.48 0 01-.212-7.316l.415-1.089c1.88-4.93 7.423-7.412 12.359-5.535a9.505 9.505 0 015.333 5.028 9.485 9.485 0 01.21 7.311l-.415 1.09c-1.407 3.691-5.002 6.163-8.955 6.163m-7.47 2.12c-3.203 0-6.227 1.947-7.431 5.106l-.416 1.09a7.87 7.87 0 00.173 6.06 7.884 7.884 0 004.423 4.168 7.941 7.941 0 002.785.523h.039c3.278 0 6.258-2.05 7.425-5.108l.416-1.092a7.858 7.858 0 00-.176-6.063 7.892 7.892 0 00-4.42-4.165 7.927 7.927 0 00-2.817-.519m-.428 18.582h-.048a9.586 9.586 0 01-3.358-.627 9.516 9.516 0 01-5.333-5.03 9.49 9.49 0 01-.21-7.31l.417-1.09c1.878-4.927 7.421-7.403 12.357-5.535a9.508 9.508 0 015.332 5.024 9.49 9.49 0 01.212 7.317l-.416 1.09c-1.407 3.689-5.001 6.16-8.953 6.16m-7.938 19.069c3.26.084 6.291-2.034 7.464-5.106l.415-1.089a7.866 7.866 0 00-.17-6.059 7.897 7.897 0 00-4.42-4.173c-4.094-1.555-8.691.499-10.251 4.585l-.418 1.087a7.865 7.865 0 00.174 6.065 7.885 7.885 0 004.417 4.167 7.946 7.946 0 002.79.523m.038 1.636h-.047a9.605 9.605 0 01-3.36-.63 9.515 9.515 0 01-5.33-5.028 9.483 9.483 0 01-.208-7.317l.416-1.088c1.881-4.927 7.426-7.41 12.361-5.527a9.507 9.507 0 015.33 5.032 9.494 9.494 0 01.207 7.312l-.416 1.09c-1.41 3.686-5.004 6.156-8.953 6.156m-7.47 2.12c-3.202 0-6.226 1.946-7.431 5.106l-.416 1.09a7.86 7.86 0 00.172 6.058 7.88 7.88 0 004.422 4.171 7.906 7.906 0 002.786.523h.038c3.278 0 6.26-2.05 7.426-5.11l.416-1.089a7.857 7.857 0 00-.172-6.057 7.876 7.876 0 00-4.423-4.17 7.898 7.898 0 00-2.819-.522m-.428 18.582h-.046a9.564 9.564 0 01-3.359-.628 9.505 9.505 0 01-5.333-5.03 9.49 9.49 0 01-.208-7.31l.416-1.09c1.881-4.93 7.424-7.408 12.358-5.534a9.512 9.512 0 015.334 5.032 9.49 9.49 0 01.208 7.311l-.416 1.09c-1.408 3.689-5.003 6.16-8.954 6.16m-7.47 2.12c-3.203 0-6.227 1.949-7.43 5.107l-.417 1.09a7.861 7.861 0 00.176 6.064 7.89 7.89 0 004.421 4.165 7.93 7.93 0 002.783.52H362.41c3.276 0 6.256-2.047 7.422-5.107l.415-1.09a7.863 7.863 0 00-.172-6.06 7.883 7.883 0 00-4.424-4.168 7.894 7.894 0 00-2.817-.52m-.424 18.58h-.052a9.52 9.52 0 01-3.355-.626 9.513 9.513 0 01-5.332-5.024 9.486 9.486 0 01-.212-7.316l.416-1.089c1.879-4.928 7.423-7.41 12.357-5.535a9.505 9.505 0 015.334 5.028 9.485 9.485 0 01.21 7.311l-.416 1.09c-1.406 3.691-5 6.16-8.95 6.16m-7.474 2.123c-3.202 0-6.226 1.947-7.432 5.106l-.416 1.09a7.866 7.866 0 00.174 6.06 7.876 7.876 0 004.424 4.168 7.927 7.927 0 002.782.523c3.3-.052 6.295-2.039 7.466-5.11l.416-1.09a7.858 7.858 0 00-.176-6.063 7.888 7.888 0 00-4.42-4.165 7.922 7.922 0 00-2.818-.519m-.428 18.582h-.046a9.564 9.564 0 01-3.359-.628 9.51 9.51 0 01-5.333-5.03 9.484 9.484 0 01-.21-7.309l.416-1.09c1.878-4.926 7.423-7.406 12.358-5.535a9.513 9.513 0 015.332 5.024 9.483 9.483 0 01.212 7.317l-.416 1.09c-1.407 3.689-5.002 6.16-8.954 6.16m-7.936 19.069h.038c3.276 0 6.257-2.048 7.425-5.108l.415-1.088a7.863 7.863 0 00-.17-6.06 7.88 7.88 0 00-4.422-4.17c-4.095-1.565-8.69.5-10.25 4.586l-.417 1.088a7.86 7.86 0 00.172 6.058 7.872 7.872 0 004.421 4.17 7.94 7.94 0 002.788.524m.038 1.634h-.047a9.58 9.58 0 01-3.36-.628 9.511 9.511 0 01-5.332-5.03 9.488 9.488 0 01-.208-7.312l.416-1.09c1.883-4.926 7.427-7.409 12.36-5.528a9.509 9.509 0 015.332 5.03 9.485 9.485 0 01.207 7.31l-.415 1.088c-1.41 3.691-5.003 6.16-8.953 6.16" fill="#e8e8e4"/><path d="M424.352 337.73a8.768 8.768 0 01-3.07-.575c-4.522-1.719-6.791-6.77-5.07-11.284l.416-1.09c1.721-4.513 6.781-6.78 11.303-5.06 4.521 1.718 6.792 6.77 5.07 11.283l-.416 1.09c-1.336 3.504-4.685 5.654-8.233 5.636m-7.897 20.702a8.77 8.77 0 01-3.072-.574c-4.522-1.719-6.79-6.77-5.07-11.284l.416-1.09c1.722-4.513 6.782-6.78 11.303-5.06 4.521 1.718 6.792 6.77 5.07 11.283l-.415 1.09c-1.336 3.503-4.686 5.654-8.232 5.635m-7.899 20.703a8.757 8.757 0 01-3.07-.575c-4.523-1.718-6.793-6.77-5.071-11.284l.416-1.09c1.721-4.512 6.781-6.778 11.304-5.06 4.521 1.718 6.79 6.77 5.07 11.284l-.417 1.09c-1.336 3.503-4.685 5.652-8.232 5.635m-7.899 20.703a8.749 8.749 0 01-3.073-.576c-4.521-1.72-6.788-6.772-5.065-11.286l.414-1.088c1.724-4.513 6.784-6.78 11.306-5.057 4.521 1.72 6.79 6.772 5.066 11.285l-.416 1.088c-1.337 3.503-4.686 5.652-8.232 5.634m-7.898 20.704a8.77 8.77 0 01-3.072-.575c-4.522-1.72-6.79-6.772-5.068-11.285l.416-1.09c1.722-4.513 6.782-6.776 11.305-5.06 4.52 1.72 6.79 6.772 5.068 11.286l-.417 1.09c-1.336 3.503-4.686 5.652-8.232 5.634m-7.898 20.702a8.757 8.757 0 01-3.07-.574c-4.523-1.719-6.792-6.77-5.07-11.284l.415-1.09c1.721-4.513 6.781-6.778 11.303-5.06 4.522 1.718 6.792 6.77 5.07 11.283l-.416 1.09c-1.336 3.503-4.685 5.653-8.232 5.635m-7.898 20.703a8.763 8.763 0 01-3.07-.575c-4.522-1.718-6.792-6.77-5.07-11.284l.414-1.09c1.722-4.512 6.782-6.776 11.304-5.06 4.522 1.718 6.791 6.77 5.07 11.284l-.416 1.09c-1.336 3.503-4.686 5.652-8.232 5.635m-7.899 20.703a8.749 8.749 0 01-3.073-.576c-4.522-1.72-6.79-6.772-5.066-11.286l.415-1.088c1.724-4.513 6.785-6.778 11.305-5.057 4.522 1.72 6.79 6.772 5.067 11.284l-.416 1.09c-1.337 3.502-4.687 5.651-8.232 5.633" fill="#c60294"/><path d="M424.357 336.913h.038a7.983 7.983 0 007.427-5.11l.415-1.089a7.863 7.863 0 00-.172-6.06 7.882 7.882 0 00-4.424-4.168c-4.09-1.556-8.691.5-10.25 4.587l-.416 1.09a7.861 7.861 0 00.176 6.063 7.884 7.884 0 004.422 4.164c.896.34 1.833.516 2.784.523m.038 1.636h-.046a9.63 9.63 0 01-3.356-.628 9.517 9.517 0 01-5.332-5.024 9.49 9.49 0 01-.214-7.318l.416-1.09c1.88-4.927 7.423-7.41 12.359-5.534a9.507 9.507 0 015.333 5.03 9.488 9.488 0 01.21 7.312l-.415 1.088c-1.41 3.692-5.003 6.164-8.955 6.164m-7.47 2.117c-3.203 0-6.227 1.95-7.431 5.108l-.416 1.09a7.869 7.869 0 00.173 6.06 7.889 7.889 0 004.423 4.169 7.903 7.903 0 002.784.521H416.501a7.98 7.98 0 007.422-5.11l.415-1.087a7.861 7.861 0 00-.176-6.064 7.875 7.875 0 00-4.42-4.166 7.902 7.902 0 00-2.817-.52m-.424 18.583h-.051a9.523 9.523 0 01-3.357-.63 9.511 9.511 0 01-5.334-5.026 9.49 9.49 0 01-.209-7.31l.415-1.091c1.88-4.928 7.422-7.412 12.358-5.535a9.51 9.51 0 015.331 5.024 9.48 9.48 0 01.212 7.316l-.415 1.09c-1.408 3.691-5 6.162-8.95 6.162m-7.94 19.068h.038c3.279 0 6.259-2.05 7.426-5.108l.416-1.09a7.866 7.866 0 00-.174-6.06 7.883 7.883 0 00-4.424-4.17c-4.093-1.556-8.69.504-10.248 4.587l-.416 1.09a7.857 7.857 0 00.175 6.06 7.87 7.87 0 004.421 4.168c.898.34 1.835.516 2.786.523m.038 1.635h-.048a9.634 9.634 0 01-3.356-.627 9.51 9.51 0 01-5.334-5.03 9.488 9.488 0 01-.21-7.311l.416-1.09c1.879-4.926 7.423-7.409 12.358-5.534a9.505 9.505 0 015.333 5.03 9.478 9.478 0 01.21 7.308l-.415 1.092c-1.407 3.69-5.002 6.162-8.954 6.162m-7.473 2.121c-3.2 0-6.221 1.947-7.428 5.107l-.416 1.09a7.854 7.854 0 00.172 6.058 7.875 7.875 0 004.42 4.168 7.896 7.896 0 002.788.522h.043a7.978 7.978 0 007.421-5.106l.415-1.087a7.863 7.863 0 00-.171-6.06 7.885 7.885 0 00-4.423-4.17 7.917 7.917 0 00-2.821-.522m-.421 18.581h-.052a9.572 9.572 0 01-3.36-.628 9.515 9.515 0 01-5.332-5.03 9.494 9.494 0 01-.207-7.312l.416-1.088c1.881-4.93 7.427-7.415 12.36-5.53a9.505 9.505 0 015.332 5.03 9.488 9.488 0 01.207 7.312l-.415 1.086c-1.41 3.691-5.001 6.16-8.95 6.16m-7.94 19.07h.038a7.983 7.983 0 007.425-5.11l.416-1.09a7.853 7.853 0 00-.172-6.056 7.878 7.878 0 00-4.421-4.17c-4.095-1.552-8.693.503-10.25 4.586l-.417 1.088a7.872 7.872 0 00.171 6.058 7.88 7.88 0 004.423 4.171c.897.34 1.836.516 2.786.523m.039 1.634h-.048a9.61 9.61 0 01-3.357-.626 9.512 9.512 0 01-5.334-5.032 9.485 9.485 0 01-.208-7.31l.416-1.09c1.879-4.923 7.427-7.403 12.359-5.534a9.516 9.516 0 015.333 5.032 9.49 9.49 0 01.208 7.311l-.416 1.09c-1.408 3.687-5.002 6.16-8.953 6.16m-7.47 2.12c-3.202 0-6.227 1.947-7.433 5.106l-.414 1.09a7.869 7.869 0 00.173 6.06 7.889 7.889 0 004.423 4.169 7.903 7.903 0 002.784.521h.044a7.979 7.979 0 007.421-5.11l.416-1.087a7.87 7.87 0 00-.176-6.066 7.884 7.884 0 00-4.421-4.164 7.885 7.885 0 00-2.816-.518m-.424 18.581h-.052a9.523 9.523 0 01-3.358-.63 9.511 9.511 0 01-5.333-5.026 9.49 9.49 0 01-.21-7.31l.415-1.091c1.879-4.926 7.422-7.406 12.358-5.536a9.515 9.515 0 015.332 5.025 9.486 9.486 0 01.213 7.316l-.416 1.09c-1.408 3.691-5.001 6.162-8.95 6.162m-7.94 19.068h.038c3.277 0 6.259-2.05 7.425-5.108l.416-1.09a7.866 7.866 0 00-.173-6.06 7.876 7.876 0 00-4.424-4.169c-4.09-1.556-8.69.503-10.248 4.586l-.416 1.09a7.861 7.861 0 00.176 6.063 7.879 7.879 0 004.42 4.165c.897.34 1.836.516 2.785.523m.039 1.635h-.048a9.605 9.605 0 01-3.356-.628 9.51 9.51 0 01-5.332-5.023 9.484 9.484 0 01-.212-7.317l.416-1.09c1.877-4.924 7.421-7.404 12.357-5.534a9.505 9.505 0 015.334 5.03 9.478 9.478 0 01.21 7.308l-.416 1.092c-1.406 3.69-5.001 6.162-8.953 6.162m-7.472 2.12c-3.201 0-6.223 1.946-7.43 5.108l-.415 1.088a7.866 7.866 0 00.17 6.058 7.88 7.88 0 004.422 4.17 7.896 7.896 0 002.788.522h.042a7.98 7.98 0 007.422-5.106l.416-1.09a7.857 7.857 0 00-.172-6.057 7.882 7.882 0 00-4.422-4.17 7.895 7.895 0 00-2.821-.523m-.423 18.582h-.052a9.602 9.602 0 01-3.36-.628 9.515 9.515 0 01-5.332-5.03 9.494 9.494 0 01-.206-7.312l.416-1.088c1.881-4.93 7.428-7.407 12.36-5.53a9.509 9.509 0 015.332 5.03 9.49 9.49 0 01.208 7.31l-.416 1.09c-1.41 3.69-5.002 6.158-8.95 6.158" fill="#e8e8e4"/><path d="M446.383 342.506a8.768 8.768 0 01-3.07-.574c-4.522-1.719-6.791-6.77-5.07-11.284l.416-1.09c1.722-4.513 6.782-6.78 11.303-5.06 4.521 1.718 6.792 6.77 5.07 11.283l-.415 1.09c-1.336 3.503-4.686 5.654-8.234 5.635m-7.898 20.703a8.768 8.768 0 01-3.071-.575c-4.521-1.718-6.79-6.769-5.07-11.284l.417-1.09c1.721-4.512 6.781-6.779 11.302-5.059 4.522 1.717 6.792 6.77 5.071 11.283l-.416 1.09c-1.336 3.503-4.685 5.654-8.233 5.635m-7.898 20.703a8.757 8.757 0 01-3.07-.575c-4.523-1.719-6.792-6.77-5.071-11.284l.416-1.09c1.721-4.513 6.781-6.778 11.303-5.06 4.522 1.718 6.792 6.77 5.07 11.283l-.416 1.091c-1.336 3.504-4.685 5.653-8.232 5.635m-7.898 20.702a8.763 8.763 0 01-3.076-.576c-4.52-1.72-6.787-6.774-5.063-11.286l.416-1.09c1.723-4.512 6.784-6.774 11.307-5.054 4.52 1.721 6.786 6.774 5.062 11.288l-.416 1.088c-1.337 3.501-4.685 5.65-8.23 5.63m-7.899 20.704a8.783 8.783 0 01-3.073-.574c-4.52-1.72-6.79-6.772-5.067-11.286l.416-1.09c1.723-4.515 6.783-6.775 11.305-5.059 4.52 1.72 6.79 6.772 5.068 11.285l-.417 1.09c-1.336 3.504-4.685 5.653-8.232 5.634m-7.899 20.703a8.755 8.755 0 01-3.069-.575c-4.523-1.718-6.792-6.77-5.07-11.284l.415-1.09c1.722-4.512 6.782-6.778 11.303-5.06 4.523 1.718 6.792 6.77 5.07 11.284l-.415 1.09c-1.336 3.503-4.686 5.652-8.234 5.635m-7.897 20.703a8.757 8.757 0 01-3.07-.575c-4.522-1.719-6.791-6.77-5.07-11.284l.415-1.09c1.721-4.513 6.781-6.777 11.304-5.06 4.521 1.718 6.79 6.77 5.069 11.283l-.416 1.091c-1.336 3.503-4.685 5.653-8.232 5.635m-7.899 20.702a8.749 8.749 0 01-3.073-.576c-4.521-1.72-6.79-6.772-5.067-11.285l.416-1.088c1.724-4.513 6.784-6.776 11.306-5.057 4.521 1.72 6.789 6.772 5.066 11.285l-.416 1.088c-1.337 3.503-4.686 5.652-8.232 5.633" fill="#c60294"/><path d="M446.854 324.741c-3.203 0-6.225 1.948-7.43 5.107l-.417 1.09a7.866 7.866 0 00.174 6.06 7.882 7.882 0 004.422 4.169 7.903 7.903 0 002.784.521h.04c3.278 0 6.259-2.048 7.426-5.108l.414-1.088a7.865 7.865 0 00-.174-6.065 7.886 7.886 0 00-4.422-4.166 7.894 7.894 0 00-2.817-.52m-.427 18.583h-.046a9.495 9.495 0 01-3.359-.63 9.507 9.507 0 01-5.335-5.027 9.487 9.487 0 01-.208-7.31l.416-1.09c1.879-4.928 7.423-7.41 12.358-5.535a9.513 9.513 0 015.332 5.024 9.492 9.492 0 01.212 7.319l-.416 1.086c-1.408 3.691-5.002 6.163-8.954 6.163m-7.938 19.068h.038c3.279 0 6.26-2.048 7.427-5.11l.416-1.089a7.869 7.869 0 00-.173-6.06 7.878 7.878 0 00-4.424-4.168c-4.094-1.56-8.691.503-10.248 4.586l-.416 1.09a7.865 7.865 0 00.176 6.064 7.89 7.89 0 004.421 4.166 7.98 7.98 0 002.783.521m.038 1.635h-.046a9.651 9.651 0 01-3.355-.627 9.509 9.509 0 01-5.332-5.024 9.483 9.483 0 01-.213-7.317l.414-1.09c1.88-4.926 7.424-7.41 12.359-5.533a9.5 9.5 0 015.333 5.028 9.485 9.485 0 01.211 7.31l-.416 1.091c-1.408 3.69-5.003 6.162-8.955 6.162m-7.469 2.121c-3.204 0-6.227 1.947-7.432 5.105l-.416 1.091a7.869 7.869 0 00.173 6.06 7.884 7.884 0 004.423 4.168 7.947 7.947 0 002.785.523h.043a7.978 7.978 0 007.421-5.11l.416-1.09a7.864 7.864 0 00-.174-6.063 7.894 7.894 0 00-4.422-4.165 7.927 7.927 0 00-2.817-.519m-.424 18.581h-.05a9.551 9.551 0 01-3.358-.628 9.512 9.512 0 01-5.335-5.028 9.49 9.49 0 01-.209-7.31l.416-1.09c1.879-4.929 7.423-7.404 12.357-5.536a9.51 9.51 0 015.332 5.023 9.49 9.49 0 01.212 7.317l-.416 1.091c-1.406 3.69-5 6.161-8.949 6.161m-7.94 19.068h.037a7.986 7.986 0 007.426-5.105l.414-1.09a7.863 7.863 0 00-.169-6.06 7.9 7.9 0 00-4.42-4.171c-4.095-1.558-8.692.501-10.252 4.584l-.416 1.09a7.86 7.86 0 00.17 6.058 7.89 7.89 0 004.42 4.172c.897.34 1.837.516 2.79.522m.037 1.636h-.046a9.644 9.644 0 01-3.362-.63 9.503 9.503 0 01-5.332-5.034 9.481 9.481 0 01-.205-7.309l.416-1.09c1.881-4.925 7.425-7.4 12.361-5.527a9.51 9.51 0 015.331 5.033 9.49 9.49 0 01.207 7.31l-.416 1.09c-1.411 3.688-5.004 6.157-8.954 6.157m-7.468 2.122c-3.204 0-6.228 1.946-7.433 5.105l-.416 1.09a7.86 7.86 0 00.172 6.058 7.876 7.876 0 004.423 4.17 7.904 7.904 0 002.785.522c3.303.027 6.292-2.036 7.464-5.108l.416-1.09a7.86 7.86 0 00-.172-6.058 7.88 7.88 0 00-4.423-4.17 7.88 7.88 0 00-2.816-.52m-.43 18.582h-.047a9.564 9.564 0 01-3.359-.628 9.516 9.516 0 01-5.333-5.032 9.49 9.49 0 01-.208-7.31l.416-1.089c1.88-4.925 7.423-7.402 12.359-5.533a9.514 9.514 0 015.333 5.03 9.485 9.485 0 01.208 7.311l-.415 1.09c-1.409 3.69-5.004 6.161-8.954 6.161m-7.938 19.068c3.323-.015 6.295-2.037 7.466-5.11l.416-1.089a7.869 7.869 0 00-.174-6.06 7.878 7.878 0 00-4.424-4.168c-4.094-1.56-8.69.503-10.248 4.586l-.414 1.09a7.864 7.864 0 00.174 6.064 7.89 7.89 0 004.422 4.166 8.011 8.011 0 002.782.521m.04 1.635h-.048a9.664 9.664 0 01-3.356-.627 9.506 9.506 0 01-5.33-5.024 9.484 9.484 0 01-.214-7.317l.416-1.09c1.879-4.928 7.423-7.41 12.358-5.534a9.507 9.507 0 015.333 5.03 9.485 9.485 0 01.21 7.31l-.415 1.09c-1.408 3.69-5.003 6.162-8.954 6.162m-7.469 2.121c-3.203 0-6.228 1.947-7.433 5.105l-.415 1.091a7.863 7.863 0 00.172 6.06 7.883 7.883 0 004.424 4.168 7.934 7.934 0 002.784.523h.043a7.978 7.978 0 007.421-5.11l.416-1.09a7.858 7.858 0 00-.176-6.063 7.888 7.888 0 00-4.42-4.165 7.944 7.944 0 00-2.816-.519m-.425 18.581h-.052a9.563 9.563 0 01-3.358-.628 9.518 9.518 0 01-5.333-5.028 9.49 9.49 0 01-.208-7.31l.415-1.09c1.877-4.926 7.422-7.406 12.357-5.536a9.508 9.508 0 015.332 5.024 9.486 9.486 0 01.213 7.316l-.416 1.091a9.624 9.624 0 01-8.95 6.161m-7.942 19.068h.039c3.277 0 6.259-2.049 7.425-5.108l.415-1.088a7.857 7.857 0 00-.17-6.06 7.88 7.88 0 00-4.422-4.169c-4.09-1.555-8.69.501-10.25 4.585l-.417 1.088a7.86 7.86 0 00.172 6.06 7.872 7.872 0 004.422 4.168 7.97 7.97 0 002.786.524m.039 1.635h-.047a9.61 9.61 0 01-3.36-.63 9.505 9.505 0 01-5.332-5.029 9.488 9.488 0 01-.208-7.312l.416-1.089c1.882-4.925 7.427-7.405 12.36-5.53a9.509 9.509 0 015.332 5.03 9.494 9.494 0 01.208 7.312l-.416 1.088c-1.408 3.69-5.002 6.16-8.953 6.16" fill="#e8e8e4"/><path d="M468.415 346.178a8.768 8.768 0 01-3.071-.574c-4.521-1.719-6.79-6.771-5.07-11.284l.417-1.09c1.72-4.513 6.78-6.78 11.302-5.061 4.522 1.719 6.792 6.77 5.07 11.284l-.415 1.09c-1.337 3.503-4.687 5.654-8.233 5.635m-7.9 20.703a8.768 8.768 0 01-3.07-.575c-4.521-1.718-6.79-6.769-5.07-11.284l.417-1.09c1.721-4.512 6.781-6.779 11.303-5.059 4.52 1.717 6.792 6.77 5.069 11.283l-.415 1.09c-1.336 3.503-4.686 5.654-8.233 5.635m-7.899 20.703a8.755 8.755 0 01-3.07-.575c-4.522-1.719-6.791-6.77-5.07-11.284l.416-1.09c1.722-4.513 6.782-6.778 11.303-5.06 4.523 1.718 6.792 6.77 5.07 11.283l-.415 1.091c-1.336 3.504-4.686 5.653-8.234 5.635m-7.897 20.702a8.763 8.763 0 01-3.076-.576c-4.52-1.721-6.787-6.774-5.063-11.286l.416-1.09c1.723-4.512 6.784-6.776 11.307-5.054 4.52 1.721 6.787 6.774 5.063 11.288l-.416 1.088c-1.338 3.501-4.686 5.649-8.231 5.63m-7.899 20.704a8.783 8.783 0 01-3.073-.574c-4.52-1.72-6.79-6.772-5.067-11.286l.416-1.09c1.723-4.514 6.784-6.779 11.306-5.059 4.52 1.72 6.789 6.773 5.066 11.285l-.416 1.09c-1.336 3.504-4.685 5.653-8.232 5.634m-7.898 20.703a8.755 8.755 0 01-3.07-.575c-4.522-1.718-6.792-6.77-5.07-11.284l.416-1.09c1.72-4.512 6.78-6.776 11.302-5.06 4.523 1.718 6.792 6.77 5.07 11.284l-.415 1.09c-1.336 3.503-4.685 5.652-8.233 5.635m-7.898 20.703a8.757 8.757 0 01-3.07-.575c-4.522-1.719-6.792-6.77-5.07-11.284l.415-1.09c1.721-4.513 6.781-6.777 11.304-5.06 4.521 1.718 6.79 6.77 5.07 11.283l-.417 1.091c-1.336 3.503-4.685 5.653-8.232 5.635m-7.898 20.702a8.749 8.749 0 01-3.074-.576c-4.521-1.72-6.79-6.772-5.066-11.285l.416-1.088c1.722-4.513 6.784-6.78 11.305-5.057 4.521 1.72 6.79 6.772 5.067 11.285l-.416 1.088c-1.338 3.503-4.687 5.652-8.232 5.633" fill="#c60294"/><path d="M468.884 328.414c-3.201 0-6.224 1.947-7.43 5.107l-.415 1.09a7.861 7.861 0 00.176 6.064 7.877 7.877 0 004.42 4.164 7.907 7.907 0 002.784.52h.042a7.979 7.979 0 007.423-5.106l.415-1.09a7.863 7.863 0 00-.172-6.06 7.878 7.878 0 00-4.424-4.168 7.898 7.898 0 00-2.819-.521m-.423 18.581h-.052a9.547 9.547 0 01-3.354-.626 9.51 9.51 0 01-5.332-5.023 9.484 9.484 0 01-.212-7.317l.416-1.091c1.877-4.927 7.418-7.41 12.357-5.533a9.507 9.507 0 015.333 5.029 9.49 9.49 0 01.211 7.31l-.416 1.09c-1.408 3.69-5 6.161-8.95 6.161m-7.475 2.12c-3.202 0-6.227 1.95-7.432 5.107l-.415 1.09a7.866 7.866 0 00.173 6.06 7.883 7.883 0 004.424 4.17 7.925 7.925 0 002.783.521h.039c3.278 0 6.26-2.048 7.426-5.108l.416-1.09a7.858 7.858 0 00-.176-6.063 7.881 7.881 0 00-4.421-4.165 7.896 7.896 0 00-2.817-.522m-.428 18.583h-.047a9.48 9.48 0 01-3.356-.628 9.499 9.499 0 01-5.333-5.03 9.478 9.478 0 01-.211-7.307l.415-1.092c1.88-4.927 7.424-7.41 12.358-5.534a9.519 9.519 0 015.332 5.023 9.495 9.495 0 01.212 7.317l-.416 1.091c-1.406 3.688-5.001 6.16-8.954 6.16m-7.936 19.07c3.261.003 6.293-2.04 7.464-5.11l.416-1.09a7.869 7.869 0 00-.174-6.06 7.889 7.889 0 00-4.422-4.169c-4.094-1.556-8.691.504-10.25 4.587l-.416 1.09a7.862 7.862 0 00.176 6.065 7.885 7.885 0 004.42 4.164c.899.34 1.835.516 2.786.522m.038 1.635h-.048a9.634 9.634 0 01-3.356-.627 9.515 9.515 0 01-5.332-5.025 9.486 9.486 0 01-.212-7.316l.416-1.09c1.879-4.927 7.423-7.409 12.359-5.534a9.513 9.513 0 015.333 5.028 9.49 9.49 0 01.21 7.31l-.416 1.091c-1.407 3.691-5.002 6.163-8.954 6.163m-7.472 2.121c-3.2 0-6.221 1.944-7.428 5.103l-.416 1.09a7.863 7.863 0 00.17 6.06 7.886 7.886 0 004.42 4.169c.898.344 1.836.52 2.789.524h.043a7.979 7.979 0 007.42-5.106l.416-1.088a7.866 7.866 0 00-.17-6.058 7.897 7.897 0 00-4.42-4.174 7.93 7.93 0 00-2.824-.52m-.422 18.582h-.051a9.508 9.508 0 01-3.363-.632 9.504 9.504 0 01-5.33-5.028 9.485 9.485 0 01-.206-7.314l.416-1.089c1.882-4.927 7.426-7.407 12.362-5.525a9.503 9.503 0 015.33 5.032 9.493 9.493 0 01.207 7.309l-.416 1.09a9.626 9.626 0 01-8.95 6.157m-7.475 2.12c-3.202 0-6.224 1.946-7.43 5.108l-.416 1.089a7.857 7.857 0 00.172 6.057 7.885 7.885 0 004.423 4.171 7.904 7.904 0 002.785.521H436.868a7.977 7.977 0 007.421-5.108l.416-1.089a7.853 7.853 0 00-.172-6.056 7.876 7.876 0 00-4.422-4.17 7.849 7.849 0 00-2.82-.523m-.423 18.582h-.052a9.533 9.533 0 01-3.357-.628 9.512 9.512 0 01-5.334-5.032 9.49 9.49 0 01-.208-7.31l.416-1.088c1.882-4.927 7.426-7.414 12.359-5.53a9.499 9.499 0 015.333 5.03 9.49 9.49 0 01.208 7.31l-.416 1.09c-1.408 3.688-5.001 6.158-8.949 6.158m-7.473 2.123c-3.204 0-6.228 1.947-7.432 5.104l-.416 1.09a7.866 7.866 0 00.173 6.06 7.883 7.883 0 004.424 4.17c.897.34 1.833.516 2.783.521a7.973 7.973 0 007.465-5.108l.416-1.089a7.87 7.87 0 00-.176-6.065 7.884 7.884 0 00-4.421-4.164 7.885 7.885 0 00-2.816-.519m-.428 18.58h-.048a9.485 9.485 0 01-3.356-.628 9.499 9.499 0 01-5.334-5.03 9.478 9.478 0 01-.21-7.307l.416-1.092c1.877-4.924 7.422-7.404 12.357-5.535a9.517 9.517 0 015.332 5.024 9.495 9.495 0 01.212 7.317l-.416 1.09c-1.408 3.689-5.003 6.161-8.953 6.161m-7.938 19.07h.039c3.279 0 6.259-2.05 7.425-5.11l.416-1.09a7.869 7.869 0 00-.173-6.06 7.885 7.885 0 00-4.423-4.169c-4.09-1.558-8.692.506-10.249 4.587l-.416 1.09a7.858 7.858 0 00.176 6.063 7.881 7.881 0 004.421 4.166 7.99 7.99 0 002.784.522m.039 1.635h-.048a9.61 9.61 0 01-3.356-.628 9.508 9.508 0 01-5.332-5.024 9.486 9.486 0 01-.212-7.316l.416-1.09c1.879-4.925 7.425-7.405 12.357-5.534a9.516 9.516 0 015.335 5.028 9.485 9.485 0 01.21 7.31l-.417 1.091c-1.406 3.691-5.001 6.163-8.953 6.163m-7.473 2.12c-3.2 0-6.222 1.947-7.428 5.108l-.418 1.087a7.866 7.866 0 00.174 6.058 7.872 7.872 0 004.421 4.17 7.88 7.88 0 002.787.524h.042a7.98 7.98 0 007.422-5.107l.414-1.088a7.857 7.857 0 00-.17-6.06 7.88 7.88 0 00-4.422-4.17 7.897 7.897 0 00-2.822-.522m-.422 18.581h-.05a9.476 9.476 0 01-3.362-.63 9.504 9.504 0 01-5.33-5.028 9.488 9.488 0 01-.208-7.312l.416-1.088c1.882-4.928 7.426-7.415 12.36-5.528a9.5 9.5 0 015.332 5.029 9.484 9.484 0 01.206 7.31l-.414 1.089c-1.41 3.69-5.002 6.158-8.95 6.158" fill="#e8e8e4"/><path d="M490.446 349.448a8.768 8.768 0 01-3.07-.574c-4.522-1.719-6.791-6.77-5.07-11.284l.416-1.09c1.721-4.513 6.78-6.778 11.303-5.06 4.52 1.718 6.79 6.77 5.069 11.284l-.415 1.09c-1.337 3.502-4.686 5.653-8.233 5.634m-7.899 20.703a8.768 8.768 0 01-3.07-.575c-4.522-1.718-6.791-6.769-5.07-11.284l.416-1.089c1.722-4.513 6.782-6.78 11.303-5.06 4.521 1.719 6.792 6.77 5.07 11.283l-.415 1.09c-1.336 3.504-4.687 5.654-8.234 5.635m-7.898 20.703a8.725 8.725 0 01-3.07-.575c-4.522-1.719-6.792-6.77-5.07-11.284l.416-1.09c1.72-4.513 6.78-6.778 11.302-5.06 4.523 1.718 6.792 6.77 5.07 11.283l-.415 1.091c-1.336 3.504-4.687 5.653-8.233 5.635m-7.898 20.702a8.749 8.749 0 01-3.073-.576c-4.521-1.72-6.79-6.772-5.067-11.284l.416-1.089c1.723-4.512 6.784-6.777 11.306-5.057 4.52 1.72 6.788 6.772 5.065 11.285l-.415 1.088c-1.337 3.503-4.686 5.652-8.232 5.633m-7.898 20.704a8.783 8.783 0 01-3.074-.574c-4.52-1.72-6.79-6.772-5.066-11.286l.416-1.089c1.722-4.515 6.782-6.779 11.305-5.059 4.52 1.72 6.79 6.772 5.067 11.284l-.416 1.091c-1.336 3.503-4.687 5.652-8.232 5.633m-7.9 20.703a8.755 8.755 0 01-3.068-.575c-4.523-1.718-6.792-6.77-5.071-11.284l.416-1.089c1.721-4.513 6.781-6.777 11.303-5.061 4.522 1.718 6.792 6.77 5.07 11.284l-.416 1.09c-1.336 3.504-4.685 5.654-8.233 5.635m-7.897 20.703a8.727 8.727 0 01-3.071-.575c-4.521-1.719-6.792-6.77-5.07-11.284l.415-1.09c1.722-4.513 6.782-6.777 11.304-5.06 4.522 1.718 6.79 6.77 5.07 11.283l-.416 1.091c-1.336 3.503-4.686 5.653-8.232 5.635m-7.9 20.702a8.749 8.749 0 01-3.072-.576c-4.522-1.72-6.79-6.772-5.067-11.285l.416-1.088c1.723-4.515 6.785-6.777 11.305-5.057 4.522 1.72 6.79 6.772 5.067 11.285l-.416 1.088c-1.337 3.503-4.687 5.652-8.232 5.633" fill="#c60294"/><path d="M490.915 331.685c-3.201 0-6.224 1.945-7.43 5.107l-.415 1.09a7.858 7.858 0 00.176 6.063 7.88 7.88 0 004.42 4.165 7.907 7.907 0 002.784.52h.043a7.979 7.979 0 007.422-5.106l.415-1.091a7.863 7.863 0 00-.173-6.06 7.885 7.885 0 00-4.423-4.168 7.896 7.896 0 00-2.819-.52m-.422 18.581h-.052a9.547 9.547 0 01-3.355-.626 9.508 9.508 0 01-5.332-5.024 9.48 9.48 0 01-.212-7.316l.416-1.091c1.877-4.927 7.421-7.41 12.357-5.533a9.51 9.51 0 015.334 5.028 9.49 9.49 0 01.209 7.31l-.415 1.09c-1.408 3.692-5 6.162-8.95 6.162m-7.475 2.12c-3.203 0-6.227 1.948-7.432 5.107l-.415 1.09a7.863 7.863 0 00.174 6.06 7.884 7.884 0 004.422 4.169 7.91 7.91 0 002.784.522h.039c3.279 0 6.26-2.05 7.427-5.11l.416-1.09a7.858 7.858 0 00-.176-6.062 7.884 7.884 0 00-4.422-4.164 7.896 7.896 0 00-2.817-.522m-.428 18.583h-.047a9.586 9.586 0 01-3.357-.627 9.511 9.511 0 01-5.333-5.03 9.485 9.485 0 01-.21-7.31l.415-1.09c1.88-4.928 7.423-7.412 12.359-5.535a9.525 9.525 0 015.332 5.024 9.492 9.492 0 01.212 7.316l-.416 1.092c-1.407 3.688-5.002 6.16-8.955 6.16m-7.936 19.068c3.239.027 6.292-2.037 7.464-5.108l.416-1.09a7.869 7.869 0 00-.173-6.06 7.884 7.884 0 00-4.423-4.169c-4.095-1.558-8.692.503-10.25 4.587l-.415 1.09a7.858 7.858 0 00.176 6.063 7.892 7.892 0 004.42 4.166 8 8 0 002.785.52m.039 1.637h-.048a9.605 9.605 0 01-3.356-.628 9.513 9.513 0 01-5.332-5.024 9.486 9.486 0 01-.212-7.316l.416-1.09c1.878-4.927 7.422-7.405 12.358-5.534a9.509 9.509 0 015.334 5.028 9.49 9.49 0 01.209 7.31l-.416 1.091c-1.407 3.69-5.001 6.163-8.953 6.163m-7.472 2.12c-3.202 0-6.223 1.947-7.43 5.107l-.417 1.088a7.866 7.866 0 00.173 6.058 7.876 7.876 0 004.422 4.17 7.909 7.909 0 002.786.524h.043a7.98 7.98 0 007.421-5.108l.415-1.087a7.863 7.863 0 00-.17-6.06 7.876 7.876 0 00-4.422-4.17 7.89 7.89 0 00-2.821-.522m-.423 18.581h-.05a9.505 9.505 0 01-3.362-.63 9.513 9.513 0 01-5.332-5.03 9.49 9.49 0 01-.207-7.31l.416-1.088c1.882-4.928 7.43-7.41 12.36-5.528a9.5 9.5 0 015.332 5.029 9.485 9.485 0 01.207 7.31l-.415 1.087c-1.41 3.692-5.001 6.16-8.95 6.16m-7.474 2.123c-3.201 0-6.225 1.947-7.43 5.107l-.416 1.088a7.857 7.857 0 00.172 6.057 7.883 7.883 0 004.422 4.172 7.934 7.934 0 002.786.521h.042a7.977 7.977 0 007.422-5.108l.416-1.09a7.857 7.857 0 00-.172-6.056 7.88 7.88 0 00-4.423-4.171 7.896 7.896 0 00-2.819-.52m-.424 18.58h-.052a9.531 9.531 0 01-3.357-.627 9.512 9.512 0 01-5.333-5.032 9.49 9.49 0 01-.208-7.31l.414-1.09c1.883-4.925 7.427-7.41 12.36-5.53a9.514 9.514 0 015.334 5.03 9.49 9.49 0 01.208 7.31l-.416 1.09c-1.408 3.69-5.002 6.159-8.95 6.159m-7.473 2.123c-3.204 0-6.228 1.946-7.432 5.105l-.416 1.09a7.866 7.866 0 00.173 6.06 7.88 7.88 0 004.424 4.169 7.927 7.927 0 002.783.522c3.28.039 6.295-2.036 7.465-5.11l.415-1.087a7.864 7.864 0 00-.175-6.065 7.89 7.89 0 00-4.421-4.166 7.92 7.92 0 00-2.816-.518m-.428 18.58h-.048a9.516 9.516 0 01-3.356-.628 9.492 9.492 0 01-5.333-5.028 9.481 9.481 0 01-.211-7.31l.416-1.09c1.877-4.926 7.421-7.404 12.357-5.535a9.513 9.513 0 015.332 5.024 9.495 9.495 0 01.212 7.317l-.416 1.088c-1.408 3.69-5.002 6.163-8.953 6.163m-7.937 19.068h.038c3.279 0 6.259-2.05 7.426-5.108l.416-1.09a7.869 7.869 0 00-.174-6.06 7.884 7.884 0 00-4.422-4.169c-4.091-1.554-8.692.506-10.25 4.587l-.416 1.09a7.858 7.858 0 00.176 6.063 7.88 7.88 0 004.422 4.164 7.923 7.923 0 002.784.523m.038 1.636h-.048a9.61 9.61 0 01-3.356-.628 9.517 9.517 0 01-5.332-5.024 9.486 9.486 0 01-.212-7.316l.416-1.09c1.88-4.926 7.426-7.403 12.358-5.534a9.507 9.507 0 015.334 5.028 9.485 9.485 0 01.21 7.31l-.416 1.091c-1.407 3.69-5.002 6.163-8.954 6.163m-7.472 2.12c-3.201 0-6.224 1.947-7.43 5.107l-.416 1.088a7.866 7.866 0 00.173 6.058 7.88 7.88 0 004.421 4.17 7.878 7.878 0 002.787.522H435.205a7.978 7.978 0 007.42-5.106l.416-1.087a7.857 7.857 0 00-.171-6.06 7.876 7.876 0 00-4.421-4.17 7.895 7.895 0 00-2.822-.522m-.422 18.581h-.052a9.474 9.474 0 01-3.36-.63 9.506 9.506 0 01-5.331-5.03 9.488 9.488 0 01-.208-7.312l.416-1.086c1.881-4.927 7.424-7.408 12.36-5.528a9.498 9.498 0 015.332 5.028 9.488 9.488 0 01.207 7.312l-.415 1.088c-1.41 3.689-5.001 6.158-8.95 6.158" fill="#e8e8e4"/><path d="M512.477 353.567a8.763 8.763 0 01-3.07-.575c-4.522-1.718-6.791-6.77-5.07-11.284l.416-1.089c1.72-4.513 6.781-6.78 11.303-5.061 4.521 1.718 6.79 6.77 5.069 11.284l-.415 1.089c-1.337 3.504-4.686 5.655-8.233 5.636m-7.899 20.703a8.768 8.768 0 01-3.07-.575c-4.522-1.719-6.79-6.77-5.07-11.284l.416-1.09c1.72-4.513 6.782-6.78 11.303-5.06 4.521 1.718 6.792 6.77 5.07 11.283l-.415 1.09c-1.336 3.504-4.687 5.654-8.234 5.636m-7.898 20.702a8.755 8.755 0 01-3.07-.574c-4.522-1.719-6.792-6.771-5.07-11.284l.416-1.091c1.72-4.512 6.781-6.777 11.302-5.06 4.523 1.719 6.792 6.77 5.071 11.284l-.416 1.09c-1.336 3.503-4.687 5.653-8.233 5.635m-7.898 20.703a8.763 8.763 0 01-3.076-.576c-4.52-1.721-6.786-6.775-5.062-11.287l.416-1.089c1.722-4.512 6.784-6.775 11.306-5.055 4.52 1.722 6.787 6.775 5.063 11.288l-.416 1.088c-1.337 3.502-4.685 5.65-8.23 5.631m-7.9 20.704a8.777 8.777 0 01-3.073-.575c-4.52-1.72-6.789-6.772-5.066-11.285l.416-1.09c1.722-4.514 6.782-6.778 11.305-5.06 4.52 1.72 6.79 6.773 5.067 11.286l-.416 1.09c-1.338 3.503-4.687 5.653-8.232 5.634m-7.899 20.703a8.755 8.755 0 01-3.07-.575c-4.522-1.719-6.791-6.77-5.07-11.284l.416-1.09c1.72-4.513 6.781-6.777 11.303-5.06 4.522 1.718 6.792 6.77 5.07 11.283l-.416 1.09c-1.336 3.504-4.685 5.653-8.233 5.636m-7.897 20.702a8.729 8.729 0 01-3.07-.576c-4.522-1.717-6.793-6.769-5.072-11.282l.416-1.091c1.722-4.513 6.782-6.781 11.304-5.06 4.522 1.719 6.791 6.77 5.07 11.284l-.416 1.09c-1.336 3.503-4.686 5.653-8.232 5.635m-7.899 20.703a8.749 8.749 0 01-3.073-.576c-4.522-1.72-6.79-6.772-5.067-11.285l.416-1.088c1.723-4.512 6.784-6.779 11.305-5.058 4.52 1.72 6.79 6.772 5.067 11.284l-.416 1.09c-1.337 3.502-4.687 5.652-8.232 5.633" fill="#c60294"/><path d="M512.945 335.803c-3.202 0-6.223 1.946-7.428 5.105l-.416 1.09a7.869 7.869 0 00.173 6.06 7.884 7.884 0 004.423 4.169 7.903 7.903 0 002.784.521h.044a7.978 7.978 0 007.42-5.108l.416-1.088a7.863 7.863 0 00-.172-6.06 7.878 7.878 0 00-4.424-4.168 7.91 7.91 0 00-2.82-.521m-.42 18.581h-.052a9.493 9.493 0 01-3.358-.63 9.502 9.502 0 01-5.333-5.026 9.49 9.49 0 01-.21-7.31l.417-1.091c1.878-4.93 7.422-7.407 12.357-5.534a9.507 9.507 0 015.333 5.03 9.479 9.479 0 01.21 7.31l-.415 1.088c-1.408 3.692-5.001 6.163-8.95 6.163m-7.475 2.12c-3.203 0-6.226 1.95-7.431 5.107l-.416 1.09a7.86 7.86 0 00.173 6.059 7.883 7.883 0 004.424 4.17 7.933 7.933 0 002.784.522h.039c3.279 0 6.259-2.048 7.425-5.108l.416-1.09a7.866 7.866 0 00-.173-6.06 7.876 7.876 0 00-4.424-4.169 7.896 7.896 0 00-2.817-.521m-.427 18.583h-.047a9.52 9.52 0 01-3.357-.627 9.512 9.512 0 01-5.335-5.03 9.484 9.484 0 01-.21-7.311l.417-1.09c1.88-4.925 7.421-7.409 12.357-5.533a9.505 9.505 0 015.335 5.03 9.481 9.481 0 01.21 7.309l-.417 1.09c-1.406 3.69-5.001 6.162-8.953 6.162m-7.47 2.121c-3.203 0-6.227 1.948-7.431 5.107l-.416 1.09a7.86 7.86 0 00.172 6.059 7.883 7.883 0 004.424 4.168 7.94 7.94 0 002.784.523h.042a7.977 7.977 0 007.422-5.11l.416-1.09a7.86 7.86 0 00-.174-6.059 7.885 7.885 0 00-4.422-4.168 7.929 7.929 0 00-2.818-.52m-.424 18.581h-.05a9.551 9.551 0 01-3.358-.628 9.505 9.505 0 01-5.333-5.028 9.485 9.485 0 01-.21-7.31l.415-1.091c1.879-4.927 7.424-7.407 12.359-5.533a9.514 9.514 0 015.333 5.028 9.485 9.485 0 01.21 7.31l-.416 1.091c-1.407 3.69-5 6.161-8.95 6.161m-7.473 2.124c-3.201 0-6.224 1.946-7.43 5.102l-.417 1.089a7.857 7.857 0 00.17 6.06 7.873 7.873 0 004.42 4.17c.898.343 1.837.52 2.789.523 3.221.023 6.29-2.036 7.464-5.105l.416-1.088a7.866 7.866 0 00-.17-6.061 7.877 7.877 0 00-4.42-4.17 7.916 7.916 0 00-2.822-.52m-.43 18.58h-.046a9.508 9.508 0 01-3.363-.632 9.508 9.508 0 01-5.33-5.028 9.497 9.497 0 01-.206-7.313l.416-1.09c1.883-4.923 7.43-7.4 12.362-5.526a9.505 9.505 0 015.33 5.03 9.488 9.488 0 01.207 7.313l-.416 1.089c-1.41 3.688-5.003 6.157-8.953 6.157m-7.468 2.122c-3.203 0-6.227 1.946-7.434 5.106l-.416 1.09a7.857 7.857 0 00.172 6.057 7.885 7.885 0 004.423 4.17 7.916 7.916 0 002.785.522H480.931a7.977 7.977 0 007.422-5.108l.416-1.09a7.862 7.862 0 00-.176-6.063 7.873 7.873 0 00-4.42-4.166 7.892 7.892 0 00-2.816-.518m-.426 18.581h-.052a9.534 9.534 0 01-3.358-.628 9.51 9.51 0 01-5.332-5.032 9.484 9.484 0 01-.21-7.31l.416-1.089c1.882-4.925 7.426-7.4 12.36-5.533a9.51 9.51 0 015.33 5.025 9.48 9.48 0 01.212 7.316l-.416 1.092c-1.408 3.688-5.002 6.159-8.95 6.159m-7.474 2.123c-3.203 0-6.227 1.946-7.432 5.104l-.415 1.092a7.863 7.863 0 00.172 6.057 7.887 7.887 0 004.424 4.17 7.927 7.927 0 002.784.522c3.259.033 6.293-2.036 7.465-5.11l.415-1.089a7.866 7.866 0 00-.173-6.058 7.878 7.878 0 00-4.423-4.17 7.892 7.892 0 00-2.817-.518m-.428 18.58h-.047a9.48 9.48 0 01-3.357-.628 9.499 9.499 0 01-5.334-5.03 9.472 9.472 0 01-.21-7.308l.416-1.092c1.877-4.924 7.42-7.402 12.357-5.534a9.512 9.512 0 015.335 5.03 9.487 9.487 0 01.209 7.31l-.415 1.09c-1.408 3.69-5.004 6.162-8.954 6.162m-7.474 2.121c-3.201 0-6.222 1.947-7.43 5.107l-.414 1.09a7.854 7.854 0 00.174 6.059 7.876 7.876 0 004.422 4.168 7.94 7.94 0 002.784.523H465.135a7.976 7.976 0 007.42-5.11l.418-1.09a7.866 7.866 0 00-.174-6.059 7.887 7.887 0 00-4.424-4.168 7.908 7.908 0 00-2.82-.52m-.42 18.581h-.052a9.551 9.551 0 01-3.357-.628 9.514 9.514 0 01-5.333-5.028 9.485 9.485 0 01-.211-7.31l.416-1.091c1.881-4.93 7.427-7.408 12.359-5.533a9.51 9.51 0 015.333 5.028 9.485 9.485 0 01.21 7.31l-.417 1.091c-1.406 3.69-4.998 6.161-8.948 6.161m-7.477 2.122c-3.2 0-6.223 1.946-7.43 5.106l-.415 1.088a7.86 7.86 0 00.172 6.059 7.88 7.88 0 004.42 4.17 7.892 7.892 0 002.789.523c3.316-.045 6.29-2.037 7.463-5.108l.416-1.088a7.86 7.86 0 00-.172-6.058 7.88 7.88 0 00-4.422-4.17 7.885 7.885 0 00-2.821-.522m-.425 18.581h-.047a9.483 9.483 0 01-3.363-.63 9.5 9.5 0 01-5.33-5.029 9.494 9.494 0 01-.208-7.312l.416-1.089c1.882-4.927 7.428-7.408 12.36-5.527a9.511 9.511 0 015.333 5.03 9.497 9.497 0 01.207 7.31l-.416 1.088c-1.408 3.688-5.002 6.159-8.952 6.159" fill="#e8e8e4"/><g><path d="M534.508 357.625a8.763 8.763 0 01-3.07-.575c-4.522-1.718-6.791-6.77-5.07-11.284l.415-1.09c1.721-4.512 6.781-6.78 11.304-5.06 4.521 1.718 6.79 6.77 5.07 11.284l-.417 1.089c-1.336 3.504-4.685 5.655-8.232 5.636m-7.898 20.703a8.768 8.768 0 01-3.071-.575c-4.521-1.719-6.79-6.77-5.07-11.284l.417-1.09c1.72-4.513 6.78-6.78 11.302-5.06 4.522 1.718 6.792 6.77 5.07 11.283l-.415 1.09c-1.336 3.504-4.687 5.654-8.233 5.636m-7.9 20.702a8.755 8.755 0 01-3.068-.574c-4.523-1.72-6.792-6.771-5.071-11.284l.416-1.091c1.721-4.512 6.781-6.777 11.303-5.06 4.522 1.719 6.792 6.77 5.07 11.284l-.416 1.09c-1.336 3.503-4.686 5.653-8.233 5.635m-7.897 20.703a8.756 8.756 0 01-3.075-.576c-4.52-1.72-6.788-6.772-5.065-11.285l.416-1.088c1.722-4.514 6.784-6.782 11.305-5.058 4.52 1.72 6.788 6.772 5.065 11.286l-.416 1.088c-1.337 3.502-4.685 5.652-8.23 5.633m-7.9 20.704a8.777 8.777 0 01-3.072-.575c-4.52-1.72-6.79-6.772-5.067-11.285l.416-1.09c1.723-4.514 6.783-6.78 11.304-5.06 4.521 1.72 6.79 6.773 5.068 11.286l-.416 1.09c-1.336 3.503-4.687 5.653-8.232 5.634m-7.899 20.703a8.768 8.768 0 01-3.07-.575c-4.522-1.719-6.791-6.77-5.07-11.284l.416-1.09c1.72-4.513 6.782-6.777 11.303-5.06 4.523 1.718 6.792 6.77 5.07 11.283l-.415 1.09c-1.336 3.504-4.686 5.653-8.234 5.636m-7.897 20.702a8.729 8.729 0 01-3.07-.576c-4.522-1.717-6.793-6.77-5.071-11.282l.416-1.091c1.72-4.513 6.78-6.781 11.304-5.06 4.52 1.719 6.79 6.77 5.069 11.284l-.416 1.09c-1.336 3.503-4.685 5.653-8.232 5.635m-7.899 20.703a8.749 8.749 0 01-3.073-.576c-4.521-1.72-6.79-6.772-5.067-11.285l.416-1.088c1.723-4.515 6.784-6.78 11.306-5.058 4.52 1.72 6.789 6.772 5.066 11.284l-.416 1.09c-1.337 3.502-4.686 5.652-8.232 5.633" fill="#c60294"/></g><g><path d="M534.977 339.86c-3.201 0-6.224 1.947-7.43 5.107l-.415 1.09a7.861 7.861 0 00.176 6.064 7.887 7.887 0 004.42 4.165 7.907 7.907 0 002.784.52h.001c3.224.04 6.292-2.033 7.464-5.107l.416-1.089a7.872 7.872 0 00-.173-6.061 7.887 7.887 0 00-4.424-4.168 7.896 7.896 0 00-2.819-.52m-.421 18.581h-.052a9.548 9.548 0 01-3.356-.627 9.508 9.508 0 01-5.332-5.024 9.486 9.486 0 01-.212-7.316l.414-1.089c1.88-4.928 7.424-7.413 12.359-5.535a9.51 9.51 0 015.333 5.028 9.485 9.485 0 01.211 7.311l-.416 1.09c-1.408 3.691-5 6.162-8.95 6.162m-7.475 2.12c-3.202 0-6.226 1.948-7.431 5.107l-.416 1.09a7.86 7.86 0 00.173 6.059 7.878 7.878 0 004.423 4.17 7.917 7.917 0 002.785.522h.039c3.279 0 6.259-2.05 7.425-5.108l.416-1.092a7.858 7.858 0 00-.176-6.063 7.884 7.884 0 00-4.421-4.164 7.896 7.896 0 00-2.817-.521m-.427 18.583h-.047a9.574 9.574 0 01-3.357-.627 9.512 9.512 0 01-5.335-5.03 9.485 9.485 0 01-.209-7.311l.416-1.09c1.88-4.926 7.421-7.409 12.357-5.533a9.51 9.51 0 015.332 5.023 9.49 9.49 0 01.212 7.317l-.416 1.09c-1.406 3.689-5.001 6.16-8.953 6.16m-7.937 19.07c3.232-.01 6.292-2.039 7.464-5.11l.416-1.09a7.863 7.863 0 00-.174-6.06 7.88 7.88 0 00-4.422-4.168c-4.094-1.557-8.69.503-10.248 4.587l-.416 1.09a7.862 7.862 0 00.174 6.064 7.888 7.888 0 004.422 4.164 7.99 7.99 0 002.784.523m.038 1.635h-.048a9.61 9.61 0 01-3.356-.628 9.513 9.513 0 01-5.332-5.024 9.486 9.486 0 01-.212-7.316l.416-1.091c1.88-4.927 7.423-7.4 12.359-5.533a9.505 9.505 0 015.333 5.028 9.485 9.485 0 01.21 7.31l-.416 1.091c-1.408 3.69-5.002 6.163-8.954 6.163m-7.472 2.12c-3.2 0-6.222 1.946-7.429 5.108l-.416 1.086a7.86 7.86 0 00.172 6.059 7.88 7.88 0 004.421 4.17 7.909 7.909 0 002.787.523h.043a7.98 7.98 0 007.421-5.108l.416-1.086a7.87 7.87 0 00-.172-6.06 7.876 7.876 0 00-4.421-4.17 7.895 7.895 0 00-2.822-.522m-.422 18.581h-.052a9.474 9.474 0 01-3.36-.63 9.511 9.511 0 01-5.332-5.031 9.493 9.493 0 01-.207-7.31l.417-1.088c1.882-4.928 7.424-7.416 12.36-5.528a9.507 9.507 0 015.332 5.031 9.493 9.493 0 01.207 7.31l-.415 1.087c-1.41 3.691-5.002 6.159-8.95 6.159m-7.474 2.123c-3.202 0-6.226 1.946-7.432 5.106l-.416 1.09a7.847 7.847 0 00.174 6.056 7.88 7.88 0 004.421 4.172 7.946 7.946 0 002.785.521H502.961a7.98 7.98 0 007.423-5.108l.416-1.09a7.863 7.863 0 00-.172-6.057 7.885 7.885 0 00-4.423-4.17 7.901 7.901 0 00-2.819-.52m-.425 18.581h-.05a9.564 9.564 0 01-3.36-.628 9.516 9.516 0 01-5.333-5.032 9.49 9.49 0 01-.208-7.31l.416-1.09c1.882-4.925 7.42-7.407 12.36-5.53a9.516 9.516 0 015.332 5.03 9.485 9.485 0 01.21 7.31l-.416 1.09c-1.408 3.69-5.002 6.16-8.95 6.16m-7.474 2.121c-3.203 0-6.228 1.947-7.432 5.106l-.415 1.09a7.866 7.866 0 00.172 6.059 7.88 7.88 0 004.424 4.17 7.929 7.929 0 002.784.522h.039c3.278 0 6.258-2.05 7.425-5.108l.416-1.09a7.861 7.861 0 00-.176-6.065 7.892 7.892 0 00-4.42-4.165 7.922 7.922 0 00-2.817-.519m-.428 18.582h-.048a9.486 9.486 0 01-3.356-.63 9.492 9.492 0 01-5.334-5.028 9.475 9.475 0 01-.209-7.309l.415-1.09c1.878-4.925 7.421-7.405 12.357-5.535a9.513 9.513 0 015.332 5.024 9.49 9.49 0 01.212 7.317l-.416 1.09c-1.407 3.689-5.001 6.16-8.953 6.16m-7.938 19.07c3.32-.045 6.295-2.039 7.466-5.11l.416-1.09a7.875 7.875 0 00-.174-6.06 7.891 7.891 0 00-4.424-4.168c-4.093-1.565-8.689.5-10.249 4.587l-.416 1.09a7.858 7.858 0 00.176 6.063 7.881 7.881 0 004.421 4.165c.898.34 1.835.516 2.784.523m.04 1.635h-.048a9.612 9.612 0 01-3.357-.628 9.525 9.525 0 01-5.332-5.024 9.492 9.492 0 01-.212-7.316l.416-1.091c1.881-4.93 7.427-7.41 12.359-5.532a9.494 9.494 0 015.333 5.027 9.485 9.485 0 01.21 7.31l-.415 1.091c-1.408 3.69-5.002 6.163-8.955 6.163m-7.472 2.12c-3.201 0-6.223 1.946-7.43 5.108l-.415 1.086a7.86 7.86 0 00.172 6.059 7.889 7.889 0 004.421 4.17 7.922 7.922 0 002.788.523h.043a7.98 7.98 0 007.42-5.106l.416-1.088a7.863 7.863 0 00-.172-6.06 7.88 7.88 0 00-4.422-4.17 7.89 7.89 0 00-2.82-.522m-.422 18.581h-.052a9.476 9.476 0 01-3.362-.63 9.504 9.504 0 01-5.33-5.029 9.497 9.497 0 01-.208-7.313l.417-1.087c1.88-4.928 7.424-7.409 12.359-5.528a9.5 9.5 0 015.332 5.03 9.49 9.49 0 01.208 7.31l-.416 1.088c-1.408 3.69-5.002 6.159-8.948 6.159" fill="#e8e8e4"/></g><g><path d="M558.174 360.895a8.768 8.768 0 01-3.07-.575c-4.522-1.718-6.791-6.77-5.07-11.284l.416-1.089c1.722-4.513 6.78-6.78 11.303-5.061 4.521 1.718 6.792 6.77 5.07 11.284l-.415 1.09c-1.338 3.503-4.687 5.654-8.234 5.635m-7.898 20.703a8.768 8.768 0 01-3.071-.575c-4.521-1.719-6.79-6.77-5.07-11.284l.417-1.09c1.721-4.513 6.781-6.78 11.302-5.06 4.522 1.718 6.792 6.77 5.07 11.283l-.415 1.091c-1.336 3.503-4.687 5.653-8.233 5.635m-7.899 20.702a8.755 8.755 0 01-3.07-.574c-4.522-1.719-6.791-6.77-5.07-11.284l.416-1.09c1.721-4.513 6.781-6.778 11.303-5.06 4.522 1.718 6.792 6.77 5.07 11.283l-.416 1.09c-1.336 3.505-4.685 5.654-8.233 5.635m-7.897 20.703a8.749 8.749 0 01-3.074-.576c-4.521-1.72-6.789-6.772-5.066-11.285l.416-1.088c1.724-4.514 6.784-6.78 11.305-5.058 4.521 1.72 6.788 6.772 5.065 11.286l-.414 1.088c-1.338 3.502-4.687 5.652-8.232 5.633m-7.899 20.704a8.783 8.783 0 01-3.073-.575c-4.52-1.72-6.79-6.772-5.067-11.285l.416-1.09c1.723-4.514 6.783-6.778 11.305-5.06 4.52 1.72 6.79 6.773 5.067 11.286l-.416 1.09c-1.336 3.503-4.685 5.653-8.232 5.634m-7.899 20.703a8.755 8.755 0 01-3.069-.575c-4.523-1.719-6.792-6.77-5.07-11.284l.415-1.09c1.722-4.513 6.782-6.777 11.303-5.06 4.523 1.718 6.792 6.77 5.07 11.283l-.415 1.091c-1.336 3.503-4.686 5.652-8.234 5.635m-7.897 20.702a8.757 8.757 0 01-3.07-.574c-4.522-1.719-6.793-6.77-5.07-11.284l.415-1.09c1.721-4.513 6.781-6.782 11.304-5.06 4.521 1.718 6.79 6.77 5.069 11.283l-.416 1.09c-1.336 3.503-4.685 5.654-8.232 5.635m-7.899 20.703a8.749 8.749 0 01-3.073-.576c-4.521-1.72-6.79-6.772-5.067-11.285l.416-1.088c1.724-4.515 6.786-6.779 11.306-5.058 4.521 1.72 6.79 6.772 5.066 11.286l-.416 1.088c-1.337 3.502-4.686 5.652-8.232 5.633" fill="#c60294"/></g><g><path d="M558.644 343.13c-3.202 0-6.224 1.947-7.431 5.107l-.415 1.09a7.865 7.865 0 00.176 6.065 7.881 7.881 0 004.42 4.164 7.907 7.907 0 002.784.52h.043c3.276 0 6.256-2.047 7.423-5.107l.414-1.089a7.866 7.866 0 00-.173-6.061 7.878 7.878 0 00-4.423-4.167 7.903 7.903 0 00-2.818-.521m-.423 18.581h-.052a9.547 9.547 0 01-3.355-.627 9.51 9.51 0 01-5.332-5.022 9.484 9.484 0 01-.212-7.318l.415-1.089c1.88-4.928 7.423-7.413 12.359-5.535a9.511 9.511 0 015.333 5.03 9.49 9.49 0 01.21 7.31l-.415 1.09c-1.408 3.69-5 6.161-8.951 6.161m-7.475 2.12c-3.201 0-6.226 1.948-7.43 5.107l-.416 1.09a7.854 7.854 0 00.173 6.06 7.874 7.874 0 004.423 4.168 7.91 7.91 0 002.784.523h.038c3.279 0 6.26-2.048 7.427-5.108l.416-1.09a7.858 7.858 0 00-.176-6.063 7.881 7.881 0 00-4.421-4.166 7.896 7.896 0 00-2.818-.52m-.428 18.582h-.046a9.526 9.526 0 01-3.358-.627 9.51 9.51 0 01-5.333-5.03 9.485 9.485 0 01-.21-7.311l.415-1.09c1.88-4.926 7.424-7.41 12.359-5.533a9.519 9.519 0 015.332 5.023 9.495 9.495 0 01.212 7.317l-.416 1.09c-1.407 3.689-5.001 6.16-8.955 6.16m-7.936 19.07c3.215.01 6.292-2.039 7.464-5.11l.416-1.09a7.869 7.869 0 00-.173-6.06 7.889 7.889 0 00-4.423-4.168c-4.094-1.559-8.69.504-10.249 4.587l-.416 1.09a7.862 7.862 0 00.176 6.064 7.885 7.885 0 004.42 4.164c.899.34 1.835.516 2.785.523m.039 1.635h-.048a9.64 9.64 0 01-3.356-.627 9.52 9.52 0 01-5.332-5.025 9.486 9.486 0 01-.212-7.316l.416-1.09c1.88-4.928 7.421-7.404 12.359-5.534a9.513 9.513 0 015.333 5.028 9.485 9.485 0 01.21 7.31l-.417 1.091c-1.408 3.69-5.002 6.163-8.953 6.163m-7.472 2.121c-3.2 0-6.223 1.947-7.43 5.107l-.415 1.086a7.866 7.866 0 00.17 6.06 7.883 7.883 0 004.423 4.168 7.878 7.878 0 002.785.524H534.526a7.98 7.98 0 007.422-5.106l.414-1.088a7.863 7.863 0 00-.17-6.06 7.884 7.884 0 00-4.422-4.17 7.894 7.894 0 00-2.821-.52m-.423 18.58h-.052a9.474 9.474 0 01-3.36-.632 9.511 9.511 0 01-5.332-5.03 9.481 9.481 0 01-.206-7.31l.417-1.088c1.881-4.928 7.424-7.416 12.359-5.528a9.503 9.503 0 015.332 5.031 9.49 9.49 0 01.208 7.31l-.416 1.087c-1.41 3.691-5.002 6.16-8.95 6.16m-7.474 2.122c-3.202 0-6.226 1.946-7.431 5.106l-.416 1.09a7.853 7.853 0 00.172 6.056 7.883 7.883 0 004.423 4.172 7.904 7.904 0 002.785.521H526.628a7.976 7.976 0 007.421-5.108l.416-1.09a7.863 7.863 0 00-.17-6.057 7.886 7.886 0 00-4.423-4.169 7.905 7.905 0 00-2.82-.521m-.424 18.581h-.052a9.551 9.551 0 01-3.358-.628 9.512 9.512 0 01-5.333-5.032 9.49 9.49 0 01-.208-7.31l.416-1.09c1.88-4.925 7.42-7.407 12.359-5.53a9.512 9.512 0 015.333 5.031 9.49 9.49 0 01.21 7.311l-.417 1.088c-1.409 3.69-5.002 6.16-8.95 6.16m-7.474 2.123c-3.202 0-6.228 1.946-7.432 5.104l-.414 1.09a7.867 7.867 0 00.172 6.062 7.882 7.882 0 004.422 4.166 7.94 7.94 0 002.784.523h.04c3.279 0 6.259-2.048 7.426-5.108l.416-1.09a7.861 7.861 0 00-.176-6.065 7.884 7.884 0 00-4.422-4.164 7.88 7.88 0 00-2.816-.518m-.428 18.58h-.048a9.531 9.531 0 01-3.357-.627 9.511 9.511 0 01-5.333-5.03 9.487 9.487 0 01-.21-7.309l.416-1.092c1.88-4.924 7.422-7.404 12.358-5.534a9.517 9.517 0 015.332 5.024 9.495 9.495 0 01.212 7.317l-.416 1.09c-1.407 3.689-5.002 6.16-8.954 6.16m-7.937 19.07c3.307-.025 6.293-2.039 7.464-5.11l.416-1.09a7.863 7.863 0 00-.173-6.06 7.885 7.885 0 00-4.423-4.168c-4.09-1.56-8.69.5-10.25 4.587l-.415 1.09a7.858 7.858 0 00.176 6.063 7.881 7.881 0 004.421 4.165c.897.34 1.835.516 2.784.523m.039 1.635h-.048a9.61 9.61 0 01-3.356-.628 9.512 9.512 0 01-5.332-5.024 9.492 9.492 0 01-.212-7.316l.416-1.09c1.881-4.929 7.426-7.414 12.358-5.533a9.507 9.507 0 015.334 5.027 9.491 9.491 0 01.21 7.31l-.416 1.091c-1.408 3.69-5.002 6.163-8.954 6.163m-7.472 2.12c-3.202 0-6.224 1.946-7.43 5.108l-.417 1.086a7.866 7.866 0 00.173 6.06 7.876 7.876 0 004.422 4.168 7.885 7.885 0 002.786.524h.043a7.98 7.98 0 007.421-5.106l.415-1.088a7.863 7.863 0 00-.17-6.06 7.88 7.88 0 00-4.422-4.17 7.89 7.89 0 00-2.821-.522m-.423 18.581h-.052a9.474 9.474 0 01-3.36-.63 9.504 9.504 0 01-5.33-5.029 9.488 9.488 0 01-.209-7.312l.418-1.088c1.878-4.926 7.424-7.41 12.358-5.528a9.509 9.509 0 015.332 5.03 9.49 9.49 0 01.208 7.31l-.416 1.088c-1.409 3.691-5 6.16-8.949 6.16" fill="#e8e8e4"/></g><g><path d="M1629.781 1402.73c-2.948 191.543-160.613 344.431-352.159 341.483-191.542-2.948-344.43-160.615-341.482-352.157 2.946-191.546 160.613-344.432 352.157-341.484 191.544 2.946 344.43 160.613 341.484 352.157" fill="#00ffce"/></g><g><path d="M1630.215 1368.413c-13.363-158.672-131.396-283.404-280.448-312.016 96.469 45.444 166.782 139.597 176.376 253.5 14.309 169.921-111.838 319.27-281.759 333.582-125.564 10.574-239.825-55.596-296.733-159.404 41.282 161.343 194.112 274.06 365.586 259.616 191.163-16.098 333.078-184.117 316.978-375.278" fill="#00edbf"/></g><g><path d="M1460.924 1553.932l-111.686-185.397a113.949 113.949 0 01-16.342-58.799v-97.728h.819c10.399 0 18.828-7.902 18.828-17.652 0-9.748-8.43-17.652-18.828-17.652h-1.637c-12.208 0-22.103 9.896-22.103 22.103v111.056c0 25.196 6.753 49.93 19.556 71.63l36.508 58.009c3.55 5.64-.504 12.982-7.17 12.982h-150.363c-6.64 0-10.699-7.293-7.198-12.936l36.666-59.106a140.967 140.967 0 0017.972-68.876V1199.68c0-10.142-6.502-19.393-16.262-22.152-12.888-3.642-24.67 5.303-24.67 16.828 0 9.75 8.43 17.652 18.829 17.652h.819v97.728c0 20.722-5.651 41.05-16.343 58.799l-111.685 185.397c-15.699 29.879 7.496 64.83 43.022 64.83H1417.9c35.527 0 58.722-34.951 43.024-64.83" fill="#299c82"/></g></svg>