<svg xmlns="http://www.w3.org/2000/svg" viewBox="0 0 466.821 480.81" height="1817.233" width="1764.365"><defs><clipPath clipPathUnits="userSpaceOnUse" id="a"><path d="M0 1920h1920V0H0z"/></clipPath><clipPath clipPathUnits="userSpaceOnUse" id="b"><path d="M574.185 873.813c-.707-45.904 35.933-83.688 81.836-84.394 45.902-.707 83.686 35.932 84.393 81.835.706 45.904-35.933 83.687-81.835 84.394-.437.007-.87.01-1.305.01-45.31-.002-82.39-36.38-83.089-81.845"/></clipPath><clipPath clipPathUnits="userSpaceOnUse" id="c"><path d="M719.247 1418.94h44.333v-44.64h-44.333z"/></clipPath><clipPath clipPathUnits="userSpaceOnUse" id="d"><path d="M795.213 1406.6h44.333v-44.64h-44.333z"/></clipPath><clipPath clipPathUnits="userSpaceOnUse" id="e"><path d="M775.702 1580.88h44.333v-44.64h-44.333z"/></clipPath><clipPath clipPathUnits="userSpaceOnUse" id="f"><path d="M859.056 1566.7h44.333v-44.64h-44.333z"/></clipPath><clipPath clipPathUnits="userSpaceOnUse" id="g"><path d="M802.601 1534.08h44.333v-44.64h-44.333z"/></clipPath><clipPath clipPathUnits="userSpaceOnUse" id="h"><path d="M833.08 1613.51h44.333v-44.64H833.08z"/></clipPath><clipPath clipPathUnits="userSpaceOnUse" id="i"><path d="M429.634 1468.72h44.333v-44.64h-44.333z"/></clipPath></defs><g clip-path="url(#a)" transform="matrix(.35278 0 0 -.35278 -105.256 660.065)"><path d="M964.92 530.625c-81.972 0-161.512 15.622-236.603 46.449-39.897-13.498-78.32-21.413-114.303-23.54a337.37 337.37 0 00-19.713-.591c-57.264-.002-106.661 15.397-146.818 45.768-44.773 33.861-74.653 83.635-88.81 147.938-12.99 58.998-12.163 127.982 2.454 205.035a789.448 789.448 0 005.399 26.01c-16.861 57.179-25.406 116.602-25.406 176.731 0 18.588.829 37.322 2.466 55.804l-19.283 30.747a22.499 22.499 0 00-2.024 19.809l185.957 499.142c3.32 8.915 11.812 14.647 21.072 14.647 1.216 0 2.444-.098 3.677-.302l213.749-35.284c69.72 26.041 143.09 39.238 218.187 39.238 2.502 0 5.066-.018 7.746-.053a790.819 790.819 0 0022.307 11.598c70.164 35.045 136.317 54.622 196.62 58.187 6.637.392 13.268.591 19.712.591 57.268 0 106.666-15.398 146.82-45.767 44.773-33.86 74.652-83.634 88.81-147.939 7.67-34.84 10.537-73.505 8.539-115.052a628.641 628.641 0 0036.656-51.809l15.012-3.262c.48-.104.956-.224 1.426-.359.483-.072.964-.161 1.444-.265l19.193-4.171a22.5 22.5 0 005.32-1.881 22.489 22.489 0 005.622-.498l19.194-4.171c.483-.105.96-.225 1.429-.359a23.2 23.2 0 001.44-.265l19.194-4.171c12.144-2.639 19.848-14.622 17.208-26.765l-23.507-108.167a23.408 23.408 0 00-.307-1.241 23.782 23.782 0 00-.238-1.27l-.937-4.305a22.348 22.348 0 00-.69-2.481 22.502 22.502 0 00-.401-2.54l-2.806-12.916a23.485 23.485 0 00-.142-.609c12.7-50.063 19.137-101.798 19.137-153.861 0-89.434-18.492-175.655-54.975-256.41 7.007-25.678 10.348-52.223 9.936-79.031-1.153-74.881-31.183-145.043-84.56-197.557-53.313-52.453-123.843-81.345-198.573-81.345h-.014c-1.472 0-2.961.011-4.438.034-34.86.536-68.706 7.301-100.75 20.123-61.365-19.654-125.383-29.614-190.427-29.614" fill="#e8e9e4"/><path d="M1211.308 1871.05c-6.884 0-13.963-.213-21.041-.63-63.357-3.746-132.446-24.108-205.347-60.519a799.898 799.898 0 01-17.807-9.18c-.736.003-1.466.005-2.192.005-75.761 0-149.837-12.97-220.384-38.57l-207.888 34.315a45.127 45.127 0 01-7.355.604c-18.521.001-35.5-11.463-42.143-29.293L301.195 1268.64a45.001 45.001 0 014.046-39.62l15.305-24.402a657.471 657.471 0 01-1.925-50.193c0-60.318 8.305-119.965 24.696-177.479a803.639 803.639 0 01-4.296-21.069c-15.187-80.057-15.968-152.08-2.321-214.066 7.496-34.047 19.347-64.81 35.224-91.433 16.387-27.478 37.242-50.899 61.988-69.614 44.148-33.39 98.108-50.32 160.38-50.32 6.893 0 13.972.211 21.049.63 35.566 2.101 73.253 9.513 112.217 22.056a643.658 643.658 0 01104.5-31.32c43.429-9.08 88.13-13.686 132.863-13.686 64.688 0 128.413 9.515 189.672 28.3 32.335-11.952 66.283-18.27 101.159-18.806 1.583-.024 3.195-.036 4.785-.036 40.757 0 80.37 7.92 117.74 23.54 36.114 15.093 68.623 36.717 96.627 64.268 28.025 27.572 50.182 59.75 65.858 95.638 16.237 37.178 24.789 76.748 25.419 117.61.402 26.196-2.517 52.163-8.69 77.417a643.365 643.365 0 0138 116.057c10.438 46.433 15.73 94.314 15.73 142.313 0 52.127-6.23 103.945-18.53 154.192l1.829 8.415c.182.84.34 1.681.474 2.525.229.825.435 1.657.617 2.497l.936 4.305c.092.421.176.84.255 1.261.103.414.2.831.29 1.25l23.509 108.166c5.278 24.285-10.13 48.252-34.416 53.53l-19.194 4.172c-.478.104-.958.2-1.438.288-.475.12-.953.231-1.433.336l-19.194 4.171a45.402 45.402 0 01-5.56.853 44.746 44.746 0 01-5.381 1.525l-19.194 4.172c-.481.105-.962.201-1.445.29-.473.118-.947.23-1.425.333l-5.92 1.287a651.638 651.638 0 01-27.712 39.097c1.34 40.381-1.804 78.18-9.38 112.591-7.495 34.047-19.347 64.81-35.224 91.433-16.386 27.478-37.242 50.9-61.987 69.614-44.15 33.39-98.113 50.321-160.39 50.321m19.38-177.104c-.205.102-.412.202-.62.304.208-.102.415-.202.62-.304m-6.491 3.156l-.341.162.34-.162m-12.888 128.948c52.282 0 97.039-13.829 133.246-41.213 40.38-30.54 67.435-75.904 80.408-134.83 7.786-35.369 10.303-74.703 7.568-117.533a602.67 602.67 0 0049.467-70.969l1.174 5.4 19.194-4.17-5.87-27.01c.714-1.347 1.419-2.7 2.125-4.054l6.614 30.44 19.194-4.172-11.907-54.785a594.375 594.375 0 007.644-17.554l15.205 69.96 19.194-4.17-21.587-99.327c.62-1.782 1.237-3.566 1.84-5.356l22.617 104.058 19.194-4.17-23.508-108.168-16.765 3.644c.309-.943.62-1.886.925-2.83l15.293-3.325-.935-4.305-12.82 2.787a565.092 565.092 0 001.73-5.637l9.998-2.172-2.807-12.916-3.022.658c.566-2.058 1.12-4.119 1.665-6.186l.149-.032-.064-.292c12.883-48.97 19.755-100.379 19.755-153.395 0-91.01-20.223-177.299-56.415-254.618 7.789-25.419 11.81-52.462 11.378-80.477-2.194-142.634-118.5-256.748-260.648-256.748-1.357 0-2.73.01-4.093.031-35.605.547-69.428 8.217-100.148 21.615-60.115-20.169-124.467-31.104-191.375-31.104-84.77 0-165.442 17.552-238.586 49.203-.017.01-.033.015-.05.022.018-.01.032-.014.05-.022.072-.03.144-.063.216-.094.894-.387.849-1.673-.071-1.995-39.971-13.999-78.047-22.13-113.795-24.243a312.453 312.453 0 00-18.384-.55h-.01c-52.281 0-97.03 13.827-133.235 41.211-40.382 30.54-67.435 75.904-80.41 134.831-12.33 56.01-11.461 121.955 2.587 196.003a775.03 775.03 0 006.552 30.983c-17.005 55.654-26.164 114.733-26.164 175.952a608.34 608.34 0 003.085 61.286l-23.342 37.22 185.956 499.141 219.726-36.27c67.005 25.782 139.787 39.924 215.875 39.924 4.442 0 8.87-.058 13.29-.155a773.638 773.638 0 0026.817 14.072c67.426 33.677 130.643 52.47 187.895 55.854a311.66 311.66 0 0018.385.552" fill="#e8e9e4"/><path d="M1566.221 1154.425c0-332.089-269.21-601.3-601.3-601.3s-601.3 269.211-601.3 601.3c0 332.09 269.21 601.301 601.3 601.301s601.3-269.212 601.3-601.3" fill="#0e2d6d"/><path d="M1051.958 1665.799l119.053-189.821-44.185-118.601-119.053 189.82zM949.611 1278.75l119.053-189.82-39.425 6.507-119.053 189.82z" fill="#968f9e"/><path d="M1047.197 1540.69l119.053-189.82-97.586-261.94-119.053 189.82z" fill="#6e6975"/><path d="M866.001 1166.657l119.053-189.821-522.638 86.274-119.053 189.82z" fill="#968f9e"/><path d="M910.187 1285.258l119.053-189.821-44.185-118.601-119.053 189.82z" fill="#6e6975"/><path d="M1007.773 1547.198l39.424-6.508-97.586-261.94-39.424 6.508-44.185-118.601-522.64 86.273 185.958 499.143 522.638-86.274z" fill="#c6bece"/><path d="M930.897 1484.237c14.431 8.473 20.599 25.03 13.779 36.985l-35.857 63.064c-3.393 5.988-9.387 9.692-16.339 10.839-6.951 1.148-14.859-.261-22.073-4.497l-75.97-44.605c-14.396-8.453-20.565-25.01-13.779-36.985l35.858-63.064c3.409-5.978 9.414-9.677 16.364-10.824 6.952-1.148 14.85.256 22.048 4.483l75.969 44.604M833.13 1319.662c15.983-2.638 33.6 7.687 39.334 23.075 5.732 15.388-2.587 30.02-18.57 32.658l-81.53 13.459c-16.007 2.642-33.608-7.711-39.341-23.1-5.733-15.387 2.57-29.991 18.578-32.634l81.53-13.458M703.95 1482.983l51.088 137.13c4.78 12.831-2.135 25.035-15.463 27.235l-142.425 23.51c-13.327 2.2-28.007-6.438-32.787-19.27l-38.553-103.48c-5.469-14.683-15.516-28.248-28.772-38.827-14.284-11.392-25.102-26.019-30.998-41.844l-20.219-54.273c-5.47-14.682 2.461-28.63 17.734-31.15 15.25-2.519 32.051 7.346 37.521 22.028l24.356 65.376c3.565 9.57 14.492 15.984 24.43 14.343l121.308-20.025c13.328-2.199 28 6.415 32.78 19.247" fill="#5f6273"/><path d="M601.904 1642.995l120.195-20.998c7.334-1.189 11.762-8.774 9.191-15.746l-43.709-117.07a11.812 11.812 0 00-13.039-7.56l-121.11 20.355c-7.344 1.234-11.727 8.873-9.088 15.835l44.625 117.712a11.812 11.812 0 0012.935 7.472" fill="#dbdcdd"/><path d="M828.24 1544.717c12.77-2.108 19.394-13.798 14.812-26.094-4.58-12.296-18.643-20.572-31.413-18.463-12.796 2.112-19.42 13.802-14.839 26.098 4.581 12.296 18.643 20.571 31.44 18.46M868.273 1533.431c-12.771 2.108-19.43 13.777-14.85 26.074 4.581 12.296 18.67 20.567 31.44 18.46 12.771-2.109 19.394-13.799 14.814-26.096-4.58-12.295-18.634-20.546-31.405-18.438M854.965 1497.712c12.771-2.108 19.395-13.8 14.813-26.094-4.58-12.297-18.643-20.572-31.414-18.464-12.77 2.108-19.42 13.803-14.838 26.099 4.58 12.295 18.668 20.567 31.44 18.459M911.59 1530.958c12.77-2.108 19.419-13.803 14.838-26.099-4.581-12.295-18.667-20.566-31.438-18.458-12.771 2.107-19.42 13.802-14.84 26.098 4.582 12.296 18.669 20.567 31.44 18.46M772.013 1381.96c12.77-2.107 19.395-13.798 14.814-26.093-4.58-12.297-18.644-20.572-31.414-18.464-12.796 2.113-19.42 13.803-14.839 26.099 4.581 12.295 18.643 20.57 31.44 18.459M846.816 1371.145c12.77-2.108 19.42-13.803 14.839-26.1-4.581-12.295-18.668-20.566-31.44-18.458-12.77 2.108-19.42 13.803-14.838 26.099 4.58 12.295 18.668 20.567 31.439 18.459" fill="#adaeb1"/><path d="M600.274 1358.1c13.225-2.183 27.76 6.35 32.495 19.06 4.735 12.71-2.116 24.8-15.342 26.983-13.2 2.18-27.743-6.379-32.479-19.089-4.735-12.71 2.125-24.775 15.326-26.954" fill="#606060"/><path d="M602.344 1363.65c10.037-1.656 21.066 4.82 24.66 14.465 3.593 9.646-1.606 18.82-11.642 20.477-10.018 1.654-21.055-4.84-24.648-14.486-3.594-9.645 1.612-18.802 11.63-20.455" fill="#656769"/><path d="M873.54 1547.594c-4.648.767-7.07 5.014-5.404 9.49 1.667 4.473 6.794 7.484 11.441 6.716 4.648-.767 7.058-5.02 5.391-9.496-1.667-4.475-6.78-7.477-11.429-6.71" fill="#949698"/><path d="M868.538 1550.828l-23.301 39.187 15.994 9.566 23.348-39.033z" fill="#949698"/><path d="M866.58 1571.914c-10.757-6.435-24.694-2.93-31.13 7.828-6.433 10.758-2.93 24.695 7.829 31.13 10.758 6.434 24.696 2.93 31.13-7.828 6.435-10.758 2.93-24.695-7.828-31.13" fill="#dbdadb"/><path d="M815.851 1515.12c-4.647.768-7.07 5.015-5.403 9.49 1.667 4.474 6.794 7.485 11.441 6.718 4.648-.768 7.058-5.022 5.391-9.497-1.667-4.475-6.78-7.477-11.429-6.71" fill="#949698"/><path d="M810.85 1518.354l-23.301 39.187 15.994 9.566 23.348-39.033z" fill="#949698"/><path d="M808.893 1539.44c-10.758-6.435-24.695-2.93-31.13 7.828-6.434 10.758-2.93 24.695 7.828 31.13 10.758 6.435 24.696 2.93 31.13-7.828 6.435-10.758 2.93-24.695-7.828-31.13" fill="#dbdadb"/><path d="M899.577 1501.027c-4.647.768-7.071 5.014-5.404 9.489 1.668 4.475 6.794 7.485 11.442 6.718 4.647-.768 7.058-5.022 5.39-9.497-1.666-4.475-6.781-7.477-11.428-6.71" fill="#949698"/><path d="M894.575 1504.26l-23.3 39.188 15.993 9.566 23.347-39.033z" fill="#949698"/><path d="M892.618 1525.347c-10.758-6.435-24.695-2.93-31.13 7.828-6.434 10.758-2.93 24.695 7.828 31.13 10.758 6.435 24.696 2.93 31.13-7.828 6.435-10.758 2.93-24.695-7.828-31.13" fill="#dbdadb"/><path d="M843.205 1467.792c-4.647.767-7.07 5.014-5.403 9.488 1.667 4.475 6.794 7.485 11.441 6.718 4.648-.767 7.058-5.021 5.391-9.496-1.667-4.475-6.78-7.478-11.429-6.71" fill="#949698"/><path d="M838.204 1471.025l-23.301 39.187 15.994 9.566 23.348-39.033z" fill="#949698"/><path d="M836.247 1492.111c-10.758-6.435-24.695-2.93-31.13 7.828-6.434 10.757-2.93 24.695 7.828 31.13 10.758 6.434 24.696 2.93 31.13-7.829 6.435-10.757 2.93-24.694-7.828-31.129" fill="#dbdadb"/><path d="M835.003 1340.839c-4.647.767-7.07 5.014-5.404 9.489 1.668 4.474 6.794 7.485 11.442 6.717 4.647-.767 7.058-5.021 5.391-9.496-1.667-4.475-6.782-7.477-11.429-6.71" fill="#949698"/><path d="M830.002 1344.073l-23.301 39.186 15.994 9.567 23.347-39.033z" fill="#949698"/><path d="M828.045 1365.159c-10.758-6.435-24.695-2.93-31.13 7.828-6.434 10.758-2.93 24.695 7.828 31.13 10.758 6.434 24.695 2.93 31.13-7.828 6.435-10.758 2.93-24.695-7.828-31.13" fill="#dbdadb"/><path d="M759.662 1352.78c-4.647.767-7.07 5.013-5.404 9.488 1.668 4.475 6.794 7.485 11.442 6.718 4.647-.768 7.058-5.022 5.391-9.497-1.667-4.475-6.782-7.477-11.429-6.71" fill="#949698"/><path d="M754.66 1356.013l-23.3 39.187 15.994 9.566 23.347-39.033z" fill="#949698"/><path d="M752.704 1377.1c-10.758-6.436-24.695-2.93-31.13 7.827-6.434 10.758-2.93 24.695 7.828 31.13 10.758 6.435 24.695 2.93 31.13-7.828 6.435-10.758 2.93-24.695-7.828-31.13" fill="#dbdadb"/><path d="M482.09 1432.25c12.77-2.107 19.396-13.798 14.814-26.093-4.58-12.297-18.643-20.572-31.413-18.464-12.796 2.113-19.421 13.803-14.84 26.099 4.58 12.295 18.644 20.57 31.44 18.459" fill="#adaeb1"/><path d="M469.74 1403.069c-4.647.768-7.071 5.014-5.404 9.489 1.667 4.475 6.794 7.485 11.442 6.718 4.647-.768 7.058-5.022 5.39-9.497-1.666-4.475-6.781-7.477-11.428-6.71" fill="#831623"/><path d="M464.738 1406.303l-23.301 39.187 15.995 9.566 23.347-39.033z" fill="#831623"/><path d="M462.781 1427.389c-10.758-6.435-24.695-2.93-31.13 7.828-6.434 10.758-2.93 24.695 7.828 31.13 10.758 6.435 24.695 2.93 31.13-7.828 6.434-10.758 2.93-24.695-7.828-31.13" fill="#d32027"/><path d="M423.225 1187.802l77.818-12.231-35.989-102.073-75.62 12z" fill="#c6bece"/><path d="M389.435 1085.499l10.995-17.964 79.18-11.294-14.556 17.258z" fill="#968f9e"/><path d="M501.043 1175.57l13.334-26.8-34.768-92.53-14.555 17.258z" fill="#6e6975"/><path d="M534.597 1171.858L607 1160.252a5.784 5.784 0 004.09-2.812l10.02-17.301c1.24-2.14-.543-4.763-2.989-4.4l-70.122 10.415a6.305 6.305 0 00-4.486 3L532.12 1168.2c-1.063 1.777.434 3.987 2.478 3.659" fill="#5f6273"/><path d="M726.55 602.233a596.258 596.258 0 00-21.798 9.937 1.063 1.063 0 01-.774.056c-32.343-10.109-63.224-16.067-92.383-17.79-55.718-3.298-102.62 9.138-139.397 36.952-36.777 27.815-61.51 69.557-73.511 124.07-11.791 53.558-10.885 117.01 2.694 188.59l.027.143c7.225 38.042 18.558 79.502 32.44 119.721 1.557 4.512-2.771 10.16-10.16 10.16-5.542 0-7.092-3.61-8.286-7.082-10.338-30.038-18.894-59.587-25.617-88.517a774.658 774.658 0 01-6.552-30.983c-14.048-74.048-14.917-139.993-2.586-196.003 12.973-58.927 40.027-104.29 80.408-134.83 36.209-27.386 80.959-41.216 133.246-41.214 6.026 0 12.16.185 18.384.552 35.748 2.113 73.824 10.244 113.796 24.244.919.322.964 1.607.07 1.994M1424.961 1650.006c-12.973 58.927-40.026 104.29-80.408 134.83-40.383 30.542-91.398 44.222-151.63 40.66-57.253-3.383-120.47-22.175-187.896-55.853a772.654 772.654 0 01-26.816-14.071 607.825 607.825 0 0036.252-1.87c64.732 32.184 125.136 50.139 179.55 53.356a292.41 292.41 0 0017.234.517c48.21 0 89.242-12.573 122.163-37.471 36.777-27.814 61.51-69.557 73.511-124.07 6.225-28.275 8.908-59.31 8.06-92.841-.76-29.981-4.344-61.958-10.753-95.748a750.857 750.857 0 00-4.344-21.187l17.492-6.425a771.126 771.126 0 015 24.169c5.176 27.289 8.557 53.474 10.153 78.47 2.735 42.83.22 82.166-7.568 117.534" fill="#ec008c"/><path d="M740.564 879.245c3.853-45.744-30.107-85.95-75.85-89.802-45.745-3.852-85.95 30.107-89.803 75.85-3.853 45.745 30.107 85.95 75.851 89.803 45.745 3.853 85.95-30.107 89.803-75.851" fill="#d32027"/><path d="M871.096 848.105a8.784 8.784 0 10-16.35 6.427 8.784 8.784 0 0016.35-6.427M909.903 710.086a4.83 4.83 0 10-8.992 3.534 4.83 4.83 0 008.992-3.534M735.04 718.644a3.042 3.042 0 10-5.662 2.224 3.042 3.042 0 005.662-2.224M1248.431 1587.095a8.783 8.783 0 00-11.388-4.961 8.783 8.783 0 106.426 16.349 8.784 8.784 0 004.962-11.388M1212.19 1151.654a4.83 4.83 0 10-8.992 3.534 4.83 4.83 0 008.992-3.534M1154.858 1664.576a3.043 3.043 0 10-5.664 2.226 3.043 3.043 0 005.664-2.226M1472.396 1081.127a4.83 4.83 0 10-8.993 3.534 4.83 4.83 0 008.993-3.534M1350.662 1164.905a3.042 3.042 0 10-5.663 2.225 3.042 3.042 0 005.663-2.225M510.396 944.686a4.83 4.83 0 10-8.992 3.534 4.83 4.83 0 008.992-3.534" fill="#ffcd34"/><path d="M731.361 878.47c3.425-40.661-26.762-76.4-67.423-79.824-40.66-3.425-76.4 26.76-79.824 67.423-3.424 40.66 26.762 76.4 67.423 79.824 40.661 3.425 76.4-26.762 79.824-67.423" fill="#ed8a22"/><path d="M722.159 877.695c2.996-35.58-23.417-66.85-58.995-69.846-35.58-2.997-66.85 23.416-69.846 58.995-2.997 35.579 23.416 66.85 58.995 69.846 35.578 2.997 66.849-23.416 69.846-58.995" fill="#f3cb17"/><path d="M740.414 871.254c-.707-45.903-38.49-82.542-84.394-81.835-45.902.706-82.542 38.49-81.835 84.393.706 45.903 38.491 82.542 84.394 81.836 45.902-.707 82.541-38.49 81.835-84.394" fill="#1fc3f3"/></g><g clip-path="url(#b)" transform="matrix(.35278 0 0 -.35278 -105.256 660.065)"><path d="M582.362 820.826c3.846 1.583 4.013 2.07 5.488 4.284 1.474 2.212 4.642 3.283 6.293 5.018 1.652 1.735 2.15 2.847 2.503 5.082.355 2.235.205 2.884 2.174 6.05 1.968 3.168 1.651 3.354 4.082 5.306 2.43 1.952-.43 3.28 3.562 2.737 3.992-.544 7.33-2.036 12.466-.994 5.137 1.04 5.484 2.796 9.811 3.209 4.327.413 5.77.552 9.29.497 3.52-.054 6.428 1.822 8.81.665 2.383-1.157 3.764-2.984 3.426-6.122-.337-3.137-3.492-4.545-1.328-6.285 2.165-1.74 1.473-1.89 3.8-3.046 2.328-1.156 6.237-2.656 8.741-3.335 2.504-.678 1.97-.35 5.565-2.646 3.594-2.295 4.154-3.501 6.15-2.655 1.994.847 3.125-.505 5.027 1.375 1.903 1.879.135 2.04 1.692 4.11 1.557 2.069 3.034 4.446 5.254 3.132 2.22-1.314.265-.964 3.46-2.613 3.195-1.65-2.292-1.711 4.367-1.981 6.66-.27 5.254-.467 9.56-.264 4.304.204 4.144.206 5.751.662 1.607.455.658 3.064 3.451 1.644 2.793-1.42 5.191-1.566 7.143.459 1.951 2.024 1.98 3.903 3.925 5.494 1.945 1.59 2.613 3.5 3.21 5.89.598 2.392.791 4.63.101 6.56-.69 1.932.697 5.094-2.756 2.82-3.453-2.272-4.867-3.231-7.419-3.247-2.553-.016-4.813 3.349-7.46.685-2.647-2.664-3.43-.33-6.582 1.385-3.15 1.714-.137 5.933-3.486 8.706-3.348 2.772-4.793 4.394-6.236 4.256-1.442-.138-2.91-.275-3.824-.688-.913-.413-3.15-.23-3.395-2.22-.243-1.992-.222-2.312.347-3.441.57-1.13 3.277-1.97 3.581-3.015.304-1.045.002-1.618-.269-1.885-.27-.267-.71-1.06-2.207-1.331-1.498-.27-1.374-1.017-1.945-1.596-.57-.58-1.642-.99-1.912.562-.269 1.55-1.368 1.195-1.237 2.766.13 1.572-1.593 3.038-2.62 5.135-1.029 2.096-1.778 1.947-1.744 4.213.036 2.267-.578 4.037-2.157 5.394-1.579 1.358-3.229 1.597-4.437 2.789-1.209 1.192-2.852 1.857-3.38 2.239-.527.382-2.327 3.243-3.657 3.838-1.33.595-2.014 1.957-2.64 2.926-.625.97-.502-.077-1.716.01-1.216.089-2.304-.537-2.5-.917-.199-.38-.229-1.613-.037-2.295.193-.682 1.705-2.946 3.06-4.993 1.356-2.048 3.377-5.867 5.288-6.483 1.911-.616 4.094-.863 5.413-1.79 1.32-.927 2.911-1.485 3.27-2.504.357-1.02.24-1.711-.346-1.648-.586.062-1.739 2.178-2.467 2.246-.728.068-1.186-.403-1.567-.931-.382-.527-.794-1.321-.374-1.754.42-.433 1.165-.551 1.202-1.592.038-1.041-.572-2.525-.845-2.947-.273-.423-1.275-1.276-1.543-1.47-.267-.195-1.61-1.33-1.587-.184.024 1.147.475 2.249.931 2.647.457.399.216 1.89-.249 2.83-.466.942-.904 1.909-1.325 2.315-.42.407-5.067 3.496-5.54 3.9-.474.407-5.158 2.799-6.878 5.386-1.72 2.587-4.424 6.269-6.025 5.794-1.6-.476-3.498-2.447-5.964-3.263-2.467-.815-6.69.976-8.093.508-1.402-.468-2.648-1.73-2.833-3.38-.186-1.651-1.438-3.285-2.462-4.016-1.025-.731-3.158-.698-5.172-3.334s-1.429-2.752-2.37-4.924c-.94-2.172-1.447-3.978-3.33-5.07-1.885-1.091-4.937-1.844-7.39-1.86-2.455-.015-3.112-1.125-5.016-.082s-2.822 1.438-4.979 2.8c-2.158 1.364-2.699 2.702-2.944 4.948-.244 2.245 2.053 4.454 1.454 8.62-.599 4.166-.722 5.078.308 6.183 1.031 1.104 6.424 1.5 10.95.898 4.524-.603 8.114-2.952 9.454.868 1.34 3.82 2.18 6.474.922 7.934-1.258 1.459-2.974 4.366-5.208 4.72-2.235.355-4.519.976-3.327 2.185 1.192 1.208 4.39.999 6.204 1.13 1.816.134 1.386-.127 3.06 1.128 1.671 1.254 3.382 1.494 4.57 2.383 1.186.889 2.374 1.83 3.722 2.77 1.348.939 6.774 3.469 8.69 6.534 1.913 3.064 6.395 3.945 8.054 3.556 1.66-.39 2.67.178 2.913 2.119.243 1.94-1.603 3.248-1.37 4.525.233 1.276-.22 2.99.75 3.669.97.678 3.725 2.93 4.251 2.44.526-.487 1.256-1.565.384-2.725-.87-1.16-2.344-1.99-1.848-3.358.496-1.368-.374-3.467.626-3.813 1-.346 1.45-.525 2.48-1.223 1.031-.698 2.187.466 4.06.34 1.871-.125 2.322-1.611 9.381-.386 7.06 1.224 7.528.476 9.791 1.906 2.262 1.429 1.092 5.127 2.234 6.496 1.141 1.37 2.488 2.255 3.541 1.386 1.054-.87 2.841-1.935 3.878-.74 1.037 1.198-.997 4.269 1.156 5.516 2.153 1.247 2.133-.086 5.93.603 3.798.688 7.547 1.697 4.683 2.7-2.866 1.005-4.775 1.728-7.39 1.608-2.616-.12-9.046-1.994-11.172 1.932-2.126 3.927-2.538 4.894-1.125 6.579 1.413 1.685 3.7 3.97 6.354 5.276 2.655 1.306 35.77.743 52.632-5.757 16.862-6.5 22.3-27.476 25.603-31.243 3.302-3.767 5.372-20.04 1.498-22.221-3.874-2.18-5.436-2.763-7.48-4.11-2.045-1.344-6.832.246-4.839-3.183 1.993-3.43 3.325-5.21 4.985-6.516 1.661-1.305 5.832-2.215 4.651-5.533-1.18-3.317-3.213-4.653.481-6.55 3.695-1.894 4.47-3.587 4.47-3.587s-1.659-14.134-4.87-15.317c-3.213-1.183-3.184-1.57-4.996-2.556-1.81-.986-1.812-2.043-.938-3.003.874-.96 2.52-2.68 2.51-3.32-.01-.64-18.433-33.16-23.519-36.122-5.086-2.962-6.617-3.597-6.429-1.831.187 1.767.476 4.963-.362 7.697-.838 2.733-1.39 8.422-2.92 12.926-1.532 4.504-7.855-.84-6.573-5.9 1.282-5.06-.949-2.56.366-9.093 1.314-6.534.934-6.84 1.127-8.292.193-1.451 1.051-9.297 1.051-9.297s-108.758-38.331-117.835-25.07c-9.077 13.26-13.052 41.393-15.897 47.242-2.845 5.849-5.027 16.406-5.027 16.406" fill="#00934a"/><path d="M647.714 867.769c.426-.037.88-.021 1.154-1.252.275-1.231.138-3.176-.116-4.079-.254-.903.214-1.657-.294-1.756-.508-.099-1.331.123-1.575-.124-.244-.248-1.752-.688-1.425.971.326 1.658.102 1.465.198 2.53.097 1.065-.671 1.451-.582 1.982.088.533 1.694 1.811 2.64 1.728M656.941 855.618s.841-.813 1.131-1.031c.29-.218 1.06-.47 1.88-.935.82-.467 1.694-.8 2.196-1.075.502-.274.635-.303 1.222-.312.587-.008.993.385 1.001.918.008.534-.149 2.456.177 2.852.327.395.548.924.414.873-.134-.051-2.279-.765-2.706-.758-.426.006-1.492.05-1.943.19-.452.14-1.218.614-1.593.535-.374-.078-.156-.1-.682-.283-.525-.182-1.62-.272-1.097-.974M616.528 926.115c-.094-.879-.041-2.019.664-3.34.704-1.322.715-.602 1.088-2.368.373-1.766 1.152-3.157 1.704-3.676.552-.519.949-.702 2.2-2.513 1.254-1.81 1.15-2.212 2.42-4.034 1.269-1.822 3.167-2.164 3.145-3.604-.023-1.44.97-4.496-1.924-5.41-2.894-.917-3.482-1.015-4.955-1.419-1.474-.404-6.084-.9-6.911-1.405-.827-.502-3.833-.619-3.833-.619s-.223.257.836 1.773c1.06 1.516.406 2.095 2.155 1.966 1.749-.129 2.778.958 2.793.963.015.007-.39.136-1.692.458-1.303.323-2.521.675-1.351 1.863 1.17 1.19.339 2.408 1.378 2.998 1.039.59 2.785.122 2.879 1.591.093 1.47 1.762-.322.467 1.8-1.294 2.122-1.363 1.808-2.37 2.834-1.007 1.027-1.71 1.334-1.988 2.405-.28 1.071.373 1.861.149 2.904-.224 1.044.11 1.357-.63 2.97-.74 1.612-.4 2.887-.076 3.122.324.235 3.852.741 3.852.741" fill="#00934a"/><path d="M598.865 902.323c1.258-.752 2.493-.137 3.382.489.89.627 1.069 1.852 2.99 1.888 1.92.037 1.73-1.82 2.88.133 1.153 1.95.819 5.386.819 5.386s.136 1.698 1.453 1.73c1.318.032 1.1 1.878.208 2.114-.892.236-2.213.56-2.935.339-.722-.221-1.173-.225-2.858-1.412-1.684-1.186-1.44-2.266-2.198-2.467-.76-.201-1.564-1.245-2.192-2.085-.63-.84-1.426-2.465-1.692-3.345-.266-.88-1.537-1.765.143-2.77M643.631 940.42c-.153-1.448-.673-2.32-.965-2.991-.292-.67-1.672.095-1.93-2.153-.259-2.25-1.43-2.31-.267-3.968 1.163-1.66-.487-2.59.31-3.763.795-1.175 1.823-3.354 2.21-2.966.388.388 1.696 1.183 3.376 1.157 1.68-.026 2.45 1.994 4.282 2.198 1.832.205 1.796 1.578 2.727.895.93-.684 1.455-4.183 2.242-5.076.786-.892 1.362-2.426 2.03-3.231.67-.805-.393-3.665 1.79-3.308 2.183.357 2.01.92 3.495 1.102 1.485.182 2.48-.554 3.252 1.754.773 2.309 1.061 5.038 1.245 5.607.184.57 1.19 2.182 2.42 2.658 1.231.476 1.532.923.921 2.626-.612 1.703-2.758.473-2.677 2.842.081 2.368.257 4.847.257 4.847s.691 1.139 2.078 2.078c1.387.939 4.03 1.058 5.163 2 1.135.943 1.047 5.665 1.135 6.144.087.479-15.776-.878-15.776-.878z" fill="#00934a"/></g><path d="M44.212 281.156c-1.955 0-2.502 1.273-2.923 2.498-3.648 10.597-6.666 21.02-9.037 31.227a273.422 273.422 0 00-2.312 10.93c-4.956 26.122-5.262 49.387-.912 69.145 4.577 20.789 14.12 36.792 28.366 47.566 12.773 9.66 28.559 14.539 47.003 14.539h.003c2.126 0 4.29-.065 6.486-.195 12.61-.745 26.043-3.613 40.144-8.552a.378.378 0 00.025-.704 210.347 210.347 0 01-7.69-3.506.373.373 0 00-.273-.019c-11.41 3.566-22.304 5.668-32.59 6.276-2.062.122-4.091.183-6.083.183-17.007 0-31.48-4.436-43.094-13.22-12.974-9.811-21.7-24.537-25.933-43.768-4.16-18.895-3.84-41.279.95-66.53l.01-.05c2.548-13.422 6.546-28.048 11.444-42.236.55-1.592-.977-3.584-3.584-3.584m0 2.47c.712 0 1.09.286 1.201.448-4.994 14.49-8.965 29.162-11.49 42.457l-.007.034c-4.853 25.581-5.167 48.299-.936 67.522 4.364 19.82 13.4 35.03 26.855 45.207 12.037 9.104 27.037 13.72 44.584 13.72 2.033 0 4.128-.064 6.228-.188 10.2-.603 21.094-2.668 32.393-6.14.698.332 1.401.662 2.11.99-12.041 3.826-23.594 6.086-34.41 6.725-2.137.126-4.27.19-6.343.19-17.883 0-33.196-4.723-45.513-14.038-13.764-10.41-22.998-25.93-27.444-46.127-4.279-19.432-3.967-42.362.926-68.155.667-3.517 1.438-7.16 2.29-10.831 2.34-10.069 5.357-20.493 8.968-30.983.147-.428.263-.7.345-.811.039-.009.115-.02.243-.02M322.067 15.875c-2.127 0-4.29.065-6.486.195-20.198 1.194-42.5 7.823-66.285 19.704a272.922 272.922 0 00-9.46 4.964c4.295.093 8.56.314 12.788.66 22.836-11.354 44.146-17.689 63.341-18.823 2.062-.122 4.088-.183 6.08-.183 17.007 0 31.483 4.436 43.097 13.22 12.974 9.812 21.699 24.537 25.933 43.768 2.196 9.975 3.142 20.924 2.842 32.753-.267 10.577-1.531 21.857-3.793 33.777-.47 2.477-.981 4.969-1.532 7.475l6.17 2.266c.639-2.86 1.23-5.702 1.765-8.526 1.826-9.627 3.019-18.865 3.582-27.683.965-15.11.077-28.986-2.67-41.463-4.577-20.788-14.12-36.791-28.366-47.565-12.773-9.66-28.563-14.539-47.006-14.539m0 2.47c17.885 0 33.199 4.723 45.516 14.039 13.764 10.409 22.998 25.928 27.444 46.126 2.686 12.198 3.566 25.916 2.617 40.775-.555 8.7-1.747 17.913-3.543 27.38-.351 1.85-.735 3.756-1.147 5.69l-1.495-.548c.388-1.834.754-3.655 1.092-5.436 2.274-11.99 3.564-23.488 3.835-34.176.304-12.005-.671-23.224-2.9-33.346-4.363-19.82-13.398-35.03-26.855-45.207-12.036-9.103-27.037-13.72-44.586-13.72-2.033 0-4.127.064-6.225.188-19.352 1.144-40.772 7.458-63.68 18.771-1.027-.08-2.057-.153-3.09-.22.451-.228.901-.454 1.349-.678 23.486-11.73 45.466-18.274 65.327-19.448 2.138-.126 4.271-.19 6.34-.19" fill="#c60294"/><path d="M331.24 163.551l6.77 1.472 8.294-38.159-6.772-1.471zM339.023 165.243l6.77 1.471 8.294-38.158-6.771-1.472zM349.654 167.553l6.771 1.472 8.293-38.159-6.77-1.471zM357.438 169.245l6.77 1.471 8.294-38.158-6.771-1.472zM409.68 180.732l6.771 1.471 8.294-38.158-6.771-1.472zM417.464 182.423l6.771 1.472 8.293-38.159-6.77-1.471zM428.095 184.734l6.771 1.471 8.294-38.158-6.772-1.472zM435.879 186.426l6.77 1.471 8.294-38.158-6.771-1.472zM439.803 200.997l-6.771-1.472-8.293 38.158 6.77 1.472zM432.02 199.305l-6.772-1.472-8.293 38.159 6.771 1.471zM421.388 196.994l-6.77-1.471-8.294 38.158 6.771 1.472zM413.605 195.303l-6.772-1.472-8.293 38.158 6.772 1.472zM361.362 183.816l-6.771-1.472-8.294 38.159 6.772 1.471zM353.578 182.124l-6.77-1.471-8.294 38.158 6.771 1.472zM342.947 179.814l-6.771-1.472-8.293 38.158 6.771 1.472zM335.163 178.122l-6.77-1.471-8.294 38.158 6.771 1.472z" fill="#ffcd34"/><path d="M380.915 187.403l6.77 1.471 4.883-22.464-6.77-1.472z" fill="#949698"/><path d="M367.244 174.69l-1.471 6.771 38.158 8.293 1.472-6.771z" fill="#949698"/><path d="M374.098 224.102l4.557.99 15.912-73.216-4.556-.99z" fill="#949698"/><path d="M381.497 151.544l-.99 4.557 16.706 3.63.99-4.556zM376.652 206.865l6.834 1.485 3.817-17.562-6.834-1.485zM374.761 215.564l6.834 1.486 1.472-6.771-6.835-1.485zM361.56 214.708l-.837 3.853 32.4 7.041.837-3.852zM330.304 167.854l-.99 4.556 111.438 24.22.99-4.556zM331.047 164.437l-.33 1.519 14.554 3.163.33-1.519zM349.462 168.44l-.33 1.518 14.554 3.163.33-1.518zM409.488 181.618l-.33 1.518 14.555 3.164.33-1.519zM427.903 185.62l-.33 1.519 14.554 3.163.33-1.519zM439.996 200.11l.33-1.518-14.555-3.163-.33 1.518zM421.58 196.108l.33-1.518-14.554-3.163-.33 1.518zM361.554 182.93l.33-1.519-14.554-3.163-.33 1.519zM343.14 178.928l.33-1.519-14.555-3.163-.33 1.518z" fill="#949698"/><path d="M378.995 185.925l-6.771-1.471-4.458 20.511 6.771 1.472zM396.587 189.749l-6.77-1.472-4.459 20.512 6.771 1.471z" fill="#ffcd34"/><path d="M155.737 349.739c-1.128-13.395-11.092-23.925-23.675-26.34 8.144 3.836 14.08 11.784 14.89 21.4 1.208 14.344-9.441 26.952-23.786 28.16-10.6.893-20.245-4.693-25.05-13.457 3.485 13.62 16.387 23.136 30.862 21.917 16.138-1.36 28.118-15.543 26.76-31.68" fill="#c9bc9b"/><path d="M146.951 344.799c-.81-9.615-6.745-17.564-14.889-21.4a29.524 29.524 0 00-8.005-.42c-16.138 1.36-28.118 15.544-26.759 31.681a29.473 29.473 0 00.818 4.842c4.805 8.764 14.45 14.35 25.05 13.457 14.344-1.208 24.993-13.816 23.785-28.16" fill="#e2d3aa"/><g opacity=".3" clip-path="url(#c)" transform="matrix(.35278 0 0 -.35278 -105.256 660.065)"><path d="M763.5 1398.71c-.866 10.286-8.52 18.373-18.182 20.228 6.254-2.947 10.813-9.05 11.435-16.436.927-11.015-7.252-20.698-18.268-21.625-8.14-.686-15.549 3.604-19.238 10.334 2.676-10.46 12.585-17.768 23.702-16.832 12.393 1.044 21.594 11.937 20.55 24.33" fill="#adaeb1"/></g><g opacity=".3" clip-path="url(#d)" transform="matrix(.35278 0 0 -.35278 -105.256 660.065)"><path d="M839.465 1386.371c-.866 10.287-8.52 18.374-18.182 20.23 6.254-2.947 10.813-9.052 11.435-16.436.928-11.017-7.251-20.699-18.267-21.627-8.141-.686-15.55 3.604-19.238 10.334 2.676-10.46 12.585-17.768 23.702-16.83 12.393 1.042 21.594 11.935 20.55 24.33" fill="#adaeb1"/></g><g opacity=".3" clip-path="url(#e)" transform="matrix(.35278 0 0 -.35278 -105.256 660.065)"><path d="M819.955 1560.654c-.867 10.287-8.52 18.374-18.183 20.23 6.255-2.947 10.813-9.052 11.435-16.437.928-11.016-7.25-20.698-18.267-21.626-8.14-.686-15.548 3.604-19.237 10.334 2.676-10.46 12.584-17.768 23.7-16.83 12.395 1.042 21.595 11.935 20.552 24.33" fill="#adaeb1"/></g><g opacity=".3" clip-path="url(#f)" transform="matrix(.35278 0 0 -.35278 -105.256 660.065)"><path d="M903.309 1546.469c-.867 10.287-8.52 18.374-18.182 20.229 6.254-2.946 10.813-9.05 11.434-16.435.928-11.017-7.25-20.7-18.267-21.627-8.14-.686-15.548 3.604-19.237 10.334 2.676-10.46 12.585-17.768 23.7-16.831 12.395 1.043 21.596 11.937 20.552 24.33" fill="#adaeb1"/></g><g opacity=".3" clip-path="url(#g)" transform="matrix(.35278 0 0 -.35278 -105.256 660.065)"><path d="M846.854 1513.847c-.866 10.287-8.52 18.374-18.182 20.229 6.254-2.947 10.813-9.051 11.435-16.436.928-11.016-7.251-20.698-18.267-21.626-8.142-.686-15.55 3.604-19.239 10.334 2.676-10.46 12.585-17.768 23.702-16.832 12.393 1.044 21.594 11.937 20.55 24.33" fill="#adaeb1"/></g><g opacity=".3" clip-path="url(#h)" transform="matrix(.35278 0 0 -.35278 -105.256 660.065)"><path d="M877.332 1593.277c-.866 10.287-8.519 18.374-18.182 20.229 6.254-2.947 10.813-9.051 11.435-16.436.928-11.016-7.25-20.7-18.267-21.626-8.14-.686-15.549 3.604-19.238 10.334 2.676-10.46 12.585-17.768 23.702-16.832 12.393 1.044 21.594 11.937 20.55 24.33" fill="#adaeb1"/></g><g opacity=".3" clip-path="url(#i)" transform="matrix(.35278 0 0 -.35278 -105.256 660.065)"><path d="M473.886 1448.491c-.866 10.287-8.519 18.374-18.182 20.23 6.254-2.947 10.813-9.052 11.435-16.436.928-11.017-7.25-20.699-18.267-21.627-8.14-.686-15.549 3.604-19.238 10.334 2.676-10.46 12.585-17.768 23.702-16.83 12.393 1.042 21.594 11.935 20.55 24.33" fill="#831623"/></g><path d="M331.351 163.5l6.773 1.466 8.258-38.166-6.772-1.466zM339.137 165.185l6.772 1.466 8.258-38.167-6.772-1.465zM349.77 167.486l6.773 1.465 8.258-38.166-6.773-1.465zM357.555 169.17l6.772 1.466 8.259-38.166-6.773-1.466zM409.808 180.61l6.773 1.465 8.258-38.167-6.773-1.465zM417.594 182.294l6.772 1.465 8.258-38.166-6.772-1.466zM428.227 184.595l6.772 1.465 8.258-38.166-6.772-1.466zM436.012 186.279l6.772 1.465 8.258-38.165-6.772-1.466zM439.95 200.846l-6.773-1.465-8.258 38.166 6.772 1.466zM432.164 199.162l-6.772-1.466-8.258 38.167 6.772 1.465zM421.53 196.861l-6.771-1.465-8.259 38.166 6.773 1.465zM413.746 195.177l-6.772-1.466-8.259 38.166 6.773 1.466zM361.493 183.738l-6.773-1.466-8.258 38.166 6.772 1.466zM353.707 182.053l-6.772-1.465-8.258 38.166 6.772 1.465zM343.074 179.752l-6.772-1.465-8.259 38.166 6.773 1.466zM335.289 178.068l-6.772-1.466-8.258 38.167 6.772 1.465zM379.128 185.83l-6.772-1.465-4.44 20.516 6.773 1.466zM396.723 189.638l-6.772-1.465-4.44 20.515 6.773 1.466z" fill="#eda70c"/><path d="M332.116 159.999l6.772 1.465 6.869-31.8-6.773-1.465zM339.901 161.683l6.772 1.466 6.869-31.8-6.773-1.465zM350.534 163.984l6.773 1.466 6.868-31.8-6.772-1.465zM358.32 165.669l6.772 1.465 6.868-31.8-6.772-1.465zM410.573 177.108l6.772 1.465 6.868-31.8-6.772-1.465zM418.358 178.792l6.772 1.466 6.869-31.8-6.773-1.466zM428.991 181.093l6.773 1.465 6.868-31.8-6.772-1.465zM436.776 182.777l6.773 1.466 6.868-31.8-6.772-1.465zM439.324 203.711l-6.772-1.465-6.869 31.8 6.773 1.465zM431.539 202.027l-6.773-1.466-6.868 31.8 6.773 1.466zM420.905 199.726l-6.772-1.465-6.868 31.8 6.772 1.465zM413.12 198.041l-6.772-1.465-6.868 31.8 6.772 1.465zM360.867 186.603l-6.772-1.466-6.869 31.8 6.773 1.465zM353.082 184.918l-6.773-1.465-6.868 31.8 6.773 1.465zM342.449 182.617l-6.773-1.465-6.868 31.8 6.772 1.465zM334.664 180.933l-6.773-1.466-6.868 31.8 6.772 1.466zM378.502 188.696l-6.772-1.466-3.05 14.15 6.773 1.465zM396.098 192.503l-6.772-1.465-3.05 14.149 6.773 1.465z" fill="#f7b719"/><path d="M332.81 156.816l6.774 1.465 5.478-25.433-6.773-1.465zM340.596 158.5l6.772 1.466 5.479-25.433-6.773-1.466zM351.23 160.801l6.772 1.465 5.478-25.432-6.772-1.466zM359.015 162.486l6.772 1.465 5.478-25.433-6.772-1.465zM411.268 173.924l6.772 1.466 5.478-25.433-6.772-1.466zM419.053 175.609l6.772 1.465 5.479-25.432-6.773-1.466zM429.686 177.91l6.773 1.465 5.478-25.433-6.772-1.465zM437.472 179.594l6.772 1.466 5.478-25.433-6.773-1.466zM438.629 206.894l-6.772-1.465-5.479 25.433 6.773 1.466zM430.844 205.21l-6.773-1.465-5.478 25.432 6.773 1.466zM420.21 202.91l-6.772-1.466-5.478 25.433 6.772 1.465zM412.425 201.225l-6.772-1.466-5.478 25.433 6.772 1.466zM360.172 189.786l-6.772-1.466-5.479 25.434 6.773 1.465zM352.387 188.101l-6.772-1.465-5.479 25.433 6.773 1.466zM341.754 185.8l-6.773-1.465-5.478 25.433 6.772 1.466zM333.968 184.116l-6.772-1.465-5.478 25.432 6.772 1.466zM377.807 191.88l-6.772-1.466-1.66 7.782 6.773 1.466zM395.403 195.686l-6.772-1.465-1.66 7.782 6.773 1.466z" fill="#fcc324"/><path d="M333.506 153.632l6.773 1.466 4.088-19.067-6.773-1.465zM341.291 155.317l6.772 1.465 4.089-19.066-6.773-1.465zM351.924 157.618l6.773 1.465 4.088-19.066-6.773-1.465zM359.71 159.302l6.772 1.466 4.088-19.067-6.772-1.465zM411.963 170.741l6.772 1.466 4.088-19.067-6.772-1.465zM419.748 172.426l6.772 1.465 4.089-19.067-6.773-1.465zM430.381 174.726l6.773 1.466 4.088-19.067-6.773-1.465zM438.166 176.41l6.773 1.466 4.088-19.066-6.772-1.465zM437.934 210.078l-6.772-1.466-4.089 19.067 6.773 1.465zM430.149 208.393l-6.772-1.465-4.089 19.066 6.773 1.466zM419.516 206.092l-6.773-1.465-4.088 19.067 6.772 1.465zM411.73 204.408l-6.772-1.465-4.088 19.066 6.772 1.465zM359.477 192.97l-6.772-1.466-4.088 19.066 6.772 1.466zM351.692 191.285l-6.772-1.466-4.089 19.067 6.773 1.465zM341.059 188.984l-6.773-1.466-4.088 19.067 6.772 1.465zM333.273 187.3l-6.772-1.466-4.088 19.066 6.772 1.466zM377.112 195.062l-6.772-1.465-.964 4.6 6.772 1.465zM394.708 198.87l-6.772-1.466-.964 4.6 6.772 1.465z" fill="#ffcd34"/><path d="M430.894 371.138c-.78 50.68-42.496 91.131-93.175 90.351-50.68-.78-91.131-42.496-90.351-93.175.78-50.68 42.495-91.13 93.175-90.35 50.679.78 91.13 42.495 90.35 93.174" fill="#ff00a4"/><path d="M431.009 362.059c-3.536-41.982-34.766-74.984-74.202-82.554 25.524 12.023 44.128 36.935 46.666 67.072 3.786 44.958-29.59 84.473-74.549 88.26-33.222 2.797-63.454-14.71-78.51-42.176 10.922 42.689 51.358 72.512 96.727 68.69 50.579-4.26 88.127-48.714 83.868-99.292" fill="#e800a1"/><path d="M312.877 404.759c-7.468 0-16.466-1.915-16.466-1.915-1.149-.096-1.82-.766-1.82-1.82v-8.52c0-1.052.767-1.53 1.82-1.435 0 0 10.147 1.723 16.179 1.723 6.988 0 9.764-2.489 9.764-7.276v-3.542c0-5.36-3.638-7.275-10.147-7.275h-10.052c-1.053 0-1.82-.766-1.82-1.82v-8.328c0-1.053.767-1.818 1.82-1.818h8.137c7.276 0 10.148-2.298 10.148-7.659v-2.01c0-4.213-1.915-6.223-8.712-6.223-6.127 0-15.317 1.627-15.317 1.627-1.053.096-1.82-.382-1.82-1.435v-8.425c0-1.053.671-1.723 1.82-1.819 0 0 8.137-1.915 15.987-1.915 12.732 0 20.965 4.021 20.965 17.328v2.585c0 6.414-2.872 10.53-7.275 13.115 5.456 2.393 9.19 6.797 9.19 14.264v4.117c0 14.072-9.478 18.476-22.401 18.476M371.179 357.371c0-6.892-1.915-10.53-7.659-10.53s-7.658 3.638-7.658 10.53v24.89c0 6.894 1.914 10.531 7.658 10.531 5.744 0 7.659-3.637 7.659-10.53zm-7.659 47.388c-13.977 0-20.582-7.946-20.582-22.019v-25.847c0-14.073 6.605-22.019 20.582-22.019s20.582 7.946 20.582 22.02v25.846c0 14.073-6.605 22.019-20.582 22.019M373.371 302.048c.005.004.005.009.013.009a75.548 75.548 0 013.159 1.69c.112.06.22.12.328.181l.018.013c.004 0 .008.004.013.004.008 0 .013-.004.017-.013l6.424-11.245c.01-.009.005-.022-.008-.03l-.403-.23a84.323 84.323 0 00-3.708-1.976c-.005-.004-.009-.004-.013-.004-.009.004-.013.01-.013.014l-5.827 11.57zM373.016 301.862c0 .008.004.013.013.017 0 .005.005.005.009.005.008 0 .017-.005.017-.014l5.766-11.6v-.009c0-.009-.004-.017-.013-.017-.009-.004-.022-.004-.026.008l-5.766 11.601zM366.09 298.851a.45.45 0 00.013.013 71.33 71.33 0 013.317 1.343h.005l.36.156c0 .005.004.005.008.005h.009c.004-.005.009-.01.009-.014l5.207-11.86c.004-.004.004-.013 0-.017 0-.005-.005-.01-.01-.014-.142-.06-.285-.121-.424-.182l-.004-.004a91.546 91.546 0 00-3.89-1.572c-.013-.004-.022 0-.026.012l-4.574 12.117zM379.951 305.773c0 .01.005.013.01.018.003.004.008.004.012.004.009 0 .013-.004.018-.009l6.948-10.929c.004-.004.004-.008.004-.013 0-.008-.004-.013-.009-.017-.012-.01-.025-.005-.03.004l-6.948 10.93c-.005.004-.005.008-.005.012M386.445 310.396c0 .008 0 .013.009.017 0 .004.008.004.013.004.004 0 .013 0 .017-.004l8.053-10.145c.004-.005.004-.009.004-.013 0-.005-.004-.013-.009-.017-.008-.01-.021-.005-.03.004l-8.053 10.14c-.004.005-.004.01-.004.014M380.285 305.994c.005.005.005.009.008.013a77.74 77.74 0 012.973 2.01l.004.005c.108.078.212.151.32.23.004 0 .009.004.013.004h.004c.005-.004.01-.004.014-.009l7.567-10.513a.027.027 0 00-.004-.03c-.143-.105-.264-.187-.377-.27 0 0-.004 0-.004-.004a94.165 94.165 0 00-3.479-2.352c-.004-.004-.008-.004-.013-.004-.008 0-.013.004-.013.008l-7.008 10.895c-.005.005-.005.013-.005.017M365.717 298.704c0 .009.005.017.013.022h.008c.01 0 .018-.005.018-.013l4.51-12.147v-.004a.024.024 0 00-.013-.022c-.013-.005-.027 0-.03.013l-4.506 12.142zM342.77 445.55c-1.125.048-2.269.073-3.4.073h-.207c-.013 0-.022.01-.022.023v9.456l-.052 3.492c-.004.013.008.021.017.021.005 0 .06.004.243.004 1.321 0 2.668-.03 3.998-.086.013 0 .022-.013.022-.022l-.576-12.944c0-.008-.01-.025-.022-.017M343.17 445.529c-.009 0-.022.013-.022.021v.005l.64 12.934c.005.014.014.022.023.022.013-.004.021-.013.021-.022v-.004l-.64-12.935c0-.013-.01-.021-.022-.021M342.364 294.069c.013 0 .022-.009.022-.022l.506-12.944c0-.004-.004-.008-.004-.012-.013-.018-.04-.005-.04.012l-.506 12.94c0 .009 0 .013.004.017a.032.032 0 00.018.009M358.128 296.352h.004c.009-.005.017-.009.017-.018l3.197-12.553c.005-.01-.004-.022-.017-.026-.009 0-.022.004-.026.017l-3.197 12.55c0 .008 0 .017.004.021a.033.033 0 00.018.009M358.496 296.438c0 .004.008.009.013.014 1.152.298 2.313.628 3.448.982l.147.048c.078.026.156.048.234.074h.004a.024.024 0 00.022-.013l3.925-12.346c0-.004 0-.013-.004-.017-.005-.009-.01-.009-.013-.009l-.442-.143a93.517 93.517 0 00-4.046-1.156c-.01 0-.022.004-.027.017l-3.266 12.536c0 .005 0 .009.005.013M386.761 310.664a70.332 70.332 0 012.747 2.313l.073.065c.078.065.152.135.225.2.005.004.01.004.014.004.008.004.013 0 .017-.004l8.625-9.665c.004-.004.008-.008.004-.017 0-.004 0-.009-.004-.013l-.347-.312h-.005a88.609 88.609 0 00-3.214-2.707.025.025 0 00-.03.004l-8.105 10.102a.02.02 0 000 .03M350.309 294.792c.013 0 .021-.004.021-.017l1.854-12.818v-.005c0-.008-.009-.017-.017-.021-.013 0-.022.009-.026.021l-1.854 12.818c0 .014.009.022.017.022zM392.713 315.975a70.88 70.88 0 012.491 2.59c.091.096.182.195.268.291.005.004.014.008.018.008.004 0 .009 0 .013-.004l9.587-8.711c.004-.005.008-.01.008-.013 0-.01-.004-.013-.004-.018l-.104-.108c-.07-.082-.143-.16-.213-.238a91.615 91.615 0 00-2.915-3.028.022.022 0 00-.03 0l-9.119 9.2a.02.02 0 000 .03M412.566 350.088a76.029 76.029 0 01.919 3.825l.012.052c0 .01.01.018.022.018l.005-.004 12.666-2.69c.013-.005.022-.014.017-.027-.017-.086-.039-.177-.056-.264l-.04-.195a96.384 96.384 0 00-.995-4.084c0-.01-.005-.013-.009-.013-.009-.005-.013-.009-.017-.005l-12.51 3.362c-.014 0-.018.013-.014.025M412.458 349.699v.004c.004.009.013.017.022.017h.008l12.489-3.43c.009 0 .017-.01.017-.018v-.008c-.004-.01-.017-.018-.03-.013l-12.489 3.426c-.009.005-.017.013-.017.022M392.423 315.68c0 .005.005.01.008.014.005.004.01.008.014.008a.034.034 0 00.017-.008l9.067-9.245a.032.032 0 00.008-.017c0-.005-.004-.009-.008-.013a.021.021 0 00-.03 0l-9.071 9.244c0 .004-.005.009-.005.017M415.03 365.42c0 .012.01.02.023.02l12.93-.74-.004-.043-12.93.74c-.01 0-.022.01-.018.022M414.16 357.487v.005c0 .009.01.017.022.017h.004l12.78-2.088c.012-.004.02-.013.02-.021 0-.005 0-.005-.003-.005 0-.013-.01-.022-.022-.017l-12.783 2.088c-.013.004-.018.013-.018.021M409.94 342.122v.01a.025.025 0 00.023.012h.008l12.056-4.735c.009 0 .013-.009.013-.017v-.009c-.004-.013-.017-.017-.03-.013l-12.056 4.73a.024.024 0 00-.013.022M414.221 357.886c.19 1.196.35 2.391.476 3.556.018.126.031.256.044.382v.013c0 .008.004.013.009.017.004 0 .008.004.013.004h.004l12.878-1.347c.01 0 .013 0 .018-.009.004-.004.004-.008.004-.012l-.026-.243-.026-.221v-.004a86.212 86.212 0 00-.559-4.167c0-.01-.013-.018-.021-.018l-12.792 2.023c-.013.004-.022.013-.022.026M410.088 342.486c-.004.009-.004.013 0 .017.434 1.118.84 2.253 1.213 3.384.044.13.087.255.126.38.004.005.004.01.013.014H411.458l12.306-4.016.004-.004c.009 0 .018-.009.018-.022 0 0-.005-.004-.005-.008a9.126 9.126 0 00-.064-.19 86.99 86.99 0 00-1.507-4.22c-.005-.013-.018-.017-.027-.013l-12.082 4.67c-.004 0-.008.004-.013.008M406.818 335.217a74.396 74.396 0 011.568 3.236c.052.122.108.242.165.364 0 .004.004.009.008.013h.009c.004 0 .008 0 .008-.004l11.818-5.302c.013-.005.017-.018.013-.026-.07-.156-.13-.295-.19-.425h-.005v-.009a89.873 89.873 0 00-1.833-3.786.023.023 0 00-.03-.008l-11.523 5.917c-.008.004-.012.017-.008.03M346.743 294.363c.013 0 .022-.008.022-.017l1.248-12.892c0-.008 0-.013-.005-.017-.004-.004-.008-.01-.017-.01-.152-.011-.303-.029-.46-.042h-.003a91.93 91.93 0 00-4.194-.286c-.026.013-.022.013-.022.022l-.571 12.94c0 .008 0 .012.004.016.004.005.009.01.017.01 1.205.051 2.409.133 3.583.242.134.008.264.021.394.034zM398.08 321.88a83.9 83.9 0 012.205 2.837c.083.104.16.212.239.32.004.005.008.01.012.01h.005c.004 0 .009 0 .013-.005l10.444-7.66c.004-.004.009-.008.009-.012 0-.009 0-.013-.005-.017l-.03-.04a92.553 92.553 0 00-2.829-3.657c-.004-.003-.008-.007-.017-.007-.004 0-.009 0-.013.004l-10.033 8.196a.021.021 0 000 .03M397.82 321.559c0 .004.005.008.005.013a.032.032 0 00.017.008c.005 0 .009 0 .013-.004l9.99-8.248c.004-.004.004-.013.004-.017 0-.004 0-.009-.004-.013-.005-.008-.022-.013-.03-.004l-9.986 8.248a.034.034 0 00-.009.017M406.636 334.862c.004.009.008.013.017.013.005 0 .009-.004.009-.004l11.488-5.983c.009 0 .013-.008.013-.017a.031.031 0 00-.009-.021h-.021l-11.489 5.982c-.012.009-.017.021-.008.03M402.798 328.303c-.005.005 0 .01 0 .014.65.992 1.286 2.018 1.897 3.054.07.112.139.23.204.342.004.009.008.009.013.013h.004c.005 0 .009 0 .013-.004l11.194-6.52c.008-.004.013-.017.004-.03l-.234-.403a86.278 86.278 0 00-2.226-3.574c-.005-.009-.018-.013-.03-.009l-10.83 7.105c-.005 0-.01.004-.01.012M402.577 327.974c0 .01.004.013.008.018.005.004.01.004.014.004s.008-.004.008-.004l10.795-7.157a.023.023 0 00.009-.03c-.009-.013-.022-.013-.03-.008l-10.796 7.156a.033.033 0 00-.008.021M380.38 433.577c-.008 0-.013.004-.017.004a71.106 71.106 0 01-3.067 1.876c-.112.07-.23.134-.346.2-.005.003-.01.008-.01.012s0 .013.005.017l6.433 11.242a.036.036 0 00.017.008h.013c.134-.077.269-.156.407-.238a88.296 88.296 0 003.587-2.192.023.023 0 00.009-.03l-7.017-10.886-.014-.013M410.123 397.094h-.017c-.005.004-.009.008-.009.013a71.31 71.31 0 01-1.37 3.305c-.029.074-.064.147-.094.217l-.065.147c-.004.013 0 .026.009.03l11.821 5.294c.005 0 .005.004.009.004.008 0 .017-.009.017-.013.052-.112.104-.225.152-.338l.039-.086v-.005a85.725 85.725 0 001.607-3.876c.004-.01-.004-.023-.013-.027zM407.056 403.999c-.013-.004-.026 0-.03.009 0 .004-.005.008-.005.008 0 .009.005.017.013.022l11.558 5.852h.008c.01 0 .018-.004.018-.013.004 0 .004-.004.004-.009 0-.008-.004-.012-.013-.017zM410.266 396.721c-.009-.004-.026.004-.03.017 0 .009.004.022.017.022l12.108 4.6c0 .005.004.005.004.005h.004c.009 0 .017-.009.022-.018 0-.012-.005-.021-.017-.025zM402.871 411.237c-.004 0-.008-.004-.013 0-.008 0-.013.005-.013.01a77.533 77.533 0 01-2.036 2.953v.005c-.078.108-.156.212-.233.32-.009.009-.005.022.004.03l10.453 7.647c.004 0 .008.004.013.004.008 0 .013-.004.017-.01.082-.108.16-.216.243-.329l.034-.047a93.328 93.328 0 002.383-3.46c.004-.01 0-.023-.009-.031zM412.597 389.517c-.013-.004-.027.005-.03.014a74.748 74.748 0 01-1.07 3.63l-.066.19c0 .005 0 .013.005.017 0 .005.004.009.008.009l12.316 4.02h.008s.005 0 .009-.004c.004 0 .009-.005.009-.009l.013-.039c.043-.139.09-.273.134-.407a95.54 95.54 0 001.187-4.038c0-.008-.004-.021-.017-.025zM406.874 404.354c-.004-.004-.013-.004-.017-.004l-.013.013a74.337 74.337 0 01-1.707 3.15c-.03.047-.056.09-.082.138-.04.069-.078.138-.122.203v.018c0 .008.005.013.009.013l11.198 6.51c.004 0 .009.004.013.004h.004c.005-.004.013-.008.013-.012.035-.061.07-.122.109-.182.039-.074.082-.147.125-.221a94.007 94.007 0 002.006-3.69v-.018c0-.005-.004-.009-.009-.013zM403.092 410.904c-.013-.004-.026 0-.03.008-.004.005-.004.01-.004.013 0 .005.004.014.008.018l10.878 7.03c.004.005.009.005.013.005.008 0 .013-.005.017-.009.004-.004.004-.008.004-.013 0-.008-.004-.013-.008-.017zM428.148 369.344a94.317 94.317 0 00-.117-4.202c0-.009-.022-.013-.022-.018l-12.939.672c-.004 0-.009 0-.013.004-.004.005-.004.009-.004.018.06 1.191.095 2.404.1 3.591.004.134.004.268.004.398 0 .014.008.022.021.022h12.953c.008 0 .021-.008.021-.022 0-.156 0-.311-.004-.463M415.074 373.784s-.008 0-.013.004c-.004.005-.008.009-.008.013a78.744 78.744 0 01-.269 3.583c-.013.134-.03.264-.043.398 0 .009.008.022.021.022l12.884 1.343c.013 0 .021-.005.021-.018l.004-.026c.013-.142.03-.29.044-.437.138-1.4.242-2.811.316-4.193 0-.013-.009-.022-.022-.022zM415.096 373.381c-.009.004-.013.004-.017.009-.005.004-.009.008-.009.017 0 .009.013.022.022.022l12.94.598c.012 0 .02-.01.02-.018 0-.013-.008-.021-.02-.026zM412.696 389.132c-.008-.005-.022 0-.026.013v.004c0 .013.004.022.018.022l12.527 3.292c0 .004 0 .004.005.004.008 0 .017-.008.021-.017v-.004c0-.013-.008-.022-.017-.022zM398.418 417.367c-.008-.009-.021-.009-.03.004a.026.026 0 00.004.03l10.085 8.132s.004.004.009.004c.004 0 .008 0 .013-.004.008-.005.012-.013.012-.018 0-.008-.004-.012-.008-.017zM414.312 381.321c-.013 0-.026.009-.026.022s.009.022.017.022l12.805 1.953h.005c.008 0 .017-.008.021-.017v-.004c0-.013-.008-.022-.017-.022zM427.043 383.735l-12.796-2.02c-.009.005-.022.009-.022.022a86.656 86.656 0 01-.64 3.522c0 .004-.005.004-.005.004l-.082.39c0 .014.004.026.017.026l12.67 2.695h.005c.004 0 .009 0 .013-.005.004-.004.009-.008.009-.012.03-.152.065-.304.095-.46.277-1.342.533-2.738.754-4.137 0-.004 0-.013-.005-.017-.004-.004-.008-.004-.013-.008M373.432 437.55a75.063 75.063 0 01-3.245 1.541c-.082.035-.164.07-.242.108l-.122.052c-.012.005-.017.018-.012.031l5.21 11.857a.025.025 0 00.022.013s.005 0 .009-.005c.122-.052.243-.104.364-.16l.065-.026a88.944 88.944 0 003.816-1.82v-.017l-5.835-11.566c-.004-.009-.017-.013-.03-.009M366.124 440.763a73.54 73.54 0 01-3.608 1.257 2.492 2.492 0 00-.17.056c-.008 0-.016.013-.012.026l3.925 12.341c.004.01.004.014.012.014 0 .004.005.004.01.004h.004l.45-.147a88.118 88.118 0 003.98-1.395c.005 0 .01-.005.01-.01.004-.008.004-.012 0-.016l-4.575-12.117c-.004-.013-.017-.017-.026-.013M350.711 444.78a81.494 81.494 0 01-3.56.45h-.01c-.064.004-.13.012-.19.017-.07.009-.134.013-.199.022-.004 0-.013.004-.013.008-.004.004-.009.01-.009.013l1.252 12.892c0 .013.009.021.022.021.156-.017.307-.03.464-.047 1.399-.143 2.802-.32 4.17-.524.01 0 .014-.005.019-.009 0-.004.003-.008 0-.017l-1.924-12.81c0-.008-.013-.021-.022-.017M358.907 443.081c-.008 0-.017.009-.017.022v.004l3.331 12.515c0 .008.009.017.022.017h.004c.013-.004.018-.017.013-.026l-3.33-12.52c0-.008-.01-.016-.023-.012M366.488 440.63c-.004.003-.009.012-.004.017l4.64 12.094a.024.024 0 00.02.013h.01c.008-.004.017-.017.012-.03l-4.639-12.09c-.009-.018-.03-.018-.039-.005M351.093 444.727c-.005.004-.01.009-.01.017l1.994 12.797c.004.012.013.017.021.017h.004c.013 0 .022-.013.018-.022l-1.989-12.8c-.004-.018-.03-.022-.038-.009M358.535 443.18c-.005 0-.013-.004-.018 0a73.06 73.06 0 01-3.686.863l-.195.039c-.004.004-.009.004-.013.013-.005.004-.005.008-.005.012l2.6 12.693c0 .008.008.018.022.018l.004-.005.45-.091c.005 0 .005-.004.01-.004a83.243 83.243 0 004.093-.962c.004 0 .008-.004.012-.009 0-.004.005-.012 0-.017l-3.266-12.536c0-.005-.004-.01-.008-.013M354.632 295.546h.008c.01-.004.01-.009.013-.017l2.595-12.688c0-.005 0-.014-.004-.017-.004-.005-.009-.01-.013-.01l-.46-.09a84.722 84.722 0 00-4.14-.724c-.01 0-.014 0-.018.004-.004.005-.009.01-.009.013l-1.923 12.81c0 .008 0 .013.004.017.005.004.009.009.013.009 1.179.177 2.366.38 3.53.615h.005l.394.078zM380.697 433.365a.033.033 0 00-.009.017c0 .004 0 .009.004.013l7.074 10.847a.025.025 0 00.022.013s.004 0 .009-.005c.008-.004.013-.012.008-.017v-.013l-7.078-10.847c-.004-.013-.017-.017-.03-.008M392.782 423.592a79.122 79.122 0 01-2.902 2.733.033.033 0 00-.008.018c0 .004.004.008.004.013l8.638 9.656c.004.004.013.004.017.004.005 0 .008 0 .013-.004l.35-.312a92.675 92.675 0 003.05-2.894.02.02 0 000-.03l-9.131-9.184a.02.02 0 00-.03 0M393.094 423.306a.02.02 0 00-.03 0c-.004.004-.004.013-.004.017 0 .005 0 .009.004.013l9.18 9.14c.004.005.008.005.012.005.01 0 .013 0 .018-.004.004-.005.004-.009.004-.018 0-.004 0-.008-.004-.013zM387.177 428.66a.02.02 0 00-.03 0c-.005.005-.009.009-.009.018 0 .004.004.008.004.012l8.175 10.046c.004.005.008.008.017.008.004 0 .008 0 .013-.003.004-.005.009-.009.009-.018 0-.004 0-.009-.005-.013zM398.171 417.675c-.013-.005-.026-.005-.03.004a88.642 88.642 0 01-2.335 2.729c-.004 0-.004 0-.004.004-.035.035-.065.074-.1.109-.052.06-.108.12-.165.181-.004.005-.004.009-.004.018 0 .004 0 .009.004.012l9.6 8.7c.004.004.009.004.017.004.009.004.009 0 .013-.005.052-.06.104-.117.156-.173a95.55 95.55 0 002.89-3.366l.004-.017c0-.005-.004-.013-.009-.013zM386.852 428.907c-.009 0-.013 0-.017.004a72.185 72.185 0 01-2.85 2.184l-.325.238c-.01.004-.01.017-.005.026l7.581 10.505a.031.031 0 00.017.009c.005 0 .009 0 .013-.005l.377-.273a88.286 88.286 0 003.34-2.56.025.025 0 00.004-.03l-8.122-10.09c-.004-.004-.009-.008-.013-.008M373.822 437.376c-.009-.009-.022-.013-.03-.009-.009.004-.014.013-.014.018 0 .004 0 .008.005.013l5.891 11.531a.023.023 0 00.022.013h.008a.023.023 0 00.013-.022c0-.004-.004-.004-.004-.008z" fill="#a20e76"/><path d="M106.358 88.528a2.318 2.318 0 01-2.154-3.138l.11-.288a2.319 2.319 0 012.99-1.339 2.313 2.313 0 011.342 2.986l-.11.288a2.318 2.318 0 01-2.178 1.491m-2.09 5.478a2.313 2.313 0 01-2.154-3.138l.11-.288a2.319 2.319 0 012.99-1.34 2.312 2.312 0 011.342 2.986l-.11.288a2.318 2.318 0 01-2.178 1.492m-2.09 5.477a2.312 2.312 0 01-2.154-3.138l.11-.288a2.319 2.319 0 012.99-1.339 2.312 2.312 0 011.342 2.986l-.11.288a2.32 2.32 0 01-2.178 1.491m-2.09 5.478a2.319 2.319 0 01-2.153-3.139l.11-.288a2.318 2.318 0 014.331 1.65l-.11.287a2.319 2.319 0 01-2.178 1.49m-2.09 5.478a2.313 2.313 0 01-2.154-3.138l.11-.289a2.318 2.318 0 014.333 1.648l-.11.288a2.319 2.319 0 01-2.179 1.49m-2.09 5.478a2.313 2.313 0 01-2.154-3.138l.11-.288a2.32 2.32 0 012.991-1.339 2.312 2.312 0 011.342 2.986l-.11.288a2.319 2.319 0 01-2.178 1.491m-2.09 5.478a2.31 2.31 0 01-.812-.152 2.312 2.312 0 01-1.342-2.986l.11-.288a2.32 2.32 0 012.991-1.339 2.312 2.312 0 011.341 2.986l-.11.288a2.319 2.319 0 01-2.178 1.49m-2.09 5.479a2.312 2.312 0 01-2.154-3.138l.11-.289a2.319 2.319 0 012.992-1.338 2.312 2.312 0 011.34 2.986l-.11.288a2.319 2.319 0 01-2.178 1.49" fill="#c60294"/><path d="M106.482 83.828c-.847 0-1.647.515-1.966 1.35l-.11.29c-.2.523-.183 1.092.046 1.603.23.512.645.903 1.17 1.103.237.09.485.137.736.138h.01c.868 0 1.657-.542 1.966-1.352l.11-.288c.2-.523.183-1.093-.046-1.604a2.085 2.085 0 00-1.17-1.103 2.092 2.092 0 00-.746-.137m-.113 4.916h-.013a2.52 2.52 0 01-.888-.166 2.514 2.514 0 01-1.411-1.33 2.51 2.51 0 01-.055-1.934l.11-.289a2.537 2.537 0 014.68-.134c.277.617.297 1.304.056 1.935l-.11.288a2.547 2.547 0 01-2.37 1.63m-2.099 5.046h.01c.867 0 1.656-.542 1.965-1.352l.11-.289c.2-.523.183-1.092-.046-1.603a2.104 2.104 0 00-3.882.11l-.11.289a2.08 2.08 0 00.047 1.605 2.11 2.11 0 001.906 1.24m.01.432h-.012a2.549 2.549 0 01-.888-.166 2.518 2.518 0 01-1.411-1.329 2.51 2.51 0 01-.056-1.936l.11-.288a2.537 2.537 0 014.68-.134 2.51 2.51 0 01.056 1.934l-.11.289a2.547 2.547 0 01-2.369 1.63m-1.976.561c-.848 0-1.648.515-1.967 1.351l-.11.289c-.2.523-.183 1.092.046 1.603.23.512.645.904 1.17 1.103.238.09.486.137.737.138h.01c.868 0 1.656-.542 1.965-1.352l.11-.288c.2-.524.183-1.093-.046-1.605a2.087 2.087 0 00-1.17-1.101 2.096 2.096 0 00-.745-.138m-.114 4.917h-.012a2.527 2.527 0 01-.888-.167 2.515 2.515 0 01-1.411-1.33 2.51 2.51 0 01-.056-1.934l.11-.289a2.54 2.54 0 013.27-1.464c.632.24 1.133.713 1.41 1.329a2.51 2.51 0 01.056 1.936l-.11.288a2.547 2.547 0 01-2.369 1.63m-2.1 5.046c.863.022 1.665-.539 1.975-1.351l.11-.288a2.08 2.08 0 00-.045-1.604 2.09 2.09 0 00-1.17-1.104 2.105 2.105 0 00-2.712 1.213l-.11.288c-.2.523-.184 1.093.046 1.605.229.511.644.903 1.169 1.102.237.09.485.137.737.139m.01.432h-.012a2.527 2.527 0 01-.89-.166 2.516 2.516 0 01-1.41-1.33 2.51 2.51 0 01-.054-1.936l.11-.288a2.537 2.537 0 014.68-.131 2.51 2.51 0 01.055 1.934l-.11.288a2.548 2.548 0 01-2.368 1.63m-1.977.56c-.847 0-1.647.516-1.966 1.352l-.11.288c-.2.523-.184 1.092.045 1.602.23.513.646.905 1.17 1.104.238.09.486.137.737.138h.01c.868 0 1.657-.542 1.966-1.351l.11-.288c.2-.524.183-1.093-.046-1.603a2.086 2.086 0 00-1.17-1.104 2.091 2.091 0 00-.746-.138m-.113 4.917h-.013a2.53 2.53 0 01-.888-.166 2.518 2.518 0 01-1.411-1.331 2.511 2.511 0 01-.055-1.935l.11-.288a2.539 2.539 0 013.27-1.464 2.518 2.518 0 011.41 1.331 2.51 2.51 0 01.056 1.935l-.11.288a2.547 2.547 0 01-2.37 1.63m-1.976.561c-.847 0-1.647.516-1.966 1.351l-.11.288c-.2.524-.183 1.094.047 1.605a2.108 2.108 0 001.906 1.24h.011a2.11 2.11 0 001.964-1.351l.11-.289c.2-.523.183-1.092-.046-1.603a2.085 2.085 0 00-1.17-1.103 2.092 2.092 0 00-.746-.138m-.112 4.916h-.014a2.526 2.526 0 01-.887-.165 2.518 2.518 0 01-1.41-1.33 2.51 2.51 0 01-.057-1.935l.11-.289a2.538 2.538 0 013.27-1.464c.632.24 1.134.713 1.41 1.33.277.617.297 1.304.056 1.935l-.11.289a2.546 2.546 0 01-2.368 1.63m-1.977.561c-.848 0-1.648.515-1.967 1.35l-.11.29a2.08 2.08 0 00.046 1.602c.23.512.645.904 1.17 1.103.238.09.486.137.737.139.873-.014 1.666-.54 1.975-1.352l.11-.289a2.08 2.08 0 00-.046-1.604 2.086 2.086 0 00-1.17-1.102 2.095 2.095 0 00-.745-.137m-.114 4.916h-.012a2.527 2.527 0 01-.888-.166 2.517 2.517 0 01-1.412-1.33 2.51 2.51 0 01-.055-1.934l.11-.289a2.54 2.54 0 013.27-1.464c.632.24 1.133.712 1.41 1.328a2.51 2.51 0 01.057 1.937l-.11.288a2.547 2.547 0 01-2.37 1.63m-2.1 5.045h.01c.868 0 1.656-.542 1.965-1.351l.11-.288a2.08 2.08 0 00-.045-1.603 2.103 2.103 0 00-3.882.11l-.11.288a2.08 2.08 0 00.045 1.603 2.11 2.11 0 001.907 1.242m.01.432h-.012a2.527 2.527 0 01-.889-.167 2.516 2.516 0 01-1.41-1.33 2.512 2.512 0 01-.056-1.935l.11-.288a2.538 2.538 0 014.681-.132c.277.617.296 1.303.055 1.934l-.11.288a2.547 2.547 0 01-2.368 1.63" fill="#e8e8e4"/><path d="M112.31 89.358a2.312 2.312 0 01-2.154-3.138l.11-.288a2.319 2.319 0 012.991-1.34 2.312 2.312 0 011.341 2.987l-.11.288a2.32 2.32 0 01-2.178 1.49m-2.09 5.478a2.312 2.312 0 01-2.154-3.138l.11-.288a2.318 2.318 0 012.991-1.338 2.312 2.312 0 011.341 2.985l-.11.288a2.318 2.318 0 01-2.178 1.491m-2.09 5.478a2.312 2.312 0 01-2.154-3.138l.11-.288a2.319 2.319 0 012.991-1.34 2.312 2.312 0 011.342 2.986l-.11.289a2.318 2.318 0 01-2.179 1.49m-2.089 5.478a2.312 2.312 0 01-2.154-3.138l.11-.288a2.318 2.318 0 014.332 1.648l-.11.288a2.319 2.319 0 01-2.178 1.49m-2.09 5.478a2.313 2.313 0 01-2.154-3.138l.11-.288a2.32 2.32 0 012.992-1.339 2.313 2.313 0 011.34 2.986l-.11.288a2.318 2.318 0 01-2.178 1.491m-2.09 5.478a2.312 2.312 0 01-2.154-3.138l.11-.288a2.32 2.32 0 012.991-1.34 2.312 2.312 0 011.342 2.987l-.11.288a2.318 2.318 0 01-2.179 1.49m-2.09 5.478a2.317 2.317 0 01-2.153-3.137l.11-.288a2.32 2.32 0 012.99-1.34 2.313 2.313 0 011.342 2.986l-.11.289a2.318 2.318 0 01-2.178 1.49m-2.09 5.478a2.312 2.312 0 01-2.154-3.138l.11-.288a2.319 2.319 0 012.991-1.338 2.312 2.312 0 011.341 2.986l-.11.288a2.319 2.319 0 01-2.178 1.49" fill="#c60294"/><path d="M112.311 89.142h.01c.868 0 1.657-.543 1.965-1.353l.11-.288c.2-.523.184-1.092-.046-1.603a2.105 2.105 0 00-3.882.11l-.11.29a2.08 2.08 0 00.047 1.603c.23.512.645.903 1.17 1.102.237.09.485.137.736.139m.01.432h-.012a2.546 2.546 0 01-.888-.166 2.517 2.517 0 01-1.41-1.33 2.51 2.51 0 01-.057-1.935l.11-.288a2.538 2.538 0 014.681-.134 2.51 2.51 0 01.056 1.935l-.11.288a2.548 2.548 0 01-2.37 1.63m-1.976.56c-.847 0-1.647.516-1.966 1.352l-.11.289a2.08 2.08 0 00.046 1.603c.23.512.645.903 1.17 1.103.237.09.485.137.737.138h.01c.868 0 1.656-.542 1.965-1.352l.11-.288a2.08 2.08 0 00-.047-1.604 2.084 2.084 0 00-1.17-1.102 2.085 2.085 0 00-.745-.138m-.112 4.917h-.014a2.512 2.512 0 01-.888-.167 2.513 2.513 0 01-1.411-1.33 2.508 2.508 0 01-.055-1.934l.11-.289a2.538 2.538 0 013.27-1.464c.632.24 1.133.713 1.41 1.33.277.616.297 1.303.056 1.935l-.11.288a2.546 2.546 0 01-2.368 1.63m-2.101 5.046h.01c.867 0 1.656-.542 1.965-1.352l.11-.288c.2-.524.183-1.093-.046-1.603a2.104 2.104 0 00-3.882.11l-.11.289a2.08 2.08 0 00.046 1.603c.23.511.645.903 1.17 1.103.238.09.486.136.737.138m.01.432h-.012a2.54 2.54 0 01-2.3-1.496 2.513 2.513 0 01-.056-1.935l.11-.289a2.54 2.54 0 013.27-1.464c.634.241 1.135.714 1.412 1.331.276.616.296 1.304.055 1.934l-.11.289a2.546 2.546 0 01-2.369 1.63m-1.977.561c-.847 0-1.646.516-1.966 1.352l-.11.288a2.08 2.08 0 00.046 1.603 2.104 2.104 0 001.907 1.241h.011a2.11 2.11 0 001.964-1.351l.11-.288c.2-.523.183-1.093-.045-1.603a2.084 2.084 0 00-1.17-1.103 2.088 2.088 0 00-.747-.139m-.112 4.917h-.013a2.532 2.532 0 01-2.3-1.497 2.511 2.511 0 01-.055-1.935l.11-.288a2.537 2.537 0 014.681-.132 2.51 2.51 0 01.055 1.934l-.11.288a2.546 2.546 0 01-2.368 1.63m-2.101 5.045h.01c.868 0 1.656-.542 1.965-1.352l.11-.288a2.08 2.08 0 00-.045-1.603 2.086 2.086 0 00-1.17-1.103 2.106 2.106 0 00-2.712 1.214l-.11.287c-.2.524-.184 1.093.045 1.603a2.11 2.11 0 001.907 1.242m.01.433h-.012a2.543 2.543 0 01-.888-.166 2.516 2.516 0 01-1.412-1.331 2.508 2.508 0 01-.055-1.935l.11-.288a2.54 2.54 0 013.27-1.464c.634.241 1.135.714 1.411 1.332a2.51 2.51 0 01.056 1.934l-.11.288a2.548 2.548 0 01-2.37 1.63m-1.976.561c-.847 0-1.648.515-1.966 1.35l-.11.29c-.2.523-.183 1.092.046 1.603.23.511.645.903 1.17 1.102.237.09.485.137.736.138h.012c.867 0 1.655-.541 1.964-1.351l.11-.288a2.08 2.08 0 00-.047-1.605 2.088 2.088 0 00-1.17-1.102 2.095 2.095 0 00-.745-.137m-.112 4.916h-.014a2.518 2.518 0 01-.888-.166 2.514 2.514 0 01-1.411-1.33 2.51 2.51 0 01-.055-1.934l.11-.29a2.54 2.54 0 013.269-1.463c.633.24 1.134.712 1.41 1.329a2.51 2.51 0 01.057 1.936l-.11.288a2.546 2.546 0 01-2.368 1.63m-2.101 5.045h.01c.867 0 1.656-.542 1.965-1.351l.11-.289c.2-.523.183-1.092-.046-1.603a2.105 2.105 0 00-3.882.11l-.11.289a2.08 2.08 0 00.046 1.604c.23.512.645.903 1.17 1.102.237.09.485.137.737.138m.01.433h-.012a2.54 2.54 0 01-2.3-1.495 2.51 2.51 0 01-.055-1.936l.11-.288a2.54 2.54 0 013.269-1.465c.634.241 1.135.713 1.411 1.331.277.616.297 1.303.056 1.934l-.11.289a2.547 2.547 0 01-2.37 1.63m-1.976.561c-.847 0-1.647.515-1.965 1.351l-.11.288a2.08 2.08 0 00.045 1.603c.23.512.645.904 1.17 1.104.237.09.485.137.737.138h.011a2.11 2.11 0 001.964-1.352l.11-.288c.2-.522.183-1.092-.045-1.602a2.085 2.085 0 00-1.17-1.104 2.081 2.081 0 00-.747-.138m-.112 4.916h-.013a2.532 2.532 0 01-2.3-1.497 2.512 2.512 0 01-.055-1.934l.11-.288a2.538 2.538 0 014.681-.133c.277.617.296 1.304.055 1.935l-.11.288a2.547 2.547 0 01-2.368 1.63" fill="#e8e8e4"/><path d="M118.14 90.622a2.313 2.313 0 01-2.154-3.138l.11-.288a2.319 2.319 0 012.99-1.34 2.312 2.312 0 011.341 2.986l-.11.289a2.319 2.319 0 01-2.178 1.49m-2.09 5.478a2.313 2.313 0 01-2.154-3.138l.11-.288a2.319 2.319 0 012.991-1.339 2.312 2.312 0 011.342 2.986l-.11.288a2.319 2.319 0 01-2.179 1.491m-2.09 5.478a2.313 2.313 0 01-2.154-3.138l.11-.288a2.319 2.319 0 012.991-1.34 2.312 2.312 0 011.342 2.986l-.11.289a2.32 2.32 0 01-2.178 1.49m-2.09 5.478a2.319 2.319 0 01-2.153-3.139l.11-.287a2.319 2.319 0 012.991-1.338 2.313 2.313 0 011.34 2.987l-.11.288a2.319 2.319 0 01-2.178 1.49m-2.09 5.477a2.313 2.313 0 01-2.154-3.138l.11-.288a2.32 2.32 0 012.992-1.339 2.313 2.313 0 011.34 2.986l-.11.289a2.319 2.319 0 01-2.178 1.49m-2.09 5.478a2.312 2.312 0 01-2.154-3.138l.11-.288a2.319 2.319 0 012.991-1.339 2.312 2.312 0 011.342 2.986l-.11.288a2.319 2.319 0 01-2.179 1.49m-2.09 5.479a2.312 2.312 0 01-2.154-3.138l.11-.289a2.32 2.32 0 012.992-1.338 2.312 2.312 0 011.341 2.985l-.11.289a2.319 2.319 0 01-2.178 1.49m-2.09 5.478a2.312 2.312 0 01-2.154-3.138l.11-.288a2.32 2.32 0 012.992-1.338 2.312 2.312 0 011.34 2.985l-.11.289a2.32 2.32 0 01-2.178 1.49" fill="#c60294"/><path d="M118.264 85.921c-.848 0-1.648.516-1.966 1.351l-.11.289a2.08 2.08 0 00.046 1.603c.23.512.644.904 1.17 1.103.237.09.485.137.736.138h.01c.868 0 1.657-.542 1.966-1.352l.11-.287a2.08 2.08 0 00-.047-1.605 2.086 2.086 0 00-1.17-1.102 2.09 2.09 0 00-.745-.138m-.113 4.917h-.013a2.512 2.512 0 01-.888-.167 2.515 2.515 0 01-1.412-1.33 2.51 2.51 0 01-.055-1.934l.11-.288a2.539 2.539 0 013.27-1.465c.633.241 1.134.713 1.41 1.33.278.616.298 1.304.057 1.936l-.11.287a2.548 2.548 0 01-2.37 1.63m-2.1 5.046h.01c.868 0 1.657-.542 1.966-1.352l.11-.288c.2-.524.183-1.093-.046-1.604a2.104 2.104 0 00-3.882.11l-.11.29a2.08 2.08 0 00.046 1.604 2.111 2.111 0 001.906 1.24m.01.433h-.012a2.554 2.554 0 01-.888-.166 2.516 2.516 0 01-1.41-1.33 2.508 2.508 0 01-.056-1.935l.11-.289a2.538 2.538 0 013.27-1.464c.632.241 1.134.713 1.41 1.33a2.51 2.51 0 01.056 1.935l-.11.288a2.547 2.547 0 01-2.37 1.63m-1.976.562c-.847 0-1.647.515-1.966 1.35l-.11.289c-.2.524-.183 1.093.046 1.603.23.512.645.904 1.17 1.103a2.1 2.1 0 00.737.138h.011c.867 0 1.655-.542 1.964-1.351l.11-.289a2.08 2.08 0 00-.047-1.604 2.097 2.097 0 00-1.915-1.24m-.112 4.917h-.013a2.538 2.538 0 01-2.3-1.496 2.51 2.51 0 01-.055-1.935l.11-.288a2.54 2.54 0 013.27-1.465c.632.24 1.133.713 1.41 1.33a2.51 2.51 0 01.056 1.936l-.11.288a2.546 2.546 0 01-2.368 1.63m-2.1 5.045h.01c.866 0 1.655-.541 1.964-1.35l.11-.289c.2-.522.183-1.092-.045-1.603a2.09 2.09 0 00-1.17-1.104 2.105 2.105 0 00-2.712 1.213l-.11.288a2.08 2.08 0 00.045 1.603 2.104 2.104 0 001.907 1.242m.01.433h-.012a2.554 2.554 0 01-.89-.167 2.518 2.518 0 01-1.41-1.332 2.512 2.512 0 01-.055-1.934l.11-.288a2.54 2.54 0 013.27-1.462 2.517 2.517 0 011.412 1.331 2.51 2.51 0 01.054 1.935l-.11.288a2.547 2.547 0 01-2.369 1.629m-1.976.561c-.847 0-1.647.515-1.966 1.351l-.11.288c-.2.523-.184 1.092.045 1.603.23.512.645.904 1.17 1.104a2.106 2.106 0 002.712-1.214l.11-.288a2.08 2.08 0 00-.045-1.603 2.084 2.084 0 00-1.17-1.103 2.087 2.087 0 00-.746-.138m-.113 4.917h-.013a2.53 2.53 0 01-.888-.167 2.517 2.517 0 01-1.412-1.33 2.51 2.51 0 01-.055-1.935l.11-.288a2.54 2.54 0 013.27-1.464 2.518 2.518 0 011.411 1.331c.277.617.296 1.303.055 1.934l-.11.289a2.547 2.547 0 01-2.368 1.63m-2.1 5.045a2.116 2.116 0 001.975-1.352l.11-.288a2.08 2.08 0 00-.046-1.604 2.103 2.103 0 00-3.882.11l-.11.29a2.08 2.08 0 00.046 1.604 2.11 2.11 0 001.906 1.24m.011.432h-.013a2.547 2.547 0 01-.888-.166 2.517 2.517 0 01-1.41-1.329 2.51 2.51 0 01-.056-1.936l.11-.288a2.538 2.538 0 013.27-1.464c.632.24 1.134.713 1.41 1.33a2.51 2.51 0 01.056 1.934l-.11.289a2.547 2.547 0 01-2.369 1.63m-1.976.561c-.848 0-1.648.515-1.967 1.351l-.11.289a2.08 2.08 0 00.046 1.603c.23.512.645.904 1.17 1.103.238.09.486.137.737.138h.011a2.11 2.11 0 001.964-1.352l.11-.288a2.08 2.08 0 00-.047-1.604 2.099 2.099 0 00-1.915-1.24m-.112 4.917h-.014a2.53 2.53 0 01-.888-.166 2.517 2.517 0 01-1.411-1.33 2.511 2.511 0 01-.055-1.935l.11-.289a2.54 2.54 0 013.27-1.464c.632.24 1.133.713 1.41 1.33a2.51 2.51 0 01.056 1.935l-.11.288a2.546 2.546 0 01-2.368 1.63m-2.1 5.046h.01c.866 0 1.655-.542 1.964-1.352l.11-.288c.2-.523.183-1.092-.046-1.603a2.085 2.085 0 00-1.17-1.103 2.106 2.106 0 00-2.711 1.213l-.11.288a2.08 2.08 0 00.045 1.603c.23.512.644.904 1.17 1.103.237.09.485.137.737.139m.01.432h-.012a2.542 2.542 0 01-2.3-1.497 2.51 2.51 0 01-.055-1.935l.11-.288a2.54 2.54 0 013.27-1.463c.633.24 1.135.714 1.411 1.331a2.51 2.51 0 01.055 1.935l-.11.287a2.547 2.547 0 01-2.369 1.63" fill="#e8e8e4"/><path d="M123.968 91.593a2.318 2.318 0 01-2.153-3.138l.11-.288a2.319 2.319 0 012.99-1.339 2.312 2.312 0 011.341 2.986l-.11.288a2.318 2.318 0 01-2.178 1.491m-2.09 5.478a2.313 2.313 0 01-2.154-3.138l.11-.288a2.319 2.319 0 012.991-1.34 2.312 2.312 0 011.342 2.986l-.11.289a2.319 2.319 0 01-2.178 1.49m-2.09 5.478a2.313 2.313 0 01-2.154-3.138l.11-.288a2.319 2.319 0 012.99-1.339 2.312 2.312 0 011.342 2.986l-.11.289a2.32 2.32 0 01-2.178 1.49m-2.09 5.478a2.319 2.319 0 01-2.153-3.14l.11-.287a2.319 2.319 0 012.991-1.337 2.313 2.313 0 011.34 2.986l-.11.288a2.319 2.319 0 01-2.178 1.49m-2.09 5.478a2.313 2.313 0 01-2.154-3.138l.11-.289a2.319 2.319 0 012.992-1.338 2.313 2.313 0 011.34 2.986l-.11.288a2.319 2.319 0 01-2.178 1.49m-2.09 5.478a2.312 2.312 0 01-2.154-3.138l.11-.288a2.32 2.32 0 012.991-1.339 2.312 2.312 0 011.342 2.986l-.11.288a2.319 2.319 0 01-2.179 1.491m-2.09 5.478a2.312 2.312 0 01-2.154-3.138l.111-.288a2.32 2.32 0 012.99-1.339 2.312 2.312 0 011.342 2.986l-.11.288a2.319 2.319 0 01-2.178 1.491m-2.09 5.478a2.312 2.312 0 01-2.154-3.138l.11-.289a2.318 2.318 0 014.332 1.648l-.11.288a2.32 2.32 0 01-2.178 1.49" fill="#c60294"/><path d="M124.092 86.893c-.847 0-1.646.515-1.965 1.351l-.11.289a2.08 2.08 0 00.046 1.604c.23.511.645.902 1.17 1.102.237.09.485.136.736.137h.012a2.11 2.11 0 001.963-1.35l.11-.29c.2-.522.184-1.092-.045-1.603a2.087 2.087 0 00-1.17-1.102 2.092 2.092 0 00-.747-.138m-.111 4.916h-.014a2.526 2.526 0 01-.888-.165 2.516 2.516 0 01-1.41-1.33 2.51 2.51 0 01-.057-1.935l.11-.289a2.537 2.537 0 014.681-.134c.277.617.296 1.304.056 1.935l-.11.288a2.546 2.546 0 01-2.368 1.63m-1.978.561c-.847 0-1.647.516-1.966 1.351l-.11.289c-.2.523-.183 1.092.046 1.603.23.512.645.904 1.17 1.103.238.09.485.137.737.138h.01c.867 0 1.656-.542 1.965-1.351l.11-.289a2.08 2.08 0 00-.047-1.604 2.086 2.086 0 00-1.17-1.102 2.09 2.09 0 00-.745-.138m-.113 4.917h-.012a2.517 2.517 0 01-.889-.167 2.511 2.511 0 01-1.41-1.33 2.509 2.509 0 01-.056-1.934l.11-.288a2.538 2.538 0 013.27-1.465c.632.241 1.133.713 1.41 1.33a2.51 2.51 0 01.056 1.936l-.11.288a2.547 2.547 0 01-2.369 1.63m-2.1 5.045a2.124 2.124 0 001.975-1.351l.11-.29a2.08 2.08 0 00-.046-1.602 2.105 2.105 0 00-3.882.11l-.11.289a2.08 2.08 0 00.047 1.604 2.105 2.105 0 001.906 1.24m.01.433h-.012a2.543 2.543 0 01-2.3-1.496 2.51 2.51 0 01-.055-1.935l.11-.289a2.539 2.539 0 013.27-1.464c.633.24 1.134.713 1.41 1.33a2.51 2.51 0 01.056 1.935l-.11.288a2.546 2.546 0 01-2.369 1.63m-1.976.562c-.847 0-1.647.514-1.966 1.35l-.11.288c-.2.523-.184 1.093.045 1.604.23.511.644.904 1.17 1.103.237.09.485.137.737.139h.012c.866 0 1.654-.542 1.963-1.351l.11-.288a2.08 2.08 0 00-.045-1.603 2.098 2.098 0 00-1.916-1.242m-.112 4.916h-.014a2.508 2.508 0 01-.89-.167 2.515 2.515 0 01-1.41-1.33 2.512 2.512 0 01-.054-1.935l.11-.288a2.537 2.537 0 014.681-.13c.276.615.295 1.302.054 1.933l-.11.288a2.546 2.546 0 01-2.367 1.63m-1.979.56c-.846 0-1.646.515-1.965 1.352l-.11.288c-.2.523-.184 1.092.045 1.602a2.102 2.102 0 001.907 1.242h.012c.866 0 1.654-.541 1.963-1.351l.11-.289a2.08 2.08 0 00-.045-1.602 2.086 2.086 0 00-1.17-1.104 2.088 2.088 0 00-.747-.138m-.111 4.917h-.014a2.522 2.522 0 01-.889-.166 2.518 2.518 0 01-1.41-1.332 2.511 2.511 0 01-.056-1.934l.11-.288a2.537 2.537 0 014.681-.132 2.51 2.51 0 01.056 1.934l-.11.288a2.546 2.546 0 01-2.368 1.63m-1.978.561c-.847 0-1.648.515-1.966 1.351l-.11.289c-.2.523-.183 1.092.046 1.603.23.512.645.903 1.17 1.103a2.098 2.098 0 002.712-1.213l.11-.289a2.08 2.08 0 00-.047-1.604 2.096 2.096 0 00-1.915-1.24m-.113 4.917h-.013a2.518 2.518 0 01-.888-.167 2.511 2.511 0 01-1.41-1.33 2.507 2.507 0 01-.056-1.934l.11-.289a2.54 2.54 0 013.27-1.464c.632.24 1.133.713 1.41 1.33a2.51 2.51 0 01.056 1.935l-.11.288a2.548 2.548 0 01-2.369 1.63m-2.1 5.046h.01c.868 0 1.656-.542 1.965-1.352l.11-.288a2.084 2.084 0 00-.046-1.604 2.105 2.105 0 00-3.882.11l-.11.29a2.08 2.08 0 00.046 1.604c.23.51.646.902 1.17 1.101a2.1 2.1 0 00.737.139m.01.433h-.012a2.543 2.543 0 01-2.3-1.496 2.511 2.511 0 01-.055-1.936l.11-.288a2.54 2.54 0 013.27-1.464c.633.24 1.134.713 1.41 1.33a2.51 2.51 0 01.056 1.934l-.11.289a2.547 2.547 0 01-2.369 1.63m-1.977.561c-.847 0-1.646.516-1.966 1.352l-.11.287a2.08 2.08 0 00.046 1.603c.23.512.645.904 1.17 1.104.237.09.485.137.737.138h.012a2.11 2.11 0 001.963-1.351l.11-.288a2.08 2.08 0 00-.046-1.603 2.084 2.084 0 00-1.17-1.103 2.09 2.09 0 00-.746-.139m-.111 4.917h-.014a2.507 2.507 0 01-.89-.167 2.514 2.514 0 01-1.41-1.33 2.512 2.512 0 01-.055-1.935l.11-.288a2.536 2.536 0 014.681-.132c.276.616.296 1.303.055 1.934l-.11.288a2.546 2.546 0 01-2.367 1.63" fill="#e8e8e4"/><path d="M129.797 92.458a2.317 2.317 0 01-2.153-3.137l.11-.288a2.319 2.319 0 012.99-1.34 2.313 2.313 0 011.342 2.986l-.11.288a2.318 2.318 0 01-2.179 1.491m-2.09 5.478a2.312 2.312 0 01-2.154-3.138l.11-.288a2.32 2.32 0 012.991-1.339 2.312 2.312 0 011.342 2.986l-.11.288a2.318 2.318 0 01-2.178 1.491m-2.09 5.478a2.312 2.312 0 01-2.154-3.138l.11-.289a2.319 2.319 0 012.99-1.338 2.312 2.312 0 011.342 2.985l-.11.289a2.319 2.319 0 01-2.178 1.49m-2.09 5.478a2.313 2.313 0 01-2.154-3.138l.11-.288a2.319 2.319 0 012.992-1.338 2.313 2.313 0 011.34 2.986l-.11.288a2.318 2.318 0 01-2.178 1.49m-2.09 5.478a2.313 2.313 0 01-2.154-3.138l.11-.288a2.319 2.319 0 012.992-1.339 2.313 2.313 0 011.34 2.986l-.11.288a2.318 2.318 0 01-2.178 1.491m-2.09 5.478a2.313 2.313 0 01-2.154-3.138l.11-.288a2.32 2.32 0 012.991-1.34 2.312 2.312 0 011.342 2.986l-.11.289a2.319 2.319 0 01-2.178 1.49m-2.09 5.478a2.312 2.312 0 01-2.154-3.138l.11-.288a2.32 2.32 0 012.99-1.339 2.312 2.312 0 011.342 2.986l-.11.288a2.319 2.319 0 01-2.178 1.491m-2.09 5.478a2.312 2.312 0 01-2.154-3.138l.11-.288a2.318 2.318 0 014.332 1.647l-.11.288a2.319 2.319 0 01-2.178 1.49" fill="#c60294"/><g><path d="M129.922 87.758c-.848 0-1.647.515-1.966 1.351l-.11.289a2.08 2.08 0 00.046 1.604c.23.512.646.903 1.17 1.102.238.09.485.137.736.138h.012a2.11 2.11 0 001.964-1.351l.11-.289c.199-.523.183-1.093-.046-1.603a2.087 2.087 0 00-1.17-1.103 2.093 2.093 0 00-.746-.138m-.112 4.917h-.014a2.526 2.526 0 01-.888-.166 2.516 2.516 0 01-1.41-1.33 2.51 2.51 0 01-.057-1.935l.11-.289a2.538 2.538 0 014.682-.133 2.51 2.51 0 01.055 1.934l-.11.288a2.546 2.546 0 01-2.368 1.63m-1.978.562c-.847 0-1.647.515-1.966 1.35l-.11.29a2.08 2.08 0 00.046 1.603c.23.511.645.903 1.17 1.102.238.091.486.137.737.139h.01c.867 0 1.656-.543 1.965-1.352l.11-.288a2.08 2.08 0 00-.047-1.605 2.086 2.086 0 00-1.17-1.102 2.09 2.09 0 00-.745-.137m-.113 4.916h-.013a2.528 2.528 0 01-.888-.166 2.518 2.518 0 01-1.411-1.33 2.511 2.511 0 01-.055-1.935l.11-.288a2.537 2.537 0 014.68-.135 2.51 2.51 0 01.056 1.936l-.11.288a2.547 2.547 0 01-2.369 1.63m-2.1 5.046a2.123 2.123 0 001.975-1.352l.11-.289c.2-.523.183-1.092-.046-1.603a2.105 2.105 0 00-3.882.11l-.11.29a2.08 2.08 0 00.047 1.604 2.114 2.114 0 001.906 1.24m.01.432h-.012a2.543 2.543 0 01-2.3-1.495 2.51 2.51 0 01-.055-1.936l.11-.289a2.54 2.54 0 013.27-1.464c.633.241 1.134.713 1.41 1.33a2.51 2.51 0 01.056 1.935l-.11.289a2.546 2.546 0 01-2.369 1.63m-1.977.561c-.846 0-1.646.515-1.965 1.352l-.11.287a2.08 2.08 0 00.045 1.603c.23.512.645.904 1.17 1.103.237.09.486.137.737.139h.012c.866 0 1.654-.542 1.963-1.351l.11-.288c.2-.523.184-1.093-.045-1.604a2.085 2.085 0 00-1.17-1.103 2.086 2.086 0 00-.747-.138m-.111 4.916h-.014a2.507 2.507 0 01-.89-.167 2.515 2.515 0 01-1.41-1.33 2.512 2.512 0 01-.055-1.934l.11-.288a2.537 2.537 0 014.681-.132c.277.616.296 1.303.055 1.934l-.11.288a2.546 2.546 0 01-2.367 1.63m-1.978.561c-.847 0-1.647.515-1.966 1.351l-.11.288c-.2.523-.184 1.092.045 1.603.23.512.645.904 1.17 1.103.238.09.486.137.737.138h.012c.866 0 1.654-.541 1.964-1.351l.11-.288c.199-.523.183-1.092-.046-1.603a2.084 2.084 0 00-1.17-1.103 2.092 2.092 0 00-.746-.138m-.112 4.916h-.014a2.53 2.53 0 01-.888-.166 2.518 2.518 0 01-1.412-1.331 2.511 2.511 0 01-.055-1.935l.11-.288a2.538 2.538 0 013.27-1.463 2.517 2.517 0 011.411 1.331c.277.617.296 1.303.056 1.934l-.11.288a2.546 2.546 0 01-2.368 1.63m-1.978.562c-.847 0-1.648.515-1.966 1.35l-.11.289c-.2.523-.183 1.092.046 1.603.23.512.645.904 1.17 1.103a2.098 2.098 0 002.712-1.213l.11-.288a2.08 2.08 0 00-.047-1.605 2.086 2.086 0 00-1.17-1.102 2.089 2.089 0 00-.745-.137m-.113 4.916h-.013a2.517 2.517 0 01-.888-.166 2.513 2.513 0 01-1.41-1.331 2.507 2.507 0 01-.056-1.934l.11-.288a2.54 2.54 0 013.27-1.465c.632.241 1.133.713 1.41 1.33.277.616.297 1.304.056 1.935l-.11.289a2.548 2.548 0 01-2.369 1.63m-2.1 5.045h.01c.868 0 1.656-.542 1.965-1.352l.11-.288a2.082 2.082 0 00-.046-1.603 2.086 2.086 0 00-1.17-1.103 2.106 2.106 0 00-2.712 1.213l-.11.289a2.08 2.08 0 00.047 1.604c.23.511.645.903 1.17 1.102.237.09.485.137.736.138m.01.433h-.012a2.543 2.543 0 01-2.3-1.496 2.511 2.511 0 01-.055-1.935l.11-.289a2.54 2.54 0 013.27-1.464c.633.24 1.134.713 1.41 1.33a2.51 2.51 0 01.057 1.935l-.11.288a2.547 2.547 0 01-2.37 1.63m-1.977.562c-.847 0-1.646.515-1.965 1.351l-.11.288a2.08 2.08 0 00.045 1.603c.23.511.645.904 1.17 1.103.238.09.486.137.737.139h.012c.866 0 1.654-.542 1.963-1.352l.11-.287a2.08 2.08 0 00-.045-1.604 2.085 2.085 0 00-1.17-1.103 2.088 2.088 0 00-.747-.138m-.111 4.916h-.014a2.507 2.507 0 01-.89-.167 2.515 2.515 0 01-1.41-1.33 2.513 2.513 0 01-.055-1.935l.11-.288a2.537 2.537 0 014.681-.132c.276.617.296 1.304.055 1.935l-.11.288a2.546 2.546 0 01-2.367 1.629" fill="#e8e8e4"/></g><g><path d="M135.626 93.548a2.312 2.312 0 01-2.154-3.138l.11-.288a2.319 2.319 0 012.991-1.339 2.313 2.313 0 011.342 2.986l-.11.288a2.319 2.319 0 01-2.179 1.491m-2.09 5.478a2.312 2.312 0 01-2.154-3.138l.11-.289a2.318 2.318 0 014.333 1.647l-.11.289a2.318 2.318 0 01-2.178 1.49m-2.09 5.478a2.312 2.312 0 01-2.154-3.138l.11-.288a2.319 2.319 0 012.99-1.339 2.312 2.312 0 011.342 2.986l-.11.288a2.318 2.318 0 01-2.178 1.491m-2.09 5.478a2.319 2.319 0 01-2.153-3.139l.11-.288a2.319 2.319 0 012.991-1.338 2.313 2.313 0 011.34 2.987l-.11.288a2.318 2.318 0 01-2.178 1.49m-2.09 5.478a2.313 2.313 0 01-2.154-3.138l.11-.289a2.32 2.32 0 012.992-1.338 2.313 2.313 0 011.34 2.986l-.11.288a2.318 2.318 0 01-2.178 1.49m-2.09 5.478a2.312 2.312 0 01-2.154-3.138l.11-.288a2.32 2.32 0 012.991-1.339 2.312 2.312 0 011.342 2.986l-.11.288a2.319 2.319 0 01-2.179 1.491m-2.089 5.478a2.318 2.318 0 01-2.154-3.138l.11-.288a2.319 2.319 0 012.99-1.34 2.313 2.313 0 011.342 2.986l-.11.289a2.318 2.318 0 01-2.178 1.49m-2.09 5.478a2.312 2.312 0 01-2.154-3.138l.11-.288a2.319 2.319 0 012.992-1.338 2.312 2.312 0 011.34 2.986l-.11.288a2.319 2.319 0 01-2.178 1.49" fill="#c60294"/></g><g><path d="M135.75 88.848c-.847 0-1.646.515-1.965 1.35l-.11.29c-.2.523-.183 1.092.046 1.603.23.511.645.903 1.17 1.102.237.09.485.137.737.138h.01c.868 0 1.656-.541 1.965-1.351l.11-.288a2.08 2.08 0 00-.046-1.604 2.086 2.086 0 00-1.17-1.102 2.092 2.092 0 00-.747-.138m-.111 4.916h-.014a2.518 2.518 0 01-.888-.166 2.516 2.516 0 01-1.411-1.33 2.51 2.51 0 01-.055-1.934l.11-.29a2.538 2.538 0 013.27-1.463c.632.24 1.134.713 1.41 1.33.277.617.297 1.304.056 1.935l-.11.288a2.546 2.546 0 01-2.368 1.63m-1.978.561c-.847 0-1.647.516-1.966 1.351l-.11.289c-.2.523-.183 1.092.046 1.603.23.512.645.904 1.17 1.103.238.09.485.137.737.138h.01c.867 0 1.656-.542 1.965-1.351l.11-.29c.2-.522.183-1.09-.046-1.602a2.084 2.084 0 00-1.17-1.103 2.09 2.09 0 00-.746-.138m-.113 4.917h-.012a2.536 2.536 0 01-2.3-1.497 2.51 2.51 0 01-.055-1.934l.11-.288a2.54 2.54 0 013.27-1.465c.633.241 1.134.713 1.41 1.331a2.51 2.51 0 01.056 1.934l-.11.288a2.546 2.546 0 01-2.369 1.63m-1.977.562c-.847 0-1.647.516-1.966 1.351l-.11.289c-.2.523-.183 1.092.046 1.603.23.511.645.903 1.17 1.103.238.09.486.137.737.138h.011a2.11 2.11 0 001.964-1.352l.11-.288c.2-.524.183-1.093-.046-1.604a2.1 2.1 0 00-1.916-1.24m-.112 4.916h-.013a2.527 2.527 0 01-.888-.166 2.516 2.516 0 01-1.411-1.33 2.51 2.51 0 01-.056-1.934l.11-.289a2.539 2.539 0 013.27-1.464c.633.24 1.134.713 1.411 1.33a2.51 2.51 0 01.055 1.935l-.11.288a2.545 2.545 0 01-2.368 1.63m-1.977.562c-.847 0-1.647.515-1.966 1.35l-.11.288a2.08 2.08 0 00.045 1.604c.23.511.645.904 1.17 1.103.237.09.485.137.737.139a2.129 2.129 0 001.975-1.351l.11-.288a2.08 2.08 0 00-.045-1.604 2.083 2.083 0 00-1.17-1.103 2.087 2.087 0 00-.746-.138m-.113 4.916h-.013a2.508 2.508 0 01-.89-.167 2.515 2.515 0 01-1.41-1.33 2.51 2.51 0 01-.054-1.935l.11-.288a2.54 2.54 0 013.27-1.463c.633.241 1.134.714 1.41 1.331.277.617.296 1.304.055 1.935l-.11.288a2.548 2.548 0 01-2.368 1.629m-1.976.562c-.848 0-1.648.515-1.967 1.35l-.11.289c-.2.522-.184 1.092.045 1.602a2.1 2.1 0 001.907 1.242h.012a2.11 2.11 0 001.963-1.351l.11-.289c.2-.523.184-1.093-.046-1.604a2.083 2.083 0 00-1.169-1.102 2.088 2.088 0 00-.745-.137m-.113 4.916h-.014a2.522 2.522 0 01-.888-.166 2.518 2.518 0 01-1.411-1.332 2.511 2.511 0 01-.055-1.934l.11-.288a2.541 2.541 0 013.27-1.464c.632.24 1.133.713 1.41 1.33.277.617.297 1.304.056 1.936l-.11.288a2.546 2.546 0 01-2.368 1.63m-1.978.561c-.847 0-1.647.515-1.966 1.351l-.11.289a2.08 2.08 0 00.046 1.603c.23.512.645.903 1.17 1.103a2.097 2.097 0 002.712-1.214l.11-.288a2.08 2.08 0 00-.046-1.603 2.096 2.096 0 00-1.916-1.24m-.113 4.916h-.013a2.516 2.516 0 01-.887-.167 2.511 2.511 0 01-1.412-1.33 2.507 2.507 0 01-.055-1.934l.11-.289a2.54 2.54 0 013.27-1.464c.633.24 1.134.713 1.41 1.33a2.51 2.51 0 01.056 1.934l-.11.29a2.547 2.547 0 01-2.369 1.63m-1.977.56c-.847 0-1.647.516-1.966 1.352l-.11.289a2.08 2.08 0 00.046 1.602c.23.512.645.904 1.17 1.103.238.09.486.137.737.138h.011a2.11 2.11 0 001.964-1.351l.11-.289a2.08 2.08 0 00-.046-1.603 2.085 2.085 0 00-1.17-1.103 2.085 2.085 0 00-.746-.137m-.112 4.916h-.013a2.527 2.527 0 01-.888-.166 2.517 2.517 0 01-1.412-1.33 2.51 2.51 0 01-.055-1.935l.11-.288a2.538 2.538 0 013.27-1.464c.633.24 1.134.713 1.41 1.33a2.51 2.51 0 01.057 1.934l-.11.289a2.545 2.545 0 01-2.369 1.63m-1.978.561c-.846 0-1.646.515-1.965 1.351l-.11.288a2.08 2.08 0 00.045 1.603c.23.512.645.904 1.17 1.104.238.09.486.137.737.138.878-.012 1.665-.539 1.975-1.352l.11-.287a2.08 2.08 0 00-.045-1.603 2.084 2.084 0 00-1.17-1.103 2.088 2.088 0 00-.747-.139m-.112 4.917h-.013a2.507 2.507 0 01-.89-.167 2.514 2.514 0 01-1.41-1.33 2.51 2.51 0 01-.055-1.935l.11-.288a2.537 2.537 0 014.681-.132c.277.617.296 1.303.055 1.934l-.11.288a2.547 2.547 0 01-2.368 1.63" fill="#e8e8e4"/></g><g><path d="M141.456 94.622a2.312 2.312 0 01-2.154-3.138l.11-.288a2.319 2.319 0 012.99-1.34 2.312 2.312 0 011.342 2.987l-.11.288a2.319 2.319 0 01-2.178 1.49m-2.09 5.478a2.312 2.312 0 01-2.154-3.138l.11-.288a2.318 2.318 0 014.332 1.647l-.11.288a2.319 2.319 0 01-2.178 1.491m-2.09 5.478a2.312 2.312 0 01-2.154-3.138l.11-.288a2.319 2.319 0 012.99-1.34 2.312 2.312 0 011.342 2.986l-.11.289a2.318 2.318 0 01-2.178 1.49m-2.09 5.478a2.312 2.312 0 01-2.154-3.138l.11-.288a2.318 2.318 0 014.332 1.648l-.11.288a2.319 2.319 0 01-2.178 1.49m-2.09 5.478a2.313 2.313 0 01-2.154-3.138l.11-.288a2.32 2.32 0 012.992-1.339 2.313 2.313 0 011.34 2.986l-.11.288a2.318 2.318 0 01-2.178 1.491m-2.09 5.478a2.312 2.312 0 01-2.154-3.138l.111-.288a2.32 2.32 0 012.99-1.34 2.312 2.312 0 011.342 2.986l-.11.289a2.319 2.319 0 01-2.178 1.49m-2.09 5.478a2.317 2.317 0 01-2.154-3.137l.11-.288a2.319 2.319 0 012.991-1.34 2.313 2.313 0 011.341 2.986l-.11.289a2.318 2.318 0 01-2.178 1.49m-2.09 5.478a2.312 2.312 0 01-2.154-3.138l.11-.288a2.318 2.318 0 014.332 1.648l-.11.288a2.319 2.319 0 01-2.178 1.49" fill="#c60294"/></g><g><path d="M141.58 89.921c-.847 0-1.647.516-1.966 1.352l-.11.288a2.08 2.08 0 00.047 1.605c.229.51.645.902 1.169 1.101.238.091.485.137.737.138a2.12 2.12 0 001.975-1.351l.11-.288a2.08 2.08 0 00-.046-1.604 2.084 2.084 0 00-1.17-1.103 2.091 2.091 0 00-.746-.138m-.112 4.917h-.014a2.518 2.518 0 01-.887-.166 2.516 2.516 0 01-1.411-1.329 2.51 2.51 0 01-.056-1.936l.11-.288a2.538 2.538 0 013.27-1.465c.632.241 1.134.714 1.41 1.331a2.51 2.51 0 01.056 1.934l-.11.289a2.546 2.546 0 01-2.368 1.63m-1.978.56c-.847 0-1.647.516-1.966 1.352l-.11.288c-.2.524-.183 1.093.046 1.603a2.1 2.1 0 001.907 1.241h.01c.867 0 1.656-.541 1.965-1.35l.11-.29a2.08 2.08 0 00-.047-1.603 2.085 2.085 0 00-1.17-1.102 2.09 2.09 0 00-.745-.138m-.113 4.916h-.012a2.52 2.52 0 01-.889-.165 2.516 2.516 0 01-1.41-1.331 2.508 2.508 0 01-.056-1.935l.11-.288a2.538 2.538 0 014.68-.135c.277.617.297 1.304.056 1.936l-.11.289a2.547 2.547 0 01-2.369 1.63m-2.1 5.045a2.139 2.139 0 001.975-1.352l.11-.289c.2-.523.183-1.092-.046-1.603a2.105 2.105 0 00-3.882.11l-.11.29a2.08 2.08 0 00.047 1.604 2.114 2.114 0 001.906 1.24m.01.432h-.012a2.55 2.55 0 01-.888-.166 2.518 2.518 0 01-1.41-1.33 2.51 2.51 0 01-.057-1.935l.11-.288a2.54 2.54 0 013.27-1.464c.633.24 1.134.713 1.411 1.33a2.51 2.51 0 01.055 1.934l-.11.289a2.547 2.547 0 01-2.369 1.63m-1.977.562c-.846 0-1.646.515-1.965 1.35l-.11.288c-.2.523-.184 1.092.045 1.603.23.512.645.904 1.17 1.103.237.091.485.138.737.139h.012c.866 0 1.654-.542 1.963-1.351l.11-.288c.2-.523.184-1.093-.045-1.603a2.086 2.086 0 00-1.17-1.104 2.089 2.089 0 00-.747-.137m-.111 4.916h-.014a2.515 2.515 0 01-.89-.167 2.515 2.515 0 01-1.41-1.331 2.51 2.51 0 01-.055-1.934l.11-.288a2.535 2.535 0 014.682-.132c.276.617.295 1.303.055 1.935l-.11.287a2.546 2.546 0 01-2.368 1.63m-1.978.561c-.847 0-1.647.515-1.966 1.351l-.11.288c-.2.523-.184 1.092.045 1.603.23.512.645.904 1.17 1.104.238.09.486.137.738.138h.01a2.11 2.11 0 001.964-1.352l.11-.288a2.08 2.08 0 00-.045-1.602 2.086 2.086 0 00-1.17-1.104 2.092 2.092 0 00-.746-.138m-.112 4.916h-.014a2.522 2.522 0 01-.888-.166 2.518 2.518 0 01-1.411-1.331 2.511 2.511 0 01-.055-1.934l.11-.288a2.538 2.538 0 013.27-1.464 2.517 2.517 0 011.41 1.331c.277.617.296 1.303.056 1.935l-.11.288a2.547 2.547 0 01-2.368 1.63m-1.978.561c-.847 0-1.647.515-1.966 1.35l-.11.29c-.2.522-.183 1.091.046 1.602.23.512.645.904 1.17 1.104.238.09.485.136.737.138h.01c.868 0 1.656-.542 1.965-1.352l.11-.289a2.08 2.08 0 00-.047-1.604 2.086 2.086 0 00-1.17-1.102 2.086 2.086 0 00-.745-.137m-.113 4.916h-.012a2.51 2.51 0 01-.888-.166 2.513 2.513 0 01-1.412-1.33 2.508 2.508 0 01-.055-1.934l.11-.29a2.54 2.54 0 013.27-1.464c.632.241 1.133.713 1.41 1.33.277.617.297 1.304.056 1.936l-.11.288a2.547 2.547 0 01-2.369 1.63m-2.1 5.045c.878-.012 1.665-.539 1.975-1.351l.11-.289a2.08 2.08 0 00-.046-1.603 2.103 2.103 0 00-3.882.11l-.11.289a2.08 2.08 0 00.047 1.604c.23.512.645.903 1.17 1.102.237.09.485.137.736.138m.01.433h-.012a2.543 2.543 0 01-2.299-1.495 2.511 2.511 0 01-.056-1.936l.11-.289a2.538 2.538 0 014.681-.133c.277.616.296 1.303.056 1.934l-.11.288a2.547 2.547 0 01-2.37 1.631m-1.977.56c-.847 0-1.646.516-1.965 1.352l-.11.288a2.08 2.08 0 00.045 1.603c.23.512.645.904 1.17 1.103.238.091.485.137.737.139h.012a2.11 2.11 0 001.963-1.351l.11-.288a2.08 2.08 0 00-.045-1.604 2.085 2.085 0 00-1.17-1.103 2.088 2.088 0 00-.747-.138m-.111 4.916h-.014a2.507 2.507 0 01-.89-.167 2.515 2.515 0 01-1.41-1.33 2.51 2.51 0 01-.055-1.935l.11-.287a2.536 2.536 0 014.681-.132c.277.616.296 1.303.056 1.934l-.11.288a2.546 2.546 0 01-2.368 1.63" fill="#e8e8e4"/></g><g><path d="M147.717 95.487a2.318 2.318 0 01-2.153-3.138l.11-.288a2.319 2.319 0 012.99-1.339 2.312 2.312 0 011.341 2.986l-.11.288a2.319 2.319 0 01-2.178 1.491m-2.09 5.478a2.313 2.313 0 01-2.154-3.138l.11-.289a2.319 2.319 0 012.991-1.338 2.312 2.312 0 011.342 2.985l-.11.288a2.319 2.319 0 01-2.179 1.492m-2.09 5.477a2.313 2.313 0 01-2.154-3.138l.111-.288a2.32 2.32 0 012.99-1.339 2.312 2.312 0 011.342 2.986l-.11.288a2.32 2.32 0 01-2.178 1.491m-2.09 5.478a2.313 2.313 0 01-2.154-3.138l.11-.288a2.318 2.318 0 014.332 1.647l-.11.288a2.32 2.32 0 01-2.178 1.49m-2.09 5.479a2.313 2.313 0 01-2.154-3.138l.11-.289a2.319 2.319 0 012.992-1.338 2.313 2.313 0 011.34 2.986l-.11.288a2.319 2.319 0 01-2.178 1.49m-2.09 5.478a2.312 2.312 0 01-2.154-3.138l.11-.288a2.32 2.32 0 012.991-1.339 2.312 2.312 0 011.342 2.986l-.11.288a2.319 2.319 0 01-2.179 1.491m-2.09 5.478a2.312 2.312 0 01-2.154-3.138l.11-.288a2.318 2.318 0 014.333 1.646l-.11.289a2.319 2.319 0 01-2.178 1.49m-2.09 5.478a2.313 2.313 0 01-2.154-3.138l.11-.288a2.318 2.318 0 014.332 1.648l-.11.288a2.318 2.318 0 01-2.178 1.49" fill="#c60294"/></g><g><path d="M147.841 90.787c-.847 0-1.646.515-1.965 1.351l-.11.288a2.08 2.08 0 00.046 1.605c.23.511.645.902 1.17 1.102.237.09.485.136.736.137h.012a2.11 2.11 0 001.963-1.35l.11-.29c.2-.523.184-1.092-.045-1.603a2.087 2.087 0 00-1.17-1.103 2.09 2.09 0 00-.747-.137m-.111 4.916h-.014a2.528 2.528 0 01-.888-.166 2.517 2.517 0 01-1.41-1.329 2.51 2.51 0 01-.057-1.936l.11-.288a2.538 2.538 0 014.681-.134 2.51 2.51 0 01.056 1.934l-.11.289a2.546 2.546 0 01-2.368 1.63m-1.978.561c-.847 0-1.647.516-1.966 1.351l-.11.289a2.08 2.08 0 00.046 1.603c.23.512.645.904 1.17 1.103.238.09.486.137.737.138h.01c.867 0 1.656-.542 1.965-1.352l.11-.288a2.08 2.08 0 00-.047-1.604 2.086 2.086 0 00-1.17-1.102 2.09 2.09 0 00-.745-.138m-.113 4.917h-.012a2.535 2.535 0 01-2.356-3.431l.11-.289a2.538 2.538 0 013.27-1.464c.633.241 1.134.713 1.41 1.33.278.616.298 1.304.057 1.935l-.11.289a2.547 2.547 0 01-2.37 1.63m-2.1 5.045a2.135 2.135 0 001.976-1.352l.11-.288a2.08 2.08 0 00-.046-1.604 2.104 2.104 0 00-3.882.11l-.11.29a2.08 2.08 0 00.046 1.604c.23.511.646.903 1.17 1.102.238.09.485.136.737.138m.01.433h-.012a2.543 2.543 0 01-2.299-1.496 2.508 2.508 0 01-.056-1.935l.11-.289a2.54 2.54 0 013.27-1.464c.633.24 1.134.713 1.41 1.33a2.51 2.51 0 01.056 1.935l-.11.288a2.547 2.547 0 01-2.369 1.63m-1.977.562c-.847 0-1.646.515-1.966 1.35l-.11.289a2.08 2.08 0 00.046 1.603c.23.511.645.903 1.17 1.103.237.09.485.137.737.138h.011c.867 0 1.655-.541 1.964-1.351l.11-.288c.2-.523.183-1.092-.045-1.603a2.086 2.086 0 00-1.17-1.103 2.088 2.088 0 00-.747-.138m-.112 4.916h-.013a2.503 2.503 0 01-.89-.167 2.516 2.516 0 01-1.41-1.331 2.512 2.512 0 01-.055-1.934l.11-.288a2.535 2.535 0 014.682-.132c.275.617.295 1.303.054 1.935l-.11.287a2.546 2.546 0 01-2.368 1.63m-1.977.562c-.847 0-1.647.515-1.966 1.35l-.11.289c-.2.522-.184 1.091.045 1.602a2.1 2.1 0 001.907 1.242h.012a2.11 2.11 0 001.963-1.351l.11-.289a2.08 2.08 0 00-.045-1.602 2.086 2.086 0 00-1.17-1.104 2.09 2.09 0 00-.746-.137m-.112 4.915h-.014a2.52 2.52 0 01-.889-.165 2.516 2.516 0 01-1.41-1.332 2.51 2.51 0 01-.056-1.934l.11-.288a2.538 2.538 0 013.27-1.464 2.518 2.518 0 011.411 1.332 2.51 2.51 0 01.056 1.934l-.11.288a2.546 2.546 0 01-2.368 1.63m-1.978.561c-.847 0-1.647.515-1.966 1.35l-.11.29c-.2.523-.183 1.092.046 1.603a2.103 2.103 0 001.907 1.241h.01c.867 0 1.656-.542 1.964-1.352l.11-.288a2.08 2.08 0 00-.046-1.605 2.096 2.096 0 00-1.915-1.24m-.113 4.917h-.012a2.535 2.535 0 01-2.3-1.496 2.51 2.51 0 01-.055-1.934l.11-.289a2.54 2.54 0 013.269-1.464c.633.24 1.134.712 1.41 1.329a2.51 2.51 0 01.057 1.936l-.11.289a2.547 2.547 0 01-2.37 1.63m-2.099 5.045a2.124 2.124 0 001.975-1.352l.11-.289c.2-.523.183-1.092-.046-1.603a2.104 2.104 0 00-3.882.11l-.11.29a2.08 2.08 0 00.046 1.603c.23.512.646.903 1.17 1.102a2.1 2.1 0 00.737.139m.01.432h-.012a2.543 2.543 0 01-2.3-1.495 2.511 2.511 0 01-.055-1.936l.11-.288a2.537 2.537 0 014.68-.134 2.51 2.51 0 01.056 1.934l-.11.289a2.547 2.547 0 01-2.369 1.63m-1.977.561c-.847 0-1.646.515-1.966 1.351l-.11.288a2.08 2.08 0 00.046 1.603c.23.512.645.904 1.17 1.103.237.091.485.138.737.139h.011a2.11 2.11 0 001.964-1.351l.11-.288a2.08 2.08 0 00-.046-1.603 2.084 2.084 0 00-1.17-1.103 2.088 2.088 0 00-.746-.139m-.112 4.917h-.014a2.507 2.507 0 01-.889-.167 2.515 2.515 0 01-1.41-1.33 2.512 2.512 0 01-.055-1.936l.11-.287a2.536 2.536 0 014.681-.132c.276.617.296 1.303.055 1.934l-.11.288a2.546 2.546 0 01-2.368 1.63" fill="#e8e8e4"/></g></svg>