<svg width="24" height="24" viewBox="0 0 24 24" fill="none" xmlns="http://www.w3.org/2000/svg">
<path d="M12 1C5.92545 1 1 5.92545 1 12C1 18.0746 5.92545 23 12 23C18.0746 23 23 18.0746 23 12C23 5.92545 18.0746 1 12 1ZM12 21.1339C6.9567 21.1339 2.86607 17.0433 2.86607 12C2.86607 6.9567 6.9567 2.86607 12 2.86607C17.0433 2.86607 21.1339 6.9567 21.1339 12C21.1339 17.0433 17.0433 21.1339 12 21.1339Z" fill="#002B3F" stroke="#002B3F"></path>
<path d="M16.2891 15.1086L12.7878 12.5771V6.50014C12.7878 6.3921 12.6994 6.30371 12.5913 6.30371H11.4103C11.3023 6.30371 11.2139 6.3921 11.2139 6.50014V13.2622C11.2139 13.326 11.2433 13.385 11.2949 13.4218L15.3561 16.383C15.4444 16.4468 15.5672 16.4271 15.6311 16.3412L16.3333 15.3836C16.3971 15.2928 16.3775 15.17 16.2891 15.1086Z" fill="#002B3F" stroke="#002B3F"></path>
</svg>
